<?xml version="1.0" encoding="utf-8" standalone="no"?>
<!DOCTYPE svg PUBLIC "-//W3C//DTD SVG 1.1//EN"
  "http://www.w3.org/Graphics/SVG/1.1/DTD/svg11.dtd">
<!-- Created with matplotlib (https://matplotlib.org/) -->
<svg height="597.6pt" version="1.1" viewBox="0 0 417.6 597.6" width="417.6pt" xmlns="http://www.w3.org/2000/svg" xmlns:xlink="http://www.w3.org/1999/xlink">
 <defs>
  <style type="text/css">
*{stroke-linecap:butt;stroke-linejoin:round;}
  </style>
 </defs>
 <g id="figure_1">
  <g id="patch_1">
   <path d="M 0 597.6 
L 417.6 597.6 
L 417.6 0 
L 0 0 
z
" style="fill:#ffffff;"/>
  </g>
  <g id="axes_1">
   <g id="patch_2">
    <path d="M 52.2 129.764571 
L 375.84 129.764571 
L 375.84 71.712 
L 52.2 71.712 
z
" style="fill:#ffffff;"/>
   </g>
   <g id="matplotlib.axis_1">
    <g id="xtick_1">
     <g id="line2d_1">
      <defs>
       <path d="M 0 0 
L 0 3.5 
" id="m0e9dd40288" style="stroke:#000000;stroke-width:0.8;"/>
      </defs>
      <g>
       <use style="stroke:#000000;stroke-width:0.8;" x="80.314182" xlink:href="#m0e9dd40288" y="129.764571"/>
      </g>
     </g>
    </g>
    <g id="xtick_2">
     <g id="line2d_2">
      <g>
       <use style="stroke:#000000;stroke-width:0.8;" x="132.619636" xlink:href="#m0e9dd40288" y="129.764571"/>
      </g>
     </g>
    </g>
    <g id="xtick_3">
     <g id="line2d_3">
      <g>
       <use style="stroke:#000000;stroke-width:0.8;" x="184.925091" xlink:href="#m0e9dd40288" y="129.764571"/>
      </g>
     </g>
    </g>
    <g id="xtick_4">
     <g id="line2d_4">
      <g>
       <use style="stroke:#000000;stroke-width:0.8;" x="237.230545" xlink:href="#m0e9dd40288" y="129.764571"/>
      </g>
     </g>
    </g>
    <g id="xtick_5">
     <g id="line2d_5">
      <g>
       <use style="stroke:#000000;stroke-width:0.8;" x="289.536" xlink:href="#m0e9dd40288" y="129.764571"/>
      </g>
     </g>
    </g>
    <g id="xtick_6">
     <g id="line2d_6">
      <g>
       <use style="stroke:#000000;stroke-width:0.8;" x="341.841455" xlink:href="#m0e9dd40288" y="129.764571"/>
      </g>
     </g>
    </g>
   </g>
   <g id="matplotlib.axis_2">
    <g id="ytick_1">
     <g id="line2d_7">
      <defs>
       <path d="M 0 0 
L -3.5 0 
" id="m5b638e67fa" style="stroke:#000000;stroke-width:0.8;"/>
      </defs>
      <g>
       <use style="stroke:#000000;stroke-width:0.8;" x="52.2" xlink:href="#m5b638e67fa" y="115.48426"/>
      </g>
     </g>
     <g id="text_1">
      <!-- 20 -->
      <defs>
       <path d="M 19.1875 8.296875 
L 53.609375 8.296875 
L 53.609375 0 
L 7.328125 0 
L 7.328125 8.296875 
Q 12.9375 14.109375 22.625 23.890625 
Q 32.328125 33.6875 34.8125 36.53125 
Q 39.546875 41.84375 41.421875 45.53125 
Q 43.3125 49.21875 43.3125 52.78125 
Q 43.3125 58.59375 39.234375 62.25 
Q 35.15625 65.921875 28.609375 65.921875 
Q 23.96875 65.921875 18.8125 64.3125 
Q 13.671875 62.703125 7.8125 59.421875 
L 7.8125 69.390625 
Q 13.765625 71.78125 18.9375 73 
Q 24.125 74.21875 28.421875 74.21875 
Q 39.75 74.21875 46.484375 68.546875 
Q 53.21875 62.890625 53.21875 53.421875 
Q 53.21875 48.921875 51.53125 44.890625 
Q 49.859375 40.875 45.40625 35.40625 
Q 44.1875 33.984375 37.640625 27.21875 
Q 31.109375 20.453125 19.1875 8.296875 
z
" id="DejaVuSans-50"/>
       <path d="M 31.78125 66.40625 
Q 24.171875 66.40625 20.328125 58.90625 
Q 16.5 51.421875 16.5 36.375 
Q 16.5 21.390625 20.328125 13.890625 
Q 24.171875 6.390625 31.78125 6.390625 
Q 39.453125 6.390625 43.28125 13.890625 
Q 47.125 21.390625 47.125 36.375 
Q 47.125 51.421875 43.28125 58.90625 
Q 39.453125 66.40625 31.78125 66.40625 
z
M 31.78125 74.21875 
Q 44.046875 74.21875 50.515625 64.515625 
Q 56.984375 54.828125 56.984375 36.375 
Q 56.984375 17.96875 50.515625 8.265625 
Q 44.046875 -1.421875 31.78125 -1.421875 
Q 19.53125 -1.421875 13.0625 8.265625 
Q 6.59375 17.96875 6.59375 36.375 
Q 6.59375 54.828125 13.0625 64.515625 
Q 19.53125 74.21875 31.78125 74.21875 
z
" id="DejaVuSans-48"/>
      </defs>
      <g transform="translate(34.600075 118.649009)scale(0.0833 -0.0833)">
       <use xlink:href="#DejaVuSans-50"/>
       <use x="63.623047" xlink:href="#DejaVuSans-48"/>
      </g>
     </g>
    </g>
    <g id="ytick_2">
     <g id="line2d_8">
      <g>
       <use style="stroke:#000000;stroke-width:0.8;" x="52.2" xlink:href="#m5b638e67fa" y="89.61413"/>
      </g>
     </g>
     <g id="text_2">
      <!-- 22 -->
      <g transform="translate(34.600075 92.778879)scale(0.0833 -0.0833)">
       <use xlink:href="#DejaVuSans-50"/>
       <use x="63.623047" xlink:href="#DejaVuSans-50"/>
      </g>
     </g>
    </g>
   </g>
   <g id="line2d_9">
    <path clip-path="url(#p039fa5c28d)" d="M 66.910909 74.350753 
L 69.090303 85.216208 
L 71.269697 91.036987 
L 73.449091 94.788156 
L 77.807879 98.798026 
L 79.987273 99.962182 
L 82.166667 101.902442 
L 84.346061 100.932312 
L 86.525455 102.118026 
L 88.704848 102.549195 
L 90.884242 102.549195 
L 93.063636 104.618805 
L 95.24303 106.429714 
L 97.422424 103.972052 
L 99.601818 97.504519 
L 101.781212 88.320623 
L 103.960606 88.967377 
L 106.14 87.027117 
L 108.319394 81.853091 
L 110.498788 85.862961 
L 112.678182 84.569455 
L 114.857576 83.146597 
L 117.03697 85.216208 
L 119.216364 87.889455 
L 121.395758 98.798026 
L 123.575152 101.255688 
L 125.754545 102.549195 
L 127.933939 106.429714 
L 130.113333 108.585558 
L 132.292727 112.315169 
L 134.472121 111.733091 
L 136.651515 109.016727 
L 141.010303 110.439584 
L 143.189697 110.439584 
L 145.369091 111.733091 
L 147.548485 111.733091 
L 149.727879 113.544 
L 151.907273 104.295429 
L 154.086667 98.474649 
L 156.266061 93.494649 
L 158.445455 94.141403 
L 160.624848 93.494649 
L 162.804242 93.494649 
L 164.983636 87.889455 
L 167.16303 88.320623 
L 169.342424 92.621532 
L 171.521818 93.494649 
L 173.701212 103.972052 
L 175.880606 109.016727 
L 178.06 112.897247 
L 180.239394 112.897247 
L 182.418788 115.48426 
L 184.598182 116.195688 
L 186.777576 115.48426 
L 188.95697 116.907117 
L 191.136364 116.907117 
L 193.315758 118.200623 
L 195.495152 118.782701 
L 197.674545 118.200623 
L 199.853939 118.200623 
L 202.033333 119.364779 
L 204.212727 119.795948 
L 208.571515 88.320623 
L 210.750909 79.783481 
L 212.930303 75.385558 
L 215.109697 80.171532 
L 217.289091 87.350494 
L 219.468485 97.504519 
L 221.647879 106.429714 
L 223.827273 110.439584 
L 226.006667 114.190753 
L 228.186061 115.48426 
L 232.544848 118.200623 
L 234.724242 119.364779 
L 236.903636 120.011532 
L 239.08303 121.305039 
L 241.262424 121.951792 
L 243.441818 123.374649 
L 245.621212 123.374649 
L 247.800606 124.668156 
L 249.98 124.021403 
L 252.159394 125.832312 
L 256.518182 125.832312 
L 258.697576 123.018935 
L 263.056364 127.125818 
L 265.235758 113.759584 
L 267.415152 106.753091 
L 269.594545 111.086338 
L 271.773939 116.907117 
L 273.953333 121.951792 
L 278.312121 124.668156 
L 282.670909 123.374649 
L 284.850303 121.951792 
L 289.209091 121.951792 
L 291.388485 123.374649 
L 293.567879 124.021403 
L 295.747273 123.374649 
L 297.926667 123.374649 
L 300.106061 124.668156 
L 302.285455 123.374649 
L 304.464848 124.021403 
L 306.644242 121.951792 
L 308.823636 120.981662 
L 311.00303 109.016727 
L 313.182424 102.549195 
L 315.361818 97.504519 
L 317.541212 96.081662 
L 319.720606 99.380104 
L 321.9 91.68374 
L 324.079394 90.088416 
L 326.258788 88.320623 
L 328.438182 88.320623 
L 330.617576 98.798026 
L 332.79697 106.860883 
L 334.976364 109.016727 
L 339.335152 109.016727 
L 343.693939 111.733091 
L 348.052727 111.733091 
L 350.232121 112.897247 
L 352.411515 113.759584 
L 354.590909 114.190753 
L 356.770303 111.733091 
L 358.949697 111.733091 
L 361.129091 109.016727 
L 361.129091 109.016727 
" style="fill:none;stroke:#0072b2;stroke-linecap:square;stroke-width:1.5;"/>
   </g>
   <g id="patch_3">
    <path d="M 52.2 129.764571 
L 52.2 71.712 
" style="fill:none;stroke:#000000;stroke-linecap:square;stroke-linejoin:miter;stroke-width:0.8;"/>
   </g>
   <g id="patch_4">
    <path d="M 375.84 129.764571 
L 375.84 71.712 
" style="fill:none;stroke:#000000;stroke-linecap:square;stroke-linejoin:miter;stroke-width:0.8;"/>
   </g>
   <g id="patch_5">
    <path d="M 52.2 129.764571 
L 375.84 129.764571 
" style="fill:none;stroke:#000000;stroke-linecap:square;stroke-linejoin:miter;stroke-width:0.8;"/>
   </g>
   <g id="patch_6">
    <path d="M 52.2 71.712 
L 375.84 71.712 
" style="fill:none;stroke:#000000;stroke-linecap:square;stroke-linejoin:miter;stroke-width:0.8;"/>
   </g>
   <g id="legend_1">
    <g id="patch_7">
     <path d="M 273.766562 94.390125 
L 368.84 94.390125 
Q 370.84 94.390125 370.84 92.390125 
L 370.84 78.712 
Q 370.84 76.712 368.84 76.712 
L 273.766562 76.712 
Q 271.766562 76.712 271.766562 78.712 
L 271.766562 92.390125 
Q 271.766562 94.390125 273.766562 94.390125 
z
" style="fill:#ffffff;opacity:0.8;stroke:#cccccc;stroke-linejoin:miter;"/>
    </g>
    <g id="line2d_10">
     <path d="M 275.766562 84.810438 
L 295.766562 84.810438 
" style="fill:none;stroke:#0072b2;stroke-linecap:square;stroke-width:1.5;"/>
    </g>
    <g id="line2d_11"/>
    <g id="text_3">
     <!-- temperature -->
     <defs>
      <path d="M 18.3125 70.21875 
L 18.3125 54.6875 
L 36.8125 54.6875 
L 36.8125 47.703125 
L 18.3125 47.703125 
L 18.3125 18.015625 
Q 18.3125 11.328125 20.140625 9.421875 
Q 21.96875 7.515625 27.59375 7.515625 
L 36.8125 7.515625 
L 36.8125 0 
L 27.59375 0 
Q 17.1875 0 13.234375 3.875 
Q 9.28125 7.765625 9.28125 18.015625 
L 9.28125 47.703125 
L 2.6875 47.703125 
L 2.6875 54.6875 
L 9.28125 54.6875 
L 9.28125 70.21875 
z
" id="DejaVuSans-116"/>
      <path d="M 56.203125 29.59375 
L 56.203125 25.203125 
L 14.890625 25.203125 
Q 15.484375 15.921875 20.484375 11.0625 
Q 25.484375 6.203125 34.421875 6.203125 
Q 39.59375 6.203125 44.453125 7.46875 
Q 49.3125 8.734375 54.109375 11.28125 
L 54.109375 2.78125 
Q 49.265625 0.734375 44.1875 -0.34375 
Q 39.109375 -1.421875 33.890625 -1.421875 
Q 20.796875 -1.421875 13.15625 6.1875 
Q 5.515625 13.8125 5.515625 26.8125 
Q 5.515625 40.234375 12.765625 48.109375 
Q 20.015625 56 32.328125 56 
Q 43.359375 56 49.78125 48.890625 
Q 56.203125 41.796875 56.203125 29.59375 
z
M 47.21875 32.234375 
Q 47.125 39.59375 43.09375 43.984375 
Q 39.0625 48.390625 32.421875 48.390625 
Q 24.90625 48.390625 20.390625 44.140625 
Q 15.875 39.890625 15.1875 32.171875 
z
" id="DejaVuSans-101"/>
      <path d="M 52 44.1875 
Q 55.375 50.25 60.0625 53.125 
Q 64.75 56 71.09375 56 
Q 79.640625 56 84.28125 50.015625 
Q 88.921875 44.046875 88.921875 33.015625 
L 88.921875 0 
L 79.890625 0 
L 79.890625 32.71875 
Q 79.890625 40.578125 77.09375 44.375 
Q 74.3125 48.1875 68.609375 48.1875 
Q 61.625 48.1875 57.5625 43.546875 
Q 53.515625 38.921875 53.515625 30.90625 
L 53.515625 0 
L 44.484375 0 
L 44.484375 32.71875 
Q 44.484375 40.625 41.703125 44.40625 
Q 38.921875 48.1875 33.109375 48.1875 
Q 26.21875 48.1875 22.15625 43.53125 
Q 18.109375 38.875 18.109375 30.90625 
L 18.109375 0 
L 9.078125 0 
L 9.078125 54.6875 
L 18.109375 54.6875 
L 18.109375 46.1875 
Q 21.1875 51.21875 25.484375 53.609375 
Q 29.78125 56 35.6875 56 
Q 41.65625 56 45.828125 52.96875 
Q 50 49.953125 52 44.1875 
z
" id="DejaVuSans-109"/>
      <path d="M 18.109375 8.203125 
L 18.109375 -20.796875 
L 9.078125 -20.796875 
L 9.078125 54.6875 
L 18.109375 54.6875 
L 18.109375 46.390625 
Q 20.953125 51.265625 25.265625 53.625 
Q 29.59375 56 35.59375 56 
Q 45.5625 56 51.78125 48.09375 
Q 58.015625 40.1875 58.015625 27.296875 
Q 58.015625 14.40625 51.78125 6.484375 
Q 45.5625 -1.421875 35.59375 -1.421875 
Q 29.59375 -1.421875 25.265625 0.953125 
Q 20.953125 3.328125 18.109375 8.203125 
z
M 48.6875 27.296875 
Q 48.6875 37.203125 44.609375 42.84375 
Q 40.53125 48.484375 33.40625 48.484375 
Q 26.265625 48.484375 22.1875 42.84375 
Q 18.109375 37.203125 18.109375 27.296875 
Q 18.109375 17.390625 22.1875 11.75 
Q 26.265625 6.109375 33.40625 6.109375 
Q 40.53125 6.109375 44.609375 11.75 
Q 48.6875 17.390625 48.6875 27.296875 
z
" id="DejaVuSans-112"/>
      <path d="M 41.109375 46.296875 
Q 39.59375 47.171875 37.8125 47.578125 
Q 36.03125 48 33.890625 48 
Q 26.265625 48 22.1875 43.046875 
Q 18.109375 38.09375 18.109375 28.8125 
L 18.109375 0 
L 9.078125 0 
L 9.078125 54.6875 
L 18.109375 54.6875 
L 18.109375 46.1875 
Q 20.953125 51.171875 25.484375 53.578125 
Q 30.03125 56 36.53125 56 
Q 37.453125 56 38.578125 55.875 
Q 39.703125 55.765625 41.0625 55.515625 
z
" id="DejaVuSans-114"/>
      <path d="M 34.28125 27.484375 
Q 23.390625 27.484375 19.1875 25 
Q 14.984375 22.515625 14.984375 16.5 
Q 14.984375 11.71875 18.140625 8.90625 
Q 21.296875 6.109375 26.703125 6.109375 
Q 34.1875 6.109375 38.703125 11.40625 
Q 43.21875 16.703125 43.21875 25.484375 
L 43.21875 27.484375 
z
M 52.203125 31.203125 
L 52.203125 0 
L 43.21875 0 
L 43.21875 8.296875 
Q 40.140625 3.328125 35.546875 0.953125 
Q 30.953125 -1.421875 24.3125 -1.421875 
Q 15.921875 -1.421875 10.953125 3.296875 
Q 6 8.015625 6 15.921875 
Q 6 25.140625 12.171875 29.828125 
Q 18.359375 34.515625 30.609375 34.515625 
L 43.21875 34.515625 
L 43.21875 35.40625 
Q 43.21875 41.609375 39.140625 45 
Q 35.0625 48.390625 27.6875 48.390625 
Q 23 48.390625 18.546875 47.265625 
Q 14.109375 46.140625 10.015625 43.890625 
L 10.015625 52.203125 
Q 14.9375 54.109375 19.578125 55.046875 
Q 24.21875 56 28.609375 56 
Q 40.484375 56 46.34375 49.84375 
Q 52.203125 43.703125 52.203125 31.203125 
z
" id="DejaVuSans-97"/>
      <path d="M 8.5 21.578125 
L 8.5 54.6875 
L 17.484375 54.6875 
L 17.484375 21.921875 
Q 17.484375 14.15625 20.5 10.265625 
Q 23.53125 6.390625 29.59375 6.390625 
Q 36.859375 6.390625 41.078125 11.03125 
Q 45.3125 15.671875 45.3125 23.6875 
L 45.3125 54.6875 
L 54.296875 54.6875 
L 54.296875 0 
L 45.3125 0 
L 45.3125 8.40625 
Q 42.046875 3.421875 37.71875 1 
Q 33.40625 -1.421875 27.6875 -1.421875 
Q 18.265625 -1.421875 13.375 4.4375 
Q 8.5 10.296875 8.5 21.578125 
z
M 31.109375 56 
z
" id="DejaVuSans-117"/>
     </defs>
     <g transform="translate(303.766562 88.310438)scale(0.1 -0.1)">
      <use xlink:href="#DejaVuSans-116"/>
      <use x="39.208984" xlink:href="#DejaVuSans-101"/>
      <use x="100.732422" xlink:href="#DejaVuSans-109"/>
      <use x="198.144531" xlink:href="#DejaVuSans-112"/>
      <use x="261.621094" xlink:href="#DejaVuSans-101"/>
      <use x="323.144531" xlink:href="#DejaVuSans-114"/>
      <use x="364.257812" xlink:href="#DejaVuSans-97"/>
      <use x="425.537109" xlink:href="#DejaVuSans-116"/>
      <use x="464.746094" xlink:href="#DejaVuSans-117"/>
      <use x="528.125" xlink:href="#DejaVuSans-114"/>
      <use x="569.207031" xlink:href="#DejaVuSans-101"/>
     </g>
    </g>
   </g>
  </g>
  <g id="axes_2">
   <g id="patch_8">
    <path d="M 52.2 199.427657 
L 375.84 199.427657 
L 375.84 141.375086 
L 52.2 141.375086 
z
" style="fill:#ffffff;"/>
   </g>
   <g id="matplotlib.axis_3">
    <g id="xtick_7">
     <g id="line2d_12">
      <g>
       <use style="stroke:#000000;stroke-width:0.8;" x="80.314182" xlink:href="#m0e9dd40288" y="199.427657"/>
      </g>
     </g>
    </g>
    <g id="xtick_8">
     <g id="line2d_13">
      <g>
       <use style="stroke:#000000;stroke-width:0.8;" x="132.619636" xlink:href="#m0e9dd40288" y="199.427657"/>
      </g>
     </g>
    </g>
    <g id="xtick_9">
     <g id="line2d_14">
      <g>
       <use style="stroke:#000000;stroke-width:0.8;" x="184.925091" xlink:href="#m0e9dd40288" y="199.427657"/>
      </g>
     </g>
    </g>
    <g id="xtick_10">
     <g id="line2d_15">
      <g>
       <use style="stroke:#000000;stroke-width:0.8;" x="237.230545" xlink:href="#m0e9dd40288" y="199.427657"/>
      </g>
     </g>
    </g>
    <g id="xtick_11">
     <g id="line2d_16">
      <g>
       <use style="stroke:#000000;stroke-width:0.8;" x="289.536" xlink:href="#m0e9dd40288" y="199.427657"/>
      </g>
     </g>
    </g>
    <g id="xtick_12">
     <g id="line2d_17">
      <g>
       <use style="stroke:#000000;stroke-width:0.8;" x="341.841455" xlink:href="#m0e9dd40288" y="199.427657"/>
      </g>
     </g>
    </g>
   </g>
   <g id="matplotlib.axis_4">
    <g id="ytick_3">
     <g id="line2d_18">
      <g>
       <use style="stroke:#000000;stroke-width:0.8;" x="52.2" xlink:href="#m5b638e67fa" y="189.592672"/>
      </g>
     </g>
     <g id="text_4">
      <!-- 20 -->
      <g transform="translate(34.600075 192.757421)scale(0.0833 -0.0833)">
       <use xlink:href="#DejaVuSans-50"/>
       <use x="63.623047" xlink:href="#DejaVuSans-48"/>
      </g>
     </g>
    </g>
    <g id="ytick_4">
     <g id="line2d_19">
      <g>
       <use style="stroke:#000000;stroke-width:0.8;" x="52.2" xlink:href="#m5b638e67fa" y="165.335709"/>
      </g>
     </g>
     <g id="text_5">
      <!-- 30 -->
      <defs>
       <path d="M 40.578125 39.3125 
Q 47.65625 37.796875 51.625 33 
Q 55.609375 28.21875 55.609375 21.1875 
Q 55.609375 10.40625 48.1875 4.484375 
Q 40.765625 -1.421875 27.09375 -1.421875 
Q 22.515625 -1.421875 17.65625 -0.515625 
Q 12.796875 0.390625 7.625 2.203125 
L 7.625 11.71875 
Q 11.71875 9.328125 16.59375 8.109375 
Q 21.484375 6.890625 26.8125 6.890625 
Q 36.078125 6.890625 40.9375 10.546875 
Q 45.796875 14.203125 45.796875 21.1875 
Q 45.796875 27.640625 41.28125 31.265625 
Q 36.765625 34.90625 28.71875 34.90625 
L 20.21875 34.90625 
L 20.21875 43.015625 
L 29.109375 43.015625 
Q 36.375 43.015625 40.234375 45.921875 
Q 44.09375 48.828125 44.09375 54.296875 
Q 44.09375 59.90625 40.109375 62.90625 
Q 36.140625 65.921875 28.71875 65.921875 
Q 24.65625 65.921875 20.015625 65.03125 
Q 15.375 64.15625 9.8125 62.3125 
L 9.8125 71.09375 
Q 15.4375 72.65625 20.34375 73.4375 
Q 25.25 74.21875 29.59375 74.21875 
Q 40.828125 74.21875 47.359375 69.109375 
Q 53.90625 64.015625 53.90625 55.328125 
Q 53.90625 49.265625 50.4375 45.09375 
Q 46.96875 40.921875 40.578125 39.3125 
z
" id="DejaVuSans-51"/>
      </defs>
      <g transform="translate(34.600075 168.500458)scale(0.0833 -0.0833)">
       <use xlink:href="#DejaVuSans-51"/>
       <use x="63.623047" xlink:href="#DejaVuSans-48"/>
      </g>
     </g>
    </g>
   </g>
   <g id="line2d_20">
    <path clip-path="url(#p0140df6668)" d="M 66.910909 171.953008 
L 69.090303 171.666776 
L 71.269697 172.370228 
L 75.628485 175.657047 
L 77.807879 175.766203 
L 79.987273 176.760738 
L 82.166667 176.384756 
L 84.346061 177.221621 
L 86.525455 177.89273 
L 88.704848 178.943865 
L 90.884242 180.399283 
L 93.063636 181.357433 
L 95.24303 182.582409 
L 97.422424 181.612131 
L 99.601818 179.186435 
L 101.781212 174.335042 
L 103.960606 174.213757 
L 106.14 172.531941 
L 108.319394 173.825646 
L 110.498788 174.795924 
L 112.678182 169.701962 
L 114.857576 172.309586 
L 117.03697 174.686768 
L 119.216364 179.259206 
L 121.395758 184.49871 
L 123.575152 190.320381 
L 125.754545 190.320381 
L 130.113333 186.681836 
L 132.292727 186.57268 
L 134.472121 187.676372 
L 138.830909 191.897083 
L 141.010303 192.527764 
L 143.189697 192.746077 
L 145.369091 192.63692 
L 147.548485 192.746077 
L 149.727879 192.285195 
L 151.907273 190.156646 
L 154.086667 187.233682 
L 156.266061 187.615729 
L 158.445455 188.767935 
L 160.624848 189.28946 
L 162.804242 191.727284 
L 164.983636 187.595515 
L 169.342424 185.475052 
L 171.521818 187.045691 
L 173.701212 190.102068 
L 175.880606 191.314916 
L 180.239394 192.285195 
L 182.418788 192.446908 
L 184.598182 192.746077 
L 186.777576 192.746077 
L 188.95697 192.406479 
L 193.315758 191.314916 
L 195.495152 191.072346 
L 199.853939 191.533229 
L 202.033333 190.80552 
L 204.212727 190.894462 
L 206.392121 192.406479 
L 208.571515 194.533006 
L 210.750909 195.414343 
L 212.930303 196.748476 
L 215.109697 196.788904 
L 217.289091 194.95346 
L 219.468485 192.285195 
L 221.647879 188.64665 
L 223.827273 185.468988 
L 226.006667 181.612131 
L 228.186061 178.082743 
L 230.365455 174.795924 
L 234.724242 168.893397 
L 236.903636 166.936669 
L 241.262424 164.122861 
L 243.441818 162.788728 
L 245.621212 162.667443 
L 247.800606 161.963991 
L 249.98 161.57588 
L 252.159394 161.697165 
L 254.338788 162.667443 
L 256.518182 162.50573 
L 258.697576 163.880291 
L 260.87697 163.961148 
L 263.056364 162.910013 
L 265.235758 166.548557 
L 267.415152 172.87356 
L 269.594545 174.498777 
L 271.773939 173.825646 
L 273.953333 172.491513 
L 276.132727 172.127659 
L 278.312121 171.15738 
L 280.491515 171.036095 
L 282.670909 171.666776 
L 287.029697 170.696498 
L 289.209091 172.370228 
L 291.388485 173.122194 
L 293.567879 172.127659 
L 295.747273 173.583076 
L 297.926667 173.461792 
L 300.106061 172.879624 
L 302.285455 173.340507 
L 304.464848 174.553355 
L 306.644242 174.092473 
L 308.823636 170.975453 
L 311.00303 162.370295 
L 313.182424 159.125927 
L 315.361818 157.155048 
L 317.541212 156.360633 
L 319.720606 158.240548 
L 321.9 150.902816 
L 324.079394 146.180794 
L 326.258788 144.013839 
L 328.438182 145.578413 
L 330.617576 149.689968 
L 334.976364 155.632924 
L 337.155758 156.845772 
L 339.335152 157.840308 
L 341.514545 158.30119 
L 343.693939 158.05862 
L 345.873333 158.30119 
L 350.232121 158.30119 
L 354.590909 157.840308 
L 358.949697 157.949464 
L 361.129091 156.306055 
L 361.129091 156.306055 
" style="fill:none;stroke:#009e73;stroke-linecap:square;stroke-width:1.5;"/>
   </g>
   <g id="patch_9">
    <path d="M 52.2 199.427657 
L 52.2 141.375086 
" style="fill:none;stroke:#000000;stroke-linecap:square;stroke-linejoin:miter;stroke-width:0.8;"/>
   </g>
   <g id="patch_10">
    <path d="M 375.84 199.427657 
L 375.84 141.375086 
" style="fill:none;stroke:#000000;stroke-linecap:square;stroke-linejoin:miter;stroke-width:0.8;"/>
   </g>
   <g id="patch_11">
    <path d="M 52.2 199.427657 
L 375.84 199.427657 
" style="fill:none;stroke:#000000;stroke-linecap:square;stroke-linejoin:miter;stroke-width:0.8;"/>
   </g>
   <g id="patch_12">
    <path d="M 52.2 141.375086 
L 375.84 141.375086 
" style="fill:none;stroke:#000000;stroke-linecap:square;stroke-linejoin:miter;stroke-width:0.8;"/>
   </g>
   <g id="legend_2">
    <g id="patch_13">
     <path d="M 59.2 164.053211 
L 135.359375 164.053211 
Q 137.359375 164.053211 137.359375 162.053211 
L 137.359375 148.375086 
Q 137.359375 146.375086 135.359375 146.375086 
L 59.2 146.375086 
Q 57.2 146.375086 57.2 148.375086 
L 57.2 162.053211 
Q 57.2 164.053211 59.2 164.053211 
z
" style="fill:#ffffff;opacity:0.8;stroke:#cccccc;stroke-linejoin:miter;"/>
    </g>
    <g id="line2d_21">
     <path d="M 61.2 154.473523 
L 81.2 154.473523 
" style="fill:none;stroke:#009e73;stroke-linecap:square;stroke-width:1.5;"/>
    </g>
    <g id="line2d_22"/>
    <g id="text_6">
     <!-- humidity -->
     <defs>
      <path d="M 54.890625 33.015625 
L 54.890625 0 
L 45.90625 0 
L 45.90625 32.71875 
Q 45.90625 40.484375 42.875 44.328125 
Q 39.84375 48.1875 33.796875 48.1875 
Q 26.515625 48.1875 22.3125 43.546875 
Q 18.109375 38.921875 18.109375 30.90625 
L 18.109375 0 
L 9.078125 0 
L 9.078125 75.984375 
L 18.109375 75.984375 
L 18.109375 46.1875 
Q 21.34375 51.125 25.703125 53.5625 
Q 30.078125 56 35.796875 56 
Q 45.21875 56 50.046875 50.171875 
Q 54.890625 44.34375 54.890625 33.015625 
z
" id="DejaVuSans-104"/>
      <path d="M 9.421875 54.6875 
L 18.40625 54.6875 
L 18.40625 0 
L 9.421875 0 
z
M 9.421875 75.984375 
L 18.40625 75.984375 
L 18.40625 64.59375 
L 9.421875 64.59375 
z
" id="DejaVuSans-105"/>
      <path d="M 45.40625 46.390625 
L 45.40625 75.984375 
L 54.390625 75.984375 
L 54.390625 0 
L 45.40625 0 
L 45.40625 8.203125 
Q 42.578125 3.328125 38.25 0.953125 
Q 33.9375 -1.421875 27.875 -1.421875 
Q 17.96875 -1.421875 11.734375 6.484375 
Q 5.515625 14.40625 5.515625 27.296875 
Q 5.515625 40.1875 11.734375 48.09375 
Q 17.96875 56 27.875 56 
Q 33.9375 56 38.25 53.625 
Q 42.578125 51.265625 45.40625 46.390625 
z
M 14.796875 27.296875 
Q 14.796875 17.390625 18.875 11.75 
Q 22.953125 6.109375 30.078125 6.109375 
Q 37.203125 6.109375 41.296875 11.75 
Q 45.40625 17.390625 45.40625 27.296875 
Q 45.40625 37.203125 41.296875 42.84375 
Q 37.203125 48.484375 30.078125 48.484375 
Q 22.953125 48.484375 18.875 42.84375 
Q 14.796875 37.203125 14.796875 27.296875 
z
" id="DejaVuSans-100"/>
      <path d="M 32.171875 -5.078125 
Q 28.375 -14.84375 24.75 -17.8125 
Q 21.140625 -20.796875 15.09375 -20.796875 
L 7.90625 -20.796875 
L 7.90625 -13.28125 
L 13.1875 -13.28125 
Q 16.890625 -13.28125 18.9375 -11.515625 
Q 21 -9.765625 23.484375 -3.21875 
L 25.09375 0.875 
L 2.984375 54.6875 
L 12.5 54.6875 
L 29.59375 11.921875 
L 46.6875 54.6875 
L 56.203125 54.6875 
z
" id="DejaVuSans-121"/>
     </defs>
     <g transform="translate(89.2 157.973523)scale(0.1 -0.1)">
      <use xlink:href="#DejaVuSans-104"/>
      <use x="63.378906" xlink:href="#DejaVuSans-117"/>
      <use x="126.757812" xlink:href="#DejaVuSans-109"/>
      <use x="224.169922" xlink:href="#DejaVuSans-105"/>
      <use x="251.953125" xlink:href="#DejaVuSans-100"/>
      <use x="315.429688" xlink:href="#DejaVuSans-105"/>
      <use x="343.212891" xlink:href="#DejaVuSans-116"/>
      <use x="382.421875" xlink:href="#DejaVuSans-121"/>
     </g>
    </g>
   </g>
  </g>
  <g id="axes_3">
   <g id="patch_14">
    <path d="M 52.2 269.090743 
L 375.84 269.090743 
L 375.84 211.038171 
L 52.2 211.038171 
z
" style="fill:#ffffff;"/>
   </g>
   <g id="matplotlib.axis_5">
    <g id="xtick_13">
     <g id="line2d_23">
      <g>
       <use style="stroke:#000000;stroke-width:0.8;" x="80.314182" xlink:href="#m0e9dd40288" y="269.090743"/>
      </g>
     </g>
    </g>
    <g id="xtick_14">
     <g id="line2d_24">
      <g>
       <use style="stroke:#000000;stroke-width:0.8;" x="132.619636" xlink:href="#m0e9dd40288" y="269.090743"/>
      </g>
     </g>
    </g>
    <g id="xtick_15">
     <g id="line2d_25">
      <g>
       <use style="stroke:#000000;stroke-width:0.8;" x="184.925091" xlink:href="#m0e9dd40288" y="269.090743"/>
      </g>
     </g>
    </g>
    <g id="xtick_16">
     <g id="line2d_26">
      <g>
       <use style="stroke:#000000;stroke-width:0.8;" x="237.230545" xlink:href="#m0e9dd40288" y="269.090743"/>
      </g>
     </g>
    </g>
    <g id="xtick_17">
     <g id="line2d_27">
      <g>
       <use style="stroke:#000000;stroke-width:0.8;" x="289.536" xlink:href="#m0e9dd40288" y="269.090743"/>
      </g>
     </g>
    </g>
    <g id="xtick_18">
     <g id="line2d_28">
      <g>
       <use style="stroke:#000000;stroke-width:0.8;" x="341.841455" xlink:href="#m0e9dd40288" y="269.090743"/>
      </g>
     </g>
    </g>
   </g>
   <g id="matplotlib.axis_6">
    <g id="ytick_5">
     <g id="line2d_29">
      <g>
       <use style="stroke:#000000;stroke-width:0.8;" x="52.2" xlink:href="#m5b638e67fa" y="266.45199"/>
      </g>
     </g>
     <g id="text_7">
      <!-- 0 -->
      <g transform="translate(39.900037 269.616739)scale(0.0833 -0.0833)">
       <use xlink:href="#DejaVuSans-48"/>
      </g>
     </g>
    </g>
    <g id="ytick_6">
     <g id="line2d_30">
      <g>
       <use style="stroke:#000000;stroke-width:0.8;" x="52.2" xlink:href="#m5b638e67fa" y="245.526111"/>
      </g>
     </g>
     <g id="text_8">
      <!-- 250 -->
      <defs>
       <path d="M 10.796875 72.90625 
L 49.515625 72.90625 
L 49.515625 64.59375 
L 19.828125 64.59375 
L 19.828125 46.734375 
Q 21.96875 47.46875 24.109375 47.828125 
Q 26.265625 48.1875 28.421875 48.1875 
Q 40.625 48.1875 47.75 41.5 
Q 54.890625 34.8125 54.890625 23.390625 
Q 54.890625 11.625 47.5625 5.09375 
Q 40.234375 -1.421875 26.90625 -1.421875 
Q 22.3125 -1.421875 17.546875 -0.640625 
Q 12.796875 0.140625 7.71875 1.703125 
L 7.71875 11.625 
Q 12.109375 9.234375 16.796875 8.0625 
Q 21.484375 6.890625 26.703125 6.890625 
Q 35.15625 6.890625 40.078125 11.328125 
Q 45.015625 15.765625 45.015625 23.390625 
Q 45.015625 31 40.078125 35.4375 
Q 35.15625 39.890625 26.703125 39.890625 
Q 22.75 39.890625 18.8125 39.015625 
Q 14.890625 38.140625 10.796875 36.28125 
z
" id="DejaVuSans-53"/>
      </defs>
      <g transform="translate(29.300112 248.690861)scale(0.0833 -0.0833)">
       <use xlink:href="#DejaVuSans-50"/>
       <use x="63.623047" xlink:href="#DejaVuSans-53"/>
       <use x="127.246094" xlink:href="#DejaVuSans-48"/>
      </g>
     </g>
    </g>
    <g id="ytick_7">
     <g id="line2d_31">
      <g>
       <use style="stroke:#000000;stroke-width:0.8;" x="52.2" xlink:href="#m5b638e67fa" y="224.600233"/>
      </g>
     </g>
     <g id="text_9">
      <!-- 500 -->
      <g transform="translate(29.300112 227.764982)scale(0.0833 -0.0833)">
       <use xlink:href="#DejaVuSans-53"/>
       <use x="63.623047" xlink:href="#DejaVuSans-48"/>
       <use x="127.246094" xlink:href="#DejaVuSans-48"/>
      </g>
     </g>
    </g>
   </g>
   <g id="line2d_32">
    <path clip-path="url(#p3261119ecb)" d="M 66.910909 230.794293 
L 69.090303 266.45199 
L 95.24303 266.45199 
L 97.422424 233.305398 
L 99.601818 229.078371 
L 101.781212 228.450595 
L 103.960606 228.764483 
L 106.14 229.28763 
L 108.319394 213.676925 
L 110.498788 229.28763 
L 112.678182 225.520972 
L 114.857576 226.776524 
L 117.03697 229.789851 
L 119.216364 230.208368 
L 121.395758 266.45199 
L 147.548485 266.45199 
L 149.727879 232.049846 
L 151.907273 230.208368 
L 154.086667 229.28763 
L 156.266061 226.148748 
L 158.445455 227.488004 
L 160.624848 226.169674 
L 162.804242 219.619874 
L 164.983636 224.711838 
L 169.342424 229.28763 
L 171.521818 230.208368 
L 173.701212 266.45199 
L 202.033333 266.45199 
L 204.212727 262.908541 
L 206.392121 248.706845 
L 208.571515 238.383412 
L 210.750909 237.63008 
L 212.930303 242.596488 
L 215.109697 253.003625 
L 217.289091 258.646637 
L 219.468485 263.243355 
L 221.647879 265.28014 
L 223.827273 266.45199 
L 254.338788 266.45199 
L 256.518182 265.28014 
L 258.697576 265.28014 
L 260.87697 263.857181 
L 263.056364 264.903475 
L 265.235758 246.084135 
L 267.415152 250.108879 
L 269.594545 260.61367 
L 271.773939 264.861623 
L 273.953333 264.443105 
L 276.132727 266.45199 
L 306.644242 266.45199 
L 308.823636 233.221695 
L 311.00303 229.413185 
L 313.182424 228.450595 
L 315.361818 227.61356 
L 317.541212 223.428384 
L 319.720606 226.734673 
L 321.9 227.383375 
L 324.079394 229.28763 
L 326.258788 230.208368 
L 328.438182 230.208368 
L 330.617576 266.45199 
L 358.949697 266.45199 
L 361.129091 232.342808 
L 361.129091 232.342808 
" style="fill:none;stroke:#d55e00;stroke-linecap:square;stroke-width:1.5;"/>
   </g>
   <g id="patch_15">
    <path d="M 52.2 269.090743 
L 52.2 211.038171 
" style="fill:none;stroke:#000000;stroke-linecap:square;stroke-linejoin:miter;stroke-width:0.8;"/>
   </g>
   <g id="patch_16">
    <path d="M 375.84 269.090743 
L 375.84 211.038171 
" style="fill:none;stroke:#000000;stroke-linecap:square;stroke-linejoin:miter;stroke-width:0.8;"/>
   </g>
   <g id="patch_17">
    <path d="M 52.2 269.090743 
L 375.84 269.090743 
" style="fill:none;stroke:#000000;stroke-linecap:square;stroke-linejoin:miter;stroke-width:0.8;"/>
   </g>
   <g id="patch_18">
    <path d="M 52.2 211.038171 
L 375.84 211.038171 
" style="fill:none;stroke:#000000;stroke-linecap:square;stroke-linejoin:miter;stroke-width:0.8;"/>
   </g>
   <g id="legend_3">
    <g id="patch_19">
     <path d="M 186.93875 233.716296 
L 241.10125 233.716296 
Q 243.10125 233.716296 243.10125 231.716296 
L 243.10125 218.038171 
Q 243.10125 216.038171 241.10125 216.038171 
L 186.93875 216.038171 
Q 184.93875 216.038171 184.93875 218.038171 
L 184.93875 231.716296 
Q 184.93875 233.716296 186.93875 233.716296 
z
" style="fill:#ffffff;opacity:0.8;stroke:#cccccc;stroke-linejoin:miter;"/>
    </g>
    <g id="line2d_33">
     <path d="M 188.93875 224.136609 
L 208.93875 224.136609 
" style="fill:none;stroke:#d55e00;stroke-linecap:square;stroke-width:1.5;"/>
    </g>
    <g id="line2d_34"/>
    <g id="text_10">
     <!-- light -->
     <defs>
      <path d="M 9.421875 75.984375 
L 18.40625 75.984375 
L 18.40625 0 
L 9.421875 0 
z
" id="DejaVuSans-108"/>
      <path d="M 45.40625 27.984375 
Q 45.40625 37.75 41.375 43.109375 
Q 37.359375 48.484375 30.078125 48.484375 
Q 22.859375 48.484375 18.828125 43.109375 
Q 14.796875 37.75 14.796875 27.984375 
Q 14.796875 18.265625 18.828125 12.890625 
Q 22.859375 7.515625 30.078125 7.515625 
Q 37.359375 7.515625 41.375 12.890625 
Q 45.40625 18.265625 45.40625 27.984375 
z
M 54.390625 6.78125 
Q 54.390625 -7.171875 48.1875 -13.984375 
Q 42 -20.796875 29.203125 -20.796875 
Q 24.46875 -20.796875 20.265625 -20.09375 
Q 16.0625 -19.390625 12.109375 -17.921875 
L 12.109375 -9.1875 
Q 16.0625 -11.328125 19.921875 -12.34375 
Q 23.78125 -13.375 27.78125 -13.375 
Q 36.625 -13.375 41.015625 -8.765625 
Q 45.40625 -4.15625 45.40625 5.171875 
L 45.40625 9.625 
Q 42.625 4.78125 38.28125 2.390625 
Q 33.9375 0 27.875 0 
Q 17.828125 0 11.671875 7.65625 
Q 5.515625 15.328125 5.515625 27.984375 
Q 5.515625 40.671875 11.671875 48.328125 
Q 17.828125 56 27.875 56 
Q 33.9375 56 38.28125 53.609375 
Q 42.625 51.21875 45.40625 46.390625 
L 45.40625 54.6875 
L 54.390625 54.6875 
z
" id="DejaVuSans-103"/>
     </defs>
     <g transform="translate(216.93875 227.636609)scale(0.1 -0.1)">
      <use xlink:href="#DejaVuSans-108"/>
      <use x="27.783203" xlink:href="#DejaVuSans-105"/>
      <use x="55.566406" xlink:href="#DejaVuSans-103"/>
      <use x="119.042969" xlink:href="#DejaVuSans-104"/>
      <use x="182.421875" xlink:href="#DejaVuSans-116"/>
     </g>
    </g>
   </g>
  </g>
  <g id="axes_4">
   <g id="patch_20">
    <path d="M 52.2 338.753829 
L 375.84 338.753829 
L 375.84 280.701257 
L 52.2 280.701257 
z
" style="fill:#ffffff;"/>
   </g>
   <g id="matplotlib.axis_7">
    <g id="xtick_19">
     <g id="line2d_35">
      <g>
       <use style="stroke:#000000;stroke-width:0.8;" x="80.314182" xlink:href="#m0e9dd40288" y="338.753829"/>
      </g>
     </g>
    </g>
    <g id="xtick_20">
     <g id="line2d_36">
      <g>
       <use style="stroke:#000000;stroke-width:0.8;" x="132.619636" xlink:href="#m0e9dd40288" y="338.753829"/>
      </g>
     </g>
    </g>
    <g id="xtick_21">
     <g id="line2d_37">
      <g>
       <use style="stroke:#000000;stroke-width:0.8;" x="184.925091" xlink:href="#m0e9dd40288" y="338.753829"/>
      </g>
     </g>
    </g>
    <g id="xtick_22">
     <g id="line2d_38">
      <g>
       <use style="stroke:#000000;stroke-width:0.8;" x="237.230545" xlink:href="#m0e9dd40288" y="338.753829"/>
      </g>
     </g>
    </g>
    <g id="xtick_23">
     <g id="line2d_39">
      <g>
       <use style="stroke:#000000;stroke-width:0.8;" x="289.536" xlink:href="#m0e9dd40288" y="338.753829"/>
      </g>
     </g>
    </g>
    <g id="xtick_24">
     <g id="line2d_40">
      <g>
       <use style="stroke:#000000;stroke-width:0.8;" x="341.841455" xlink:href="#m0e9dd40288" y="338.753829"/>
      </g>
     </g>
    </g>
   </g>
   <g id="matplotlib.axis_8">
    <g id="ytick_8">
     <g id="line2d_41">
      <g>
       <use style="stroke:#000000;stroke-width:0.8;" x="52.2" xlink:href="#m5b638e67fa" y="316.626081"/>
      </g>
     </g>
     <g id="text_11">
      <!-- 1000 -->
      <defs>
       <path d="M 12.40625 8.296875 
L 28.515625 8.296875 
L 28.515625 63.921875 
L 10.984375 60.40625 
L 10.984375 69.390625 
L 28.421875 72.90625 
L 38.28125 72.90625 
L 38.28125 8.296875 
L 54.390625 8.296875 
L 54.390625 0 
L 12.40625 0 
z
" id="DejaVuSans-49"/>
      </defs>
      <g transform="translate(24.00015 319.79083)scale(0.0833 -0.0833)">
       <use xlink:href="#DejaVuSans-49"/>
       <use x="63.623047" xlink:href="#DejaVuSans-48"/>
       <use x="127.246094" xlink:href="#DejaVuSans-48"/>
       <use x="190.869141" xlink:href="#DejaVuSans-48"/>
      </g>
     </g>
    </g>
    <g id="ytick_9">
     <g id="line2d_42">
      <g>
       <use style="stroke:#000000;stroke-width:0.8;" x="52.2" xlink:href="#m5b638e67fa" y="283.34001"/>
      </g>
     </g>
     <g id="text_12">
      <!-- 2000 -->
      <g transform="translate(24.00015 286.50476)scale(0.0833 -0.0833)">
       <use xlink:href="#DejaVuSans-50"/>
       <use x="63.623047" xlink:href="#DejaVuSans-48"/>
       <use x="127.246094" xlink:href="#DejaVuSans-48"/>
       <use x="190.869141" xlink:href="#DejaVuSans-48"/>
      </g>
     </g>
    </g>
   </g>
   <g id="line2d_43">
    <path clip-path="url(#pbcf3413924)" d="M 66.910909 325.904573 
L 69.090303 329.058428 
L 71.269697 331.554884 
L 73.449091 332.977863 
L 75.628485 333.693514 
L 77.807879 334.284341 
L 79.987273 334.434129 
L 82.166667 334.966706 
L 84.346061 335.074886 
L 86.525455 335.332853 
L 90.884242 335.033278 
L 93.063636 335.049921 
L 95.24303 334.783633 
L 97.422424 332.769825 
L 99.601818 324.672989 
L 101.781212 315.583117 
L 103.960606 315.610856 
L 106.14 312.221224 
L 108.319394 315.436104 
L 110.498788 321.935209 
L 112.678182 314.861919 
L 114.857576 314.254448 
L 117.03697 314.362628 
L 119.216364 320.387407 
L 121.395758 328.609066 
L 123.575152 333.102686 
L 125.754545 334.484058 
L 127.933939 334.55063 
L 130.113333 334.744799 
L 132.292727 335.332853 
L 134.472121 335.166422 
L 136.651515 335.399425 
L 138.830909 335.432711 
L 141.010303 335.615784 
L 143.189697 335.632427 
L 145.369091 335.366139 
L 147.548485 335.465997 
L 149.727879 334.600559 
L 154.086667 322.975399 
L 156.266061 321.594027 
L 158.445455 323.632799 
L 160.624848 324.697953 
L 162.804242 328.867033 
L 164.983636 321.752136 
L 167.16303 320.071189 
L 169.342424 317.890952 
L 171.521818 323.250009 
L 173.701212 330.090297 
L 175.880606 333.801693 
L 178.06 334.966706 
L 180.239394 335.149779 
L 182.418788 335.449354 
L 184.598182 335.232994 
L 186.777576 335.532569 
L 191.136364 335.183065 
L 193.315758 335.31621 
L 195.495152 335.299567 
L 197.674545 335.133136 
L 199.853939 335.133136 
L 202.033333 334.733703 
L 206.392121 334.600559 
L 208.571515 334.445224 
L 210.750909 334.93342 
L 212.930303 334.975027 
L 215.109697 335.232994 
L 221.647879 335.232994 
L 223.827273 335.599141 
L 230.365455 335.083207 
L 232.544848 335.332853 
L 234.724242 335.221899 
L 236.903636 335.432711 
L 239.08303 335.199708 
L 243.441818 335.416068 
L 245.621212 335.349496 
L 247.800606 335.399425 
L 249.98 335.282924 
L 254.338788 335.582498 
L 256.518182 335.366139 
L 258.697576 335.59082 
L 260.87697 335.488188 
L 265.235758 335.599141 
L 267.415152 336.03186 
L 269.594545 335.848787 
L 271.773939 335.898716 
L 273.953333 336.115075 
L 276.132727 335.682356 
L 278.312121 335.632427 
L 280.491515 335.399425 
L 282.670909 334.833562 
L 284.850303 335.133136 
L 287.029697 334.816919 
L 289.209091 334.999992 
L 293.567879 334.367557 
L 295.747273 334.251055 
L 297.926667 334.400843 
L 300.106061 334.417486 
L 302.285455 334.600559 
L 306.644242 334.256603 
L 308.823636 333.385618 
L 311.00303 317.691235 
L 313.182424 306.140969 
L 315.361818 301.381061 
L 317.541212 306.118778 
L 319.720606 312.415393 
L 321.9 299.550327 
L 324.079394 288.443875 
L 326.258788 283.34001 
L 328.438182 287.875238 
L 330.617576 303.927445 
L 332.79697 315.305734 
L 334.976364 323.516298 
L 337.155758 327.926702 
L 339.335152 331.37181 
L 341.514545 333.23583 
L 343.693939 334.018053 
L 345.873333 334.500701 
L 348.052727 334.783633 
L 354.590909 335.232994 
L 358.949697 334.966706 
L 361.129091 333.418904 
L 361.129091 333.418904 
" style="fill:none;stroke:#cc79a7;stroke-linecap:square;stroke-width:1.5;"/>
   </g>
   <g id="patch_21">
    <path d="M 52.2 338.753829 
L 52.2 280.701257 
" style="fill:none;stroke:#000000;stroke-linecap:square;stroke-linejoin:miter;stroke-width:0.8;"/>
   </g>
   <g id="patch_22">
    <path d="M 375.84 338.753829 
L 375.84 280.701257 
" style="fill:none;stroke:#000000;stroke-linecap:square;stroke-linejoin:miter;stroke-width:0.8;"/>
   </g>
   <g id="patch_23">
    <path d="M 52.2 338.753829 
L 375.84 338.753829 
" style="fill:none;stroke:#000000;stroke-linecap:square;stroke-linejoin:miter;stroke-width:0.8;"/>
   </g>
   <g id="patch_24">
    <path d="M 52.2 280.701257 
L 375.84 280.701257 
" style="fill:none;stroke:#000000;stroke-linecap:square;stroke-linejoin:miter;stroke-width:0.8;"/>
   </g>
   <g id="legend_4">
    <g id="patch_25">
     <path d="M 59.2 303.379382 
L 109.179688 303.379382 
Q 111.179688 303.379382 111.179688 301.379382 
L 111.179688 287.701257 
Q 111.179688 285.701257 109.179688 285.701257 
L 59.2 285.701257 
Q 57.2 285.701257 57.2 287.701257 
L 57.2 301.379382 
Q 57.2 303.379382 59.2 303.379382 
z
" style="fill:#ffffff;opacity:0.8;stroke:#cccccc;stroke-linejoin:miter;"/>
    </g>
    <g id="line2d_44">
     <path d="M 61.2 293.799695 
L 81.2 293.799695 
" style="fill:none;stroke:#cc79a7;stroke-linecap:square;stroke-width:1.5;"/>
    </g>
    <g id="line2d_45"/>
    <g id="text_13">
     <!-- co2 -->
     <defs>
      <path d="M 48.78125 52.59375 
L 48.78125 44.1875 
Q 44.96875 46.296875 41.140625 47.34375 
Q 37.3125 48.390625 33.40625 48.390625 
Q 24.65625 48.390625 19.8125 42.84375 
Q 14.984375 37.3125 14.984375 27.296875 
Q 14.984375 17.28125 19.8125 11.734375 
Q 24.65625 6.203125 33.40625 6.203125 
Q 37.3125 6.203125 41.140625 7.25 
Q 44.96875 8.296875 48.78125 10.40625 
L 48.78125 2.09375 
Q 45.015625 0.34375 40.984375 -0.53125 
Q 36.96875 -1.421875 32.421875 -1.421875 
Q 20.0625 -1.421875 12.78125 6.34375 
Q 5.515625 14.109375 5.515625 27.296875 
Q 5.515625 40.671875 12.859375 48.328125 
Q 20.21875 56 33.015625 56 
Q 37.15625 56 41.109375 55.140625 
Q 45.0625 54.296875 48.78125 52.59375 
z
" id="DejaVuSans-99"/>
      <path d="M 30.609375 48.390625 
Q 23.390625 48.390625 19.1875 42.75 
Q 14.984375 37.109375 14.984375 27.296875 
Q 14.984375 17.484375 19.15625 11.84375 
Q 23.34375 6.203125 30.609375 6.203125 
Q 37.796875 6.203125 41.984375 11.859375 
Q 46.1875 17.53125 46.1875 27.296875 
Q 46.1875 37.015625 41.984375 42.703125 
Q 37.796875 48.390625 30.609375 48.390625 
z
M 30.609375 56 
Q 42.328125 56 49.015625 48.375 
Q 55.71875 40.765625 55.71875 27.296875 
Q 55.71875 13.875 49.015625 6.21875 
Q 42.328125 -1.421875 30.609375 -1.421875 
Q 18.84375 -1.421875 12.171875 6.21875 
Q 5.515625 13.875 5.515625 27.296875 
Q 5.515625 40.765625 12.171875 48.375 
Q 18.84375 56 30.609375 56 
z
" id="DejaVuSans-111"/>
     </defs>
     <g transform="translate(89.2 297.299695)scale(0.1 -0.1)">
      <use xlink:href="#DejaVuSans-99"/>
      <use x="54.980469" xlink:href="#DejaVuSans-111"/>
      <use x="116.162109" xlink:href="#DejaVuSans-50"/>
     </g>
    </g>
   </g>
  </g>
  <g id="axes_5">
   <g id="patch_26">
    <path d="M 52.2 408.416914 
L 375.84 408.416914 
L 375.84 350.364343 
L 52.2 350.364343 
z
" style="fill:#ffffff;"/>
   </g>
   <g id="matplotlib.axis_9">
    <g id="xtick_25">
     <g id="line2d_46">
      <g>
       <use style="stroke:#000000;stroke-width:0.8;" x="80.314182" xlink:href="#m0e9dd40288" y="408.416914"/>
      </g>
     </g>
    </g>
    <g id="xtick_26">
     <g id="line2d_47">
      <g>
       <use style="stroke:#000000;stroke-width:0.8;" x="132.619636" xlink:href="#m0e9dd40288" y="408.416914"/>
      </g>
     </g>
    </g>
    <g id="xtick_27">
     <g id="line2d_48">
      <g>
       <use style="stroke:#000000;stroke-width:0.8;" x="184.925091" xlink:href="#m0e9dd40288" y="408.416914"/>
      </g>
     </g>
    </g>
    <g id="xtick_28">
     <g id="line2d_49">
      <g>
       <use style="stroke:#000000;stroke-width:0.8;" x="237.230545" xlink:href="#m0e9dd40288" y="408.416914"/>
      </g>
     </g>
    </g>
    <g id="xtick_29">
     <g id="line2d_50">
      <g>
       <use style="stroke:#000000;stroke-width:0.8;" x="289.536" xlink:href="#m0e9dd40288" y="408.416914"/>
      </g>
     </g>
    </g>
    <g id="xtick_30">
     <g id="line2d_51">
      <g>
       <use style="stroke:#000000;stroke-width:0.8;" x="341.841455" xlink:href="#m0e9dd40288" y="408.416914"/>
      </g>
     </g>
    </g>
   </g>
   <g id="matplotlib.axis_10">
    <g id="ytick_10">
     <g id="line2d_52">
      <g>
       <use style="stroke:#000000;stroke-width:0.8;" x="52.2" xlink:href="#m5b638e67fa" y="387.121736"/>
      </g>
     </g>
     <g id="text_14">
      <!-- 0.004 -->
      <defs>
       <path d="M 10.6875 12.40625 
L 21 12.40625 
L 21 0 
L 10.6875 0 
z
" id="DejaVuSans-46"/>
       <path d="M 37.796875 64.3125 
L 12.890625 25.390625 
L 37.796875 25.390625 
z
M 35.203125 72.90625 
L 47.609375 72.90625 
L 47.609375 25.390625 
L 58.015625 25.390625 
L 58.015625 17.1875 
L 47.609375 17.1875 
L 47.609375 0 
L 37.796875 0 
L 37.796875 17.1875 
L 4.890625 17.1875 
L 4.890625 26.703125 
z
" id="DejaVuSans-52"/>
      </defs>
      <g transform="translate(21.352772 390.286485)scale(0.0833 -0.0833)">
       <use xlink:href="#DejaVuSans-48"/>
       <use x="63.623047" xlink:href="#DejaVuSans-46"/>
       <use x="95.410156" xlink:href="#DejaVuSans-48"/>
       <use x="159.033203" xlink:href="#DejaVuSans-48"/>
       <use x="222.65625" xlink:href="#DejaVuSans-52"/>
      </g>
     </g>
    </g>
    <g id="ytick_11">
     <g id="line2d_53">
      <g>
       <use style="stroke:#000000;stroke-width:0.8;" x="52.2" xlink:href="#m5b638e67fa" y="358.702081"/>
      </g>
     </g>
     <g id="text_15">
      <!-- 0.006 -->
      <defs>
       <path d="M 33.015625 40.375 
Q 26.375 40.375 22.484375 35.828125 
Q 18.609375 31.296875 18.609375 23.390625 
Q 18.609375 15.53125 22.484375 10.953125 
Q 26.375 6.390625 33.015625 6.390625 
Q 39.65625 6.390625 43.53125 10.953125 
Q 47.40625 15.53125 47.40625 23.390625 
Q 47.40625 31.296875 43.53125 35.828125 
Q 39.65625 40.375 33.015625 40.375 
z
M 52.59375 71.296875 
L 52.59375 62.3125 
Q 48.875 64.0625 45.09375 64.984375 
Q 41.3125 65.921875 37.59375 65.921875 
Q 27.828125 65.921875 22.671875 59.328125 
Q 17.53125 52.734375 16.796875 39.40625 
Q 19.671875 43.65625 24.015625 45.921875 
Q 28.375 48.1875 33.59375 48.1875 
Q 44.578125 48.1875 50.953125 41.515625 
Q 57.328125 34.859375 57.328125 23.390625 
Q 57.328125 12.15625 50.6875 5.359375 
Q 44.046875 -1.421875 33.015625 -1.421875 
Q 20.359375 -1.421875 13.671875 8.265625 
Q 6.984375 17.96875 6.984375 36.375 
Q 6.984375 53.65625 15.1875 63.9375 
Q 23.390625 74.21875 37.203125 74.21875 
Q 40.921875 74.21875 44.703125 73.484375 
Q 48.484375 72.75 52.59375 71.296875 
z
" id="DejaVuSans-54"/>
      </defs>
      <g transform="translate(21.352772 361.86683)scale(0.0833 -0.0833)">
       <use xlink:href="#DejaVuSans-48"/>
       <use x="63.623047" xlink:href="#DejaVuSans-46"/>
       <use x="95.410156" xlink:href="#DejaVuSans-48"/>
       <use x="159.033203" xlink:href="#DejaVuSans-48"/>
       <use x="222.65625" xlink:href="#DejaVuSans-54"/>
      </g>
     </g>
    </g>
   </g>
   <g id="line2d_54">
    <path clip-path="url(#pebdac53073)" d="M 66.910909 375.853511 
L 69.090303 378.978789 
L 75.628485 386.175992 
L 77.807879 386.826616 
L 79.987273 388.055414 
L 82.166667 388.22961 
L 84.346061 388.73453 
L 86.525455 389.65559 
L 88.704848 390.719153 
L 93.063636 393.406574 
L 95.24303 394.930823 
L 97.422424 393.478803 
L 99.601818 389.646374 
L 101.781212 382.517877 
L 103.960606 382.588866 
L 106.14 380.379219 
L 108.319394 380.09693 
L 110.498788 382.250083 
L 112.678182 376.837151 
L 114.857576 378.978397 
L 117.03697 381.953251 
L 119.216364 387.176696 
L 121.395758 394.87433 
L 123.575152 400.740857 
L 125.754545 401.006894 
L 127.933939 400.19393 
L 130.113333 399.035753 
L 132.292727 399.738479 
L 134.472121 400.569094 
L 136.651515 401.912011 
L 138.830909 403.832996 
L 141.010303 404.517904 
L 145.369091 404.85621 
L 147.548485 404.950501 
L 149.727879 404.893578 
L 151.907273 401.217096 
L 154.086667 397.320008 
L 156.266061 396.562054 
L 158.445455 397.79149 
L 160.624848 398.141436 
L 162.804242 400.440838 
L 164.983636 395.265074 
L 167.16303 394.368983 
L 169.342424 394.335765 
L 171.521818 396.02402 
L 173.701212 401.102016 
L 175.880606 403.18631 
L 178.06 404.334401 
L 180.239394 404.772018 
L 182.418788 405.393464 
L 184.598182 405.778161 
L 188.95697 405.622548 
L 191.136364 405.193334 
L 193.315758 404.946554 
L 195.495152 404.853251 
L 199.853939 405.129381 
L 202.033333 404.740606 
L 204.212727 404.895983 
L 206.392121 403.168918 
L 208.571515 402.070619 
L 210.750909 401.233513 
L 212.930303 401.709839 
L 215.109697 402.691155 
L 219.468485 401.778898 
L 221.647879 400.312251 
L 223.827273 398.377856 
L 226.006667 395.893823 
L 228.186061 393.190723 
L 230.365455 390.75987 
L 234.724242 386.453607 
L 236.903636 385.001515 
L 243.441818 382.548842 
L 247.800606 382.259715 
L 249.98 381.74824 
L 252.159394 382.390639 
L 254.338788 383.177862 
L 256.518182 383.046668 
L 258.697576 383.340605 
L 260.87697 384.002005 
L 263.056364 383.75381 
L 265.235758 382.862075 
L 267.415152 386.390895 
L 269.594545 388.98969 
L 271.773939 389.939543 
L 273.953333 390.138806 
L 276.132727 390.209868 
L 278.312121 389.755166 
L 280.491515 389.48597 
L 282.670909 389.832101 
L 284.850303 389.037653 
L 287.029697 388.657191 
L 289.209091 390.038712 
L 291.388485 391.024941 
L 293.567879 390.377919 
L 295.747273 391.402607 
L 302.285455 391.203839 
L 304.464848 392.359388 
L 306.644242 391.459829 
L 308.823636 388.628486 
L 311.00303 377.774803 
L 313.182424 372.740827 
L 315.361818 369.165203 
L 317.541212 367.909818 
L 319.720606 370.835055 
L 321.9 361.064136 
L 324.079394 355.86362 
L 326.258788 353.003096 
L 328.438182 354.530848 
L 330.617576 362.708272 
L 332.79697 368.364034 
L 334.976364 371.838944 
L 337.155758 372.908089 
L 341.514545 374.666597 
L 345.873333 375.096717 
L 348.052727 375.096717 
L 350.232121 375.481805 
L 352.411515 375.556942 
L 354.590909 375.511389 
L 356.770303 374.695903 
L 358.949697 374.790836 
L 361.129091 372.432351 
L 361.129091 372.432351 
" style="fill:none;stroke:#f0e442;stroke-linecap:square;stroke-width:1.5;"/>
   </g>
   <g id="patch_27">
    <path d="M 52.2 408.416914 
L 52.2 350.364343 
" style="fill:none;stroke:#000000;stroke-linecap:square;stroke-linejoin:miter;stroke-width:0.8;"/>
   </g>
   <g id="patch_28">
    <path d="M 375.84 408.416914 
L 375.84 350.364343 
" style="fill:none;stroke:#000000;stroke-linecap:square;stroke-linejoin:miter;stroke-width:0.8;"/>
   </g>
   <g id="patch_29">
    <path d="M 52.2 408.416914 
L 375.84 408.416914 
" style="fill:none;stroke:#000000;stroke-linecap:square;stroke-linejoin:miter;stroke-width:0.8;"/>
   </g>
   <g id="patch_30">
    <path d="M 52.2 350.364343 
L 375.84 350.364343 
" style="fill:none;stroke:#000000;stroke-linecap:square;stroke-linejoin:miter;stroke-width:0.8;"/>
   </g>
   <g id="legend_5">
    <g id="patch_31">
     <path d="M 59.2 373.042468 
L 158.415625 373.042468 
Q 160.415625 373.042468 160.415625 371.042468 
L 160.415625 357.364343 
Q 160.415625 355.364343 158.415625 355.364343 
L 59.2 355.364343 
Q 57.2 355.364343 57.2 357.364343 
L 57.2 371.042468 
Q 57.2 373.042468 59.2 373.042468 
z
" style="fill:#ffffff;opacity:0.8;stroke:#cccccc;stroke-linejoin:miter;"/>
    </g>
    <g id="line2d_55">
     <path d="M 61.2 363.46278 
L 81.2 363.46278 
" style="fill:none;stroke:#f0e442;stroke-linecap:square;stroke-width:1.5;"/>
    </g>
    <g id="line2d_56"/>
    <g id="text_16">
     <!-- humidityratio -->
     <g transform="translate(89.2 366.96278)scale(0.1 -0.1)">
      <use xlink:href="#DejaVuSans-104"/>
      <use x="63.378906" xlink:href="#DejaVuSans-117"/>
      <use x="126.757812" xlink:href="#DejaVuSans-109"/>
      <use x="224.169922" xlink:href="#DejaVuSans-105"/>
      <use x="251.953125" xlink:href="#DejaVuSans-100"/>
      <use x="315.429688" xlink:href="#DejaVuSans-105"/>
      <use x="343.212891" xlink:href="#DejaVuSans-116"/>
      <use x="382.421875" xlink:href="#DejaVuSans-121"/>
      <use x="441.601562" xlink:href="#DejaVuSans-114"/>
      <use x="482.714844" xlink:href="#DejaVuSans-97"/>
      <use x="543.994141" xlink:href="#DejaVuSans-116"/>
      <use x="583.203125" xlink:href="#DejaVuSans-105"/>
      <use x="610.986328" xlink:href="#DejaVuSans-111"/>
     </g>
    </g>
   </g>
  </g>
  <g id="axes_6">
   <g id="patch_32">
    <path d="M 52.2 478.08 
L 375.84 478.08 
L 375.84 420.027429 
L 52.2 420.027429 
z
" style="fill:#ffffff;"/>
   </g>
   <g id="matplotlib.axis_11">
    <g id="xtick_31">
     <g id="line2d_57">
      <g>
       <use style="stroke:#000000;stroke-width:0.8;" x="80.314182" xlink:href="#m0e9dd40288" y="478.08"/>
      </g>
     </g>
     <g id="text_17">
      <!-- 2015-02-05 -->
      <defs>
       <path d="M 4.890625 31.390625 
L 31.203125 31.390625 
L 31.203125 23.390625 
L 4.890625 23.390625 
z
" id="DejaVuSans-45"/>
      </defs>
      <g transform="translate(37.523429 514.766664)rotate(-30)scale(0.0833 -0.0833)">
       <use xlink:href="#DejaVuSans-50"/>
       <use x="63.623047" xlink:href="#DejaVuSans-48"/>
       <use x="127.246094" xlink:href="#DejaVuSans-49"/>
       <use x="190.869141" xlink:href="#DejaVuSans-53"/>
       <use x="254.492188" xlink:href="#DejaVuSans-45"/>
       <use x="290.576172" xlink:href="#DejaVuSans-48"/>
       <use x="354.199219" xlink:href="#DejaVuSans-50"/>
       <use x="417.822266" xlink:href="#DejaVuSans-45"/>
       <use x="453.90625" xlink:href="#DejaVuSans-48"/>
       <use x="517.529297" xlink:href="#DejaVuSans-53"/>
      </g>
     </g>
    </g>
    <g id="xtick_32">
     <g id="line2d_58">
      <g>
       <use style="stroke:#000000;stroke-width:0.8;" x="132.619636" xlink:href="#m0e9dd40288" y="478.08"/>
      </g>
     </g>
     <g id="text_18">
      <!-- 2015-02-06 -->
      <g transform="translate(89.828883 514.766664)rotate(-30)scale(0.0833 -0.0833)">
       <use xlink:href="#DejaVuSans-50"/>
       <use x="63.623047" xlink:href="#DejaVuSans-48"/>
       <use x="127.246094" xlink:href="#DejaVuSans-49"/>
       <use x="190.869141" xlink:href="#DejaVuSans-53"/>
       <use x="254.492188" xlink:href="#DejaVuSans-45"/>
       <use x="290.576172" xlink:href="#DejaVuSans-48"/>
       <use x="354.199219" xlink:href="#DejaVuSans-50"/>
       <use x="417.822266" xlink:href="#DejaVuSans-45"/>
       <use x="453.90625" xlink:href="#DejaVuSans-48"/>
       <use x="517.529297" xlink:href="#DejaVuSans-54"/>
      </g>
     </g>
    </g>
    <g id="xtick_33">
     <g id="line2d_59">
      <g>
       <use style="stroke:#000000;stroke-width:0.8;" x="184.925091" xlink:href="#m0e9dd40288" y="478.08"/>
      </g>
     </g>
     <g id="text_19">
      <!-- 2015-02-07 -->
      <defs>
       <path d="M 8.203125 72.90625 
L 55.078125 72.90625 
L 55.078125 68.703125 
L 28.609375 0 
L 18.3125 0 
L 43.21875 64.59375 
L 8.203125 64.59375 
z
" id="DejaVuSans-55"/>
      </defs>
      <g transform="translate(142.134338 514.766664)rotate(-30)scale(0.0833 -0.0833)">
       <use xlink:href="#DejaVuSans-50"/>
       <use x="63.623047" xlink:href="#DejaVuSans-48"/>
       <use x="127.246094" xlink:href="#DejaVuSans-49"/>
       <use x="190.869141" xlink:href="#DejaVuSans-53"/>
       <use x="254.492188" xlink:href="#DejaVuSans-45"/>
       <use x="290.576172" xlink:href="#DejaVuSans-48"/>
       <use x="354.199219" xlink:href="#DejaVuSans-50"/>
       <use x="417.822266" xlink:href="#DejaVuSans-45"/>
       <use x="453.90625" xlink:href="#DejaVuSans-48"/>
       <use x="517.529297" xlink:href="#DejaVuSans-55"/>
      </g>
     </g>
    </g>
    <g id="xtick_34">
     <g id="line2d_60">
      <g>
       <use style="stroke:#000000;stroke-width:0.8;" x="237.230545" xlink:href="#m0e9dd40288" y="478.08"/>
      </g>
     </g>
     <g id="text_20">
      <!-- 2015-02-08 -->
      <defs>
       <path d="M 31.78125 34.625 
Q 24.75 34.625 20.71875 30.859375 
Q 16.703125 27.09375 16.703125 20.515625 
Q 16.703125 13.921875 20.71875 10.15625 
Q 24.75 6.390625 31.78125 6.390625 
Q 38.8125 6.390625 42.859375 10.171875 
Q 46.921875 13.96875 46.921875 20.515625 
Q 46.921875 27.09375 42.890625 30.859375 
Q 38.875 34.625 31.78125 34.625 
z
M 21.921875 38.8125 
Q 15.578125 40.375 12.03125 44.71875 
Q 8.5 49.078125 8.5 55.328125 
Q 8.5 64.0625 14.71875 69.140625 
Q 20.953125 74.21875 31.78125 74.21875 
Q 42.671875 74.21875 48.875 69.140625 
Q 55.078125 64.0625 55.078125 55.328125 
Q 55.078125 49.078125 51.53125 44.71875 
Q 48 40.375 41.703125 38.8125 
Q 48.828125 37.15625 52.796875 32.3125 
Q 56.78125 27.484375 56.78125 20.515625 
Q 56.78125 9.90625 50.3125 4.234375 
Q 43.84375 -1.421875 31.78125 -1.421875 
Q 19.734375 -1.421875 13.25 4.234375 
Q 6.78125 9.90625 6.78125 20.515625 
Q 6.78125 27.484375 10.78125 32.3125 
Q 14.796875 37.15625 21.921875 38.8125 
z
M 18.3125 54.390625 
Q 18.3125 48.734375 21.84375 45.5625 
Q 25.390625 42.390625 31.78125 42.390625 
Q 38.140625 42.390625 41.71875 45.5625 
Q 45.3125 48.734375 45.3125 54.390625 
Q 45.3125 60.0625 41.71875 63.234375 
Q 38.140625 66.40625 31.78125 66.40625 
Q 25.390625 66.40625 21.84375 63.234375 
Q 18.3125 60.0625 18.3125 54.390625 
z
" id="DejaVuSans-56"/>
      </defs>
      <g transform="translate(194.439792 514.766664)rotate(-30)scale(0.0833 -0.0833)">
       <use xlink:href="#DejaVuSans-50"/>
       <use x="63.623047" xlink:href="#DejaVuSans-48"/>
       <use x="127.246094" xlink:href="#DejaVuSans-49"/>
       <use x="190.869141" xlink:href="#DejaVuSans-53"/>
       <use x="254.492188" xlink:href="#DejaVuSans-45"/>
       <use x="290.576172" xlink:href="#DejaVuSans-48"/>
       <use x="354.199219" xlink:href="#DejaVuSans-50"/>
       <use x="417.822266" xlink:href="#DejaVuSans-45"/>
       <use x="453.90625" xlink:href="#DejaVuSans-48"/>
       <use x="517.529297" xlink:href="#DejaVuSans-56"/>
      </g>
     </g>
    </g>
    <g id="xtick_35">
     <g id="line2d_61">
      <g>
       <use style="stroke:#000000;stroke-width:0.8;" x="289.536" xlink:href="#m0e9dd40288" y="478.08"/>
      </g>
     </g>
     <g id="text_21">
      <!-- 2015-02-09 -->
      <defs>
       <path d="M 10.984375 1.515625 
L 10.984375 10.5 
Q 14.703125 8.734375 18.5 7.8125 
Q 22.3125 6.890625 25.984375 6.890625 
Q 35.75 6.890625 40.890625 13.453125 
Q 46.046875 20.015625 46.78125 33.40625 
Q 43.953125 29.203125 39.59375 26.953125 
Q 35.25 24.703125 29.984375 24.703125 
Q 19.046875 24.703125 12.671875 31.3125 
Q 6.296875 37.9375 6.296875 49.421875 
Q 6.296875 60.640625 12.9375 67.421875 
Q 19.578125 74.21875 30.609375 74.21875 
Q 43.265625 74.21875 49.921875 64.515625 
Q 56.59375 54.828125 56.59375 36.375 
Q 56.59375 19.140625 48.40625 8.859375 
Q 40.234375 -1.421875 26.421875 -1.421875 
Q 22.703125 -1.421875 18.890625 -0.6875 
Q 15.09375 0.046875 10.984375 1.515625 
z
M 30.609375 32.421875 
Q 37.25 32.421875 41.125 36.953125 
Q 45.015625 41.5 45.015625 49.421875 
Q 45.015625 57.28125 41.125 61.84375 
Q 37.25 66.40625 30.609375 66.40625 
Q 23.96875 66.40625 20.09375 61.84375 
Q 16.21875 57.28125 16.21875 49.421875 
Q 16.21875 41.5 20.09375 36.953125 
Q 23.96875 32.421875 30.609375 32.421875 
z
" id="DejaVuSans-57"/>
      </defs>
      <g transform="translate(246.745247 514.766664)rotate(-30)scale(0.0833 -0.0833)">
       <use xlink:href="#DejaVuSans-50"/>
       <use x="63.623047" xlink:href="#DejaVuSans-48"/>
       <use x="127.246094" xlink:href="#DejaVuSans-49"/>
       <use x="190.869141" xlink:href="#DejaVuSans-53"/>
       <use x="254.492188" xlink:href="#DejaVuSans-45"/>
       <use x="290.576172" xlink:href="#DejaVuSans-48"/>
       <use x="354.199219" xlink:href="#DejaVuSans-50"/>
       <use x="417.822266" xlink:href="#DejaVuSans-45"/>
       <use x="453.90625" xlink:href="#DejaVuSans-48"/>
       <use x="517.529297" xlink:href="#DejaVuSans-57"/>
      </g>
     </g>
    </g>
    <g id="xtick_36">
     <g id="line2d_62">
      <g>
       <use style="stroke:#000000;stroke-width:0.8;" x="341.841455" xlink:href="#m0e9dd40288" y="478.08"/>
      </g>
     </g>
     <g id="text_22">
      <!-- 2015-02-10 -->
      <g transform="translate(299.050702 514.766664)rotate(-30)scale(0.0833 -0.0833)">
       <use xlink:href="#DejaVuSans-50"/>
       <use x="63.623047" xlink:href="#DejaVuSans-48"/>
       <use x="127.246094" xlink:href="#DejaVuSans-49"/>
       <use x="190.869141" xlink:href="#DejaVuSans-53"/>
       <use x="254.492188" xlink:href="#DejaVuSans-45"/>
       <use x="290.576172" xlink:href="#DejaVuSans-48"/>
       <use x="354.199219" xlink:href="#DejaVuSans-50"/>
       <use x="417.822266" xlink:href="#DejaVuSans-45"/>
       <use x="453.90625" xlink:href="#DejaVuSans-49"/>
       <use x="517.529297" xlink:href="#DejaVuSans-48"/>
      </g>
     </g>
    </g>
    <g id="text_23">
     <!-- date -->
     <g transform="translate(202.745 527.865387)scale(0.1 -0.1)">
      <use xlink:href="#DejaVuSans-100"/>
      <use x="63.476562" xlink:href="#DejaVuSans-97"/>
      <use x="124.755859" xlink:href="#DejaVuSans-116"/>
      <use x="163.964844" xlink:href="#DejaVuSans-101"/>
     </g>
    </g>
   </g>
   <g id="matplotlib.axis_12">
    <g id="ytick_12">
     <g id="line2d_63">
      <g>
       <use style="stroke:#000000;stroke-width:0.8;" x="52.2" xlink:href="#m5b638e67fa" y="475.441247"/>
      </g>
     </g>
     <g id="text_24">
      <!-- 0.0 -->
      <g transform="translate(31.952697 478.605996)scale(0.0833 -0.0833)">
       <use xlink:href="#DejaVuSans-48"/>
       <use x="63.623047" xlink:href="#DejaVuSans-46"/>
       <use x="95.410156" xlink:href="#DejaVuSans-48"/>
      </g>
     </g>
    </g>
    <g id="ytick_13">
     <g id="line2d_64">
      <g>
       <use style="stroke:#000000;stroke-width:0.8;" x="52.2" xlink:href="#m5b638e67fa" y="449.053714"/>
      </g>
     </g>
     <g id="text_25">
      <!-- 0.5 -->
      <g transform="translate(31.952697 452.218464)scale(0.0833 -0.0833)">
       <use xlink:href="#DejaVuSans-48"/>
       <use x="63.623047" xlink:href="#DejaVuSans-46"/>
       <use x="95.410156" xlink:href="#DejaVuSans-53"/>
      </g>
     </g>
    </g>
    <g id="ytick_14">
     <g id="line2d_65">
      <g>
       <use style="stroke:#000000;stroke-width:0.8;" x="52.2" xlink:href="#m5b638e67fa" y="422.666182"/>
      </g>
     </g>
     <g id="text_26">
      <!-- 1.0 -->
      <g transform="translate(31.952697 425.830931)scale(0.0833 -0.0833)">
       <use xlink:href="#DejaVuSans-49"/>
       <use x="63.623047" xlink:href="#DejaVuSans-46"/>
       <use x="95.410156" xlink:href="#DejaVuSans-48"/>
      </g>
     </g>
    </g>
   </g>
   <g id="line2d_66">
    <path clip-path="url(#pd5c737aeef)" d="M 66.910909 422.666182 
L 69.090303 475.441247 
L 95.24303 475.441247 
L 97.422424 422.666182 
L 108.319394 422.666182 
L 110.498788 475.441247 
L 112.678182 422.666182 
L 119.216364 422.666182 
L 121.395758 475.441247 
L 147.548485 475.441247 
L 149.727879 422.666182 
L 171.521818 422.666182 
L 173.701212 475.441247 
L 306.644242 475.441247 
L 308.823636 422.666182 
L 328.438182 422.666182 
L 330.617576 475.441247 
L 358.949697 475.441247 
L 361.129091 422.666182 
L 361.129091 422.666182 
" style="fill:none;stroke:#56b4e9;stroke-linecap:square;stroke-width:1.5;"/>
   </g>
   <g id="patch_33">
    <path d="M 52.2 478.08 
L 52.2 420.027429 
" style="fill:none;stroke:#000000;stroke-linecap:square;stroke-linejoin:miter;stroke-width:0.8;"/>
   </g>
   <g id="patch_34">
    <path d="M 375.84 478.08 
L 375.84 420.027429 
" style="fill:none;stroke:#000000;stroke-linecap:square;stroke-linejoin:miter;stroke-width:0.8;"/>
   </g>
   <g id="patch_35">
    <path d="M 52.2 478.08 
L 375.84 478.08 
" style="fill:none;stroke:#000000;stroke-linecap:square;stroke-linejoin:miter;stroke-width:0.8;"/>
   </g>
   <g id="patch_36">
    <path d="M 52.2 420.027429 
L 375.84 420.027429 
" style="fill:none;stroke:#000000;stroke-linecap:square;stroke-linejoin:miter;stroke-width:0.8;"/>
   </g>
   <g id="legend_6">
    <g id="patch_37">
     <path d="M 283.155625 442.705554 
L 368.84 442.705554 
Q 370.84 442.705554 370.84 440.705554 
L 370.84 427.027429 
Q 370.84 425.027429 368.84 425.027429 
L 283.155625 425.027429 
Q 281.155625 425.027429 281.155625 427.027429 
L 281.155625 440.705554 
Q 281.155625 442.705554 283.155625 442.705554 
z
" style="fill:#ffffff;opacity:0.8;stroke:#cccccc;stroke-linejoin:miter;"/>
    </g>
    <g id="line2d_67">
     <path d="M 285.155625 433.125866 
L 305.155625 433.125866 
" style="fill:none;stroke:#56b4e9;stroke-linecap:square;stroke-width:1.5;"/>
    </g>
    <g id="line2d_68"/>
    <g id="text_27">
     <!-- occupancy -->
     <defs>
      <path d="M 54.890625 33.015625 
L 54.890625 0 
L 45.90625 0 
L 45.90625 32.71875 
Q 45.90625 40.484375 42.875 44.328125 
Q 39.84375 48.1875 33.796875 48.1875 
Q 26.515625 48.1875 22.3125 43.546875 
Q 18.109375 38.921875 18.109375 30.90625 
L 18.109375 0 
L 9.078125 0 
L 9.078125 54.6875 
L 18.109375 54.6875 
L 18.109375 46.1875 
Q 21.34375 51.125 25.703125 53.5625 
Q 30.078125 56 35.796875 56 
Q 45.21875 56 50.046875 50.171875 
Q 54.890625 44.34375 54.890625 33.015625 
z
" id="DejaVuSans-110"/>
     </defs>
     <g transform="translate(313.155625 436.625866)scale(0.1 -0.1)">
      <use xlink:href="#DejaVuSans-111"/>
      <use x="61.181641" xlink:href="#DejaVuSans-99"/>
      <use x="116.162109" xlink:href="#DejaVuSans-99"/>
      <use x="171.142578" xlink:href="#DejaVuSans-117"/>
      <use x="234.521484" xlink:href="#DejaVuSans-112"/>
      <use x="297.998047" xlink:href="#DejaVuSans-97"/>
      <use x="359.277344" xlink:href="#DejaVuSans-110"/>
      <use x="422.65625" xlink:href="#DejaVuSans-99"/>
      <use x="477.636719" xlink:href="#DejaVuSans-121"/>
     </g>
    </g>
   </g>
  </g>
  <g id="text_28">
   <!-- Train features during observation (1h resample) -->
   <defs>
    <path d="M -0.296875 72.90625 
L 61.375 72.90625 
L 61.375 64.59375 
L 35.5 64.59375 
L 35.5 0 
L 25.59375 0 
L 25.59375 64.59375 
L -0.296875 64.59375 
z
" id="DejaVuSans-84"/>
    <path id="DejaVuSans-32"/>
    <path d="M 37.109375 75.984375 
L 37.109375 68.5 
L 28.515625 68.5 
Q 23.6875 68.5 21.796875 66.546875 
Q 19.921875 64.59375 19.921875 59.515625 
L 19.921875 54.6875 
L 34.71875 54.6875 
L 34.71875 47.703125 
L 19.921875 47.703125 
L 19.921875 0 
L 10.890625 0 
L 10.890625 47.703125 
L 2.296875 47.703125 
L 2.296875 54.6875 
L 10.890625 54.6875 
L 10.890625 58.5 
Q 10.890625 67.625 15.140625 71.796875 
Q 19.390625 75.984375 28.609375 75.984375 
z
" id="DejaVuSans-102"/>
    <path d="M 44.28125 53.078125 
L 44.28125 44.578125 
Q 40.484375 46.53125 36.375 47.5 
Q 32.28125 48.484375 27.875 48.484375 
Q 21.1875 48.484375 17.84375 46.4375 
Q 14.5 44.390625 14.5 40.28125 
Q 14.5 37.15625 16.890625 35.375 
Q 19.28125 33.59375 26.515625 31.984375 
L 29.59375 31.296875 
Q 39.15625 29.25 43.1875 25.515625 
Q 47.21875 21.78125 47.21875 15.09375 
Q 47.21875 7.46875 41.1875 3.015625 
Q 35.15625 -1.421875 24.609375 -1.421875 
Q 20.21875 -1.421875 15.453125 -0.5625 
Q 10.6875 0.296875 5.421875 2 
L 5.421875 11.28125 
Q 10.40625 8.6875 15.234375 7.390625 
Q 20.0625 6.109375 24.8125 6.109375 
Q 31.15625 6.109375 34.5625 8.28125 
Q 37.984375 10.453125 37.984375 14.40625 
Q 37.984375 18.0625 35.515625 20.015625 
Q 33.0625 21.96875 24.703125 23.78125 
L 21.578125 24.515625 
Q 13.234375 26.265625 9.515625 29.90625 
Q 5.8125 33.546875 5.8125 39.890625 
Q 5.8125 47.609375 11.28125 51.796875 
Q 16.75 56 26.8125 56 
Q 31.78125 56 36.171875 55.265625 
Q 40.578125 54.546875 44.28125 53.078125 
z
" id="DejaVuSans-115"/>
    <path d="M 48.6875 27.296875 
Q 48.6875 37.203125 44.609375 42.84375 
Q 40.53125 48.484375 33.40625 48.484375 
Q 26.265625 48.484375 22.1875 42.84375 
Q 18.109375 37.203125 18.109375 27.296875 
Q 18.109375 17.390625 22.1875 11.75 
Q 26.265625 6.109375 33.40625 6.109375 
Q 40.53125 6.109375 44.609375 11.75 
Q 48.6875 17.390625 48.6875 27.296875 
z
M 18.109375 46.390625 
Q 20.953125 51.265625 25.265625 53.625 
Q 29.59375 56 35.59375 56 
Q 45.5625 56 51.78125 48.09375 
Q 58.015625 40.1875 58.015625 27.296875 
Q 58.015625 14.40625 51.78125 6.484375 
Q 45.5625 -1.421875 35.59375 -1.421875 
Q 29.59375 -1.421875 25.265625 0.953125 
Q 20.953125 3.328125 18.109375 8.203125 
L 18.109375 0 
L 9.078125 0 
L 9.078125 75.984375 
L 18.109375 75.984375 
z
" id="DejaVuSans-98"/>
    <path d="M 2.984375 54.6875 
L 12.5 54.6875 
L 29.59375 8.796875 
L 46.6875 54.6875 
L 56.203125 54.6875 
L 35.6875 0 
L 23.484375 0 
z
" id="DejaVuSans-118"/>
    <path d="M 31 75.875 
Q 24.46875 64.65625 21.28125 53.65625 
Q 18.109375 42.671875 18.109375 31.390625 
Q 18.109375 20.125 21.3125 9.0625 
Q 24.515625 -2 31 -13.1875 
L 23.1875 -13.1875 
Q 15.875 -1.703125 12.234375 9.375 
Q 8.59375 20.453125 8.59375 31.390625 
Q 8.59375 42.28125 12.203125 53.3125 
Q 15.828125 64.359375 23.1875 75.875 
z
" id="DejaVuSans-40"/>
    <path d="M 8.015625 75.875 
L 15.828125 75.875 
Q 23.140625 64.359375 26.78125 53.3125 
Q 30.421875 42.28125 30.421875 31.390625 
Q 30.421875 20.453125 26.78125 9.375 
Q 23.140625 -1.703125 15.828125 -13.1875 
L 8.015625 -13.1875 
Q 14.5 -2 17.703125 9.0625 
Q 20.90625 20.125 20.90625 31.390625 
Q 20.90625 42.671875 17.703125 53.65625 
Q 14.5 64.65625 8.015625 75.875 
z
" id="DejaVuSans-41"/>
   </defs>
   <g transform="translate(63.968437 21.070125)scale(0.12 -0.12)">
    <use xlink:href="#DejaVuSans-84"/>
    <use x="60.865234" xlink:href="#DejaVuSans-114"/>
    <use x="101.978516" xlink:href="#DejaVuSans-97"/>
    <use x="163.257812" xlink:href="#DejaVuSans-105"/>
    <use x="191.041016" xlink:href="#DejaVuSans-110"/>
    <use x="254.419922" xlink:href="#DejaVuSans-32"/>
    <use x="286.207031" xlink:href="#DejaVuSans-102"/>
    <use x="321.412109" xlink:href="#DejaVuSans-101"/>
    <use x="382.935547" xlink:href="#DejaVuSans-97"/>
    <use x="444.214844" xlink:href="#DejaVuSans-116"/>
    <use x="483.423828" xlink:href="#DejaVuSans-117"/>
    <use x="546.802734" xlink:href="#DejaVuSans-114"/>
    <use x="587.884766" xlink:href="#DejaVuSans-101"/>
    <use x="649.408203" xlink:href="#DejaVuSans-115"/>
    <use x="701.507812" xlink:href="#DejaVuSans-32"/>
    <use x="733.294922" xlink:href="#DejaVuSans-100"/>
    <use x="796.771484" xlink:href="#DejaVuSans-117"/>
    <use x="860.150391" xlink:href="#DejaVuSans-114"/>
    <use x="901.263672" xlink:href="#DejaVuSans-105"/>
    <use x="929.046875" xlink:href="#DejaVuSans-110"/>
    <use x="992.425781" xlink:href="#DejaVuSans-103"/>
    <use x="1055.902344" xlink:href="#DejaVuSans-32"/>
    <use x="1087.689453" xlink:href="#DejaVuSans-111"/>
    <use x="1148.871094" xlink:href="#DejaVuSans-98"/>
    <use x="1212.347656" xlink:href="#DejaVuSans-115"/>
    <use x="1264.447266" xlink:href="#DejaVuSans-101"/>
    <use x="1325.970703" xlink:href="#DejaVuSans-114"/>
    <use x="1367.083984" xlink:href="#DejaVuSans-118"/>
    <use x="1426.263672" xlink:href="#DejaVuSans-97"/>
    <use x="1487.542969" xlink:href="#DejaVuSans-116"/>
    <use x="1526.751953" xlink:href="#DejaVuSans-105"/>
    <use x="1554.535156" xlink:href="#DejaVuSans-111"/>
    <use x="1615.716797" xlink:href="#DejaVuSans-110"/>
    <use x="1679.095703" xlink:href="#DejaVuSans-32"/>
    <use x="1710.882812" xlink:href="#DejaVuSans-40"/>
    <use x="1749.896484" xlink:href="#DejaVuSans-49"/>
    <use x="1813.519531" xlink:href="#DejaVuSans-104"/>
    <use x="1876.898438" xlink:href="#DejaVuSans-32"/>
    <use x="1908.685547" xlink:href="#DejaVuSans-114"/>
    <use x="1949.767578" xlink:href="#DejaVuSans-101"/>
    <use x="2011.291016" xlink:href="#DejaVuSans-115"/>
    <use x="2063.390625" xlink:href="#DejaVuSans-97"/>
    <use x="2124.669922" xlink:href="#DejaVuSans-109"/>
    <use x="2222.082031" xlink:href="#DejaVuSans-112"/>
    <use x="2285.558594" xlink:href="#DejaVuSans-108"/>
    <use x="2313.341797" xlink:href="#DejaVuSans-101"/>
    <use x="2374.865234" xlink:href="#DejaVuSans-41"/>
   </g>
  </g>
 </g>
 <defs>
  <clipPath id="p039fa5c28d">
   <rect height="58.052571" width="323.64" x="52.2" y="71.712"/>
  </clipPath>
  <clipPath id="p0140df6668">
   <rect height="58.052571" width="323.64" x="52.2" y="141.375086"/>
  </clipPath>
  <clipPath id="p3261119ecb">
   <rect height="58.052571" width="323.64" x="52.2" y="211.038171"/>
  </clipPath>
  <clipPath id="pbcf3413924">
   <rect height="58.052571" width="323.64" x="52.2" y="280.701257"/>
  </clipPath>
  <clipPath id="pebdac53073">
   <rect height="58.052571" width="323.64" x="52.2" y="350.364343"/>
  </clipPath>
  <clipPath id="pd5c737aeef">
   <rect height="58.052571" width="323.64" x="52.2" y="420.027429"/>
  </clipPath>
 </defs>
</svg>
