<?xml version="1.0" encoding="utf-8" standalone="no"?>
<!DOCTYPE svg PUBLIC "-//W3C//DTD SVG 1.1//EN"
  "http://www.w3.org/Graphics/SVG/1.1/DTD/svg11.dtd">
<!-- Created with matplotlib (https://matplotlib.org/) -->
<svg height="864pt" version="1.1" viewBox="0 0 1152 864" width="1152pt" xmlns="http://www.w3.org/2000/svg" xmlns:xlink="http://www.w3.org/1999/xlink">
 <defs>
  <style type="text/css">
*{stroke-linecap:butt;stroke-linejoin:round;}
  </style>
 </defs>
 <g id="figure_1">
  <g id="patch_1">
   <path d="M 0 864 
L 1152 864 
L 1152 0 
L 0 0 
z
" style="fill:#ffffff;"/>
  </g>
  <g id="axes_1">
   <g id="patch_2">
    <path d="M 144 187.611429 
L 1036.8 187.611429 
L 1036.8 103.68 
L 144 103.68 
z
" style="fill:#eaeaf2;"/>
   </g>
   <g id="matplotlib.axis_1">
    <g id="xtick_1">
     <g id="line2d_1">
      <path clip-path="url(#p48e0b0d317)" d="M 221.556364 187.611429 
L 221.556364 103.68 
" style="fill:none;stroke:#ffffff;stroke-linecap:round;"/>
     </g>
     <g id="line2d_2"/>
    </g>
    <g id="xtick_2">
     <g id="line2d_3">
      <path clip-path="url(#p48e0b0d317)" d="M 365.847273 187.611429 
L 365.847273 103.68 
" style="fill:none;stroke:#ffffff;stroke-linecap:round;"/>
     </g>
     <g id="line2d_4"/>
    </g>
    <g id="xtick_3">
     <g id="line2d_5">
      <path clip-path="url(#p48e0b0d317)" d="M 510.138182 187.611429 
L 510.138182 103.68 
" style="fill:none;stroke:#ffffff;stroke-linecap:round;"/>
     </g>
     <g id="line2d_6"/>
    </g>
    <g id="xtick_4">
     <g id="line2d_7">
      <path clip-path="url(#p48e0b0d317)" d="M 654.429091 187.611429 
L 654.429091 103.68 
" style="fill:none;stroke:#ffffff;stroke-linecap:round;"/>
     </g>
     <g id="line2d_8"/>
    </g>
    <g id="xtick_5">
     <g id="line2d_9">
      <path clip-path="url(#p48e0b0d317)" d="M 798.72 187.611429 
L 798.72 103.68 
" style="fill:none;stroke:#ffffff;stroke-linecap:round;"/>
     </g>
     <g id="line2d_10"/>
    </g>
    <g id="xtick_6">
     <g id="line2d_11">
      <path clip-path="url(#p48e0b0d317)" d="M 943.010909 187.611429 
L 943.010909 103.68 
" style="fill:none;stroke:#ffffff;stroke-linecap:round;"/>
     </g>
     <g id="line2d_12"/>
    </g>
   </g>
   <g id="matplotlib.axis_2">
    <g id="ytick_1">
     <g id="line2d_13">
      <path clip-path="url(#p48e0b0d317)" d="M 144 166.965195 
L 1036.8 166.965195 
" style="fill:none;stroke:#ffffff;stroke-linecap:round;"/>
     </g>
     <g id="line2d_14"/>
     <g id="text_1">
      <!-- 20 -->
      <defs>
       <path d="M 50.34375 8.453125 
L 50.34375 0 
L 3.03125 0 
Q 2.9375 3.171875 4.046875 6.109375 
Q 5.859375 10.9375 9.828125 15.625 
Q 13.8125 20.3125 21.34375 26.46875 
Q 33.015625 36.03125 37.109375 41.625 
Q 41.21875 47.21875 41.21875 52.203125 
Q 41.21875 57.421875 37.46875 61 
Q 33.734375 64.59375 27.734375 64.59375 
Q 21.390625 64.59375 17.578125 60.78125 
Q 13.765625 56.984375 13.71875 50.25 
L 4.6875 51.171875 
Q 5.609375 61.28125 11.65625 66.578125 
Q 17.71875 71.875 27.9375 71.875 
Q 38.234375 71.875 44.234375 66.15625 
Q 50.25 60.453125 50.25 52 
Q 50.25 47.703125 48.484375 43.546875 
Q 46.734375 39.40625 42.65625 34.8125 
Q 38.578125 30.21875 29.109375 22.21875 
Q 21.1875 15.578125 18.9375 13.203125 
Q 16.703125 10.84375 15.234375 8.453125 
z
" id="ArialMT-50"/>
       <path d="M 4.15625 35.296875 
Q 4.15625 48 6.765625 55.734375 
Q 9.375 63.484375 14.515625 67.671875 
Q 19.671875 71.875 27.484375 71.875 
Q 33.25 71.875 37.59375 69.546875 
Q 41.9375 67.234375 44.765625 62.859375 
Q 47.609375 58.5 49.21875 52.21875 
Q 50.828125 45.953125 50.828125 35.296875 
Q 50.828125 22.703125 48.234375 14.96875 
Q 45.65625 7.234375 40.5 3 
Q 35.359375 -1.21875 27.484375 -1.21875 
Q 17.140625 -1.21875 11.234375 6.203125 
Q 4.15625 15.140625 4.15625 35.296875 
z
M 13.1875 35.296875 
Q 13.1875 17.671875 17.3125 11.828125 
Q 21.4375 6 27.484375 6 
Q 33.546875 6 37.671875 11.859375 
Q 41.796875 17.71875 41.796875 35.296875 
Q 41.796875 52.984375 37.671875 58.78125 
Q 33.546875 64.59375 27.390625 64.59375 
Q 21.34375 64.59375 17.71875 59.46875 
Q 13.1875 52.9375 13.1875 35.296875 
z
" id="ArialMT-48"/>
      </defs>
      <g style="fill:#262626;" transform="translate(123.65375 171.259882)scale(0.12 -0.12)">
       <use xlink:href="#ArialMT-50"/>
       <use x="55.615234" xlink:href="#ArialMT-48"/>
      </g>
     </g>
    </g>
    <g id="ytick_2">
     <g id="line2d_15">
      <path clip-path="url(#p48e0b0d317)" d="M 144 129.562597 
L 1036.8 129.562597 
" style="fill:none;stroke:#ffffff;stroke-linecap:round;"/>
     </g>
     <g id="line2d_16"/>
     <g id="text_2">
      <!-- 22 -->
      <g style="fill:#262626;" transform="translate(123.65375 133.857285)scale(0.12 -0.12)">
       <use xlink:href="#ArialMT-50"/>
       <use x="55.615234" xlink:href="#ArialMT-50"/>
      </g>
     </g>
    </g>
   </g>
   <g id="line2d_17">
    <path clip-path="url(#p48e0b0d317)" d="M 184.581818 107.495065 
L 190.593939 123.204156 
L 196.606061 131.61974 
L 202.618182 137.043117 
L 214.642424 142.840519 
L 220.654545 144.523636 
L 226.666667 147.328831 
L 232.678788 145.926234 
L 238.690909 147.640519 
L 244.70303 148.263896 
L 250.715151 148.263896 
L 256.727273 151.256104 
L 262.739394 153.874286 
L 268.751515 150.321039 
L 274.763636 140.97039 
L 280.775758 127.692468 
L 286.787879 128.627532 
L 292.8 125.822338 
L 298.812121 118.341818 
L 304.824242 124.139221 
L 310.836364 122.269091 
L 316.848485 120.211948 
L 322.860606 123.204156 
L 328.872727 127.069091 
L 334.884848 142.840519 
L 340.89697 146.393766 
L 346.909091 148.263896 
L 352.921212 153.874286 
L 358.933333 156.991169 
L 364.945455 162.383377 
L 370.957576 161.541818 
L 376.969697 157.614545 
L 388.993939 159.671688 
L 395.006061 159.671688 
L 401.018182 161.541818 
L 407.030303 161.541818 
L 413.042424 164.16 
L 419.054545 150.788571 
L 425.066667 142.372987 
L 431.078788 135.172987 
L 437.090909 136.108052 
L 443.10303 135.172987 
L 449.115151 135.172987 
L 455.127273 127.069091 
L 461.139394 127.692468 
L 467.151515 133.910649 
L 473.163636 135.172987 
L 479.175758 150.321039 
L 485.187879 157.614545 
L 491.2 163.224935 
L 497.212121 163.224935 
L 503.224242 166.965195 
L 509.236364 167.993766 
L 515.248485 166.965195 
L 521.260606 169.022338 
L 527.272727 169.022338 
L 533.284848 170.892468 
L 539.29697 171.734026 
L 545.309091 170.892468 
L 551.321212 170.892468 
L 557.333333 172.575584 
L 563.345455 173.198961 
L 575.369697 127.692468 
L 581.381818 115.34961 
L 587.393939 108.991169 
L 593.406061 115.910649 
L 599.418182 126.28987 
L 605.430303 140.97039 
L 611.442424 153.874286 
L 617.454545 159.671688 
L 623.466667 165.095065 
L 629.478788 166.965195 
L 635.490909 169.022338 
L 641.50303 170.892468 
L 647.515151 172.575584 
L 653.527273 173.510649 
L 659.539394 175.380779 
L 665.551515 176.315844 
L 671.563636 178.372987 
L 677.575758 178.372987 
L 683.587879 180.243117 
L 689.6 179.308052 
L 695.612121 181.926234 
L 707.636364 181.926234 
L 713.648485 177.858701 
L 725.672727 183.796364 
L 731.684848 164.471688 
L 737.69697 154.341818 
L 743.709091 160.606753 
L 749.721212 169.022338 
L 755.733333 176.315844 
L 761.745455 178.372987 
L 767.757576 180.243117 
L 779.781818 178.372987 
L 785.793939 176.315844 
L 797.818182 176.315844 
L 803.830303 178.372987 
L 809.842424 179.308052 
L 815.854545 178.372987 
L 821.866667 178.372987 
L 827.878788 180.243117 
L 833.890909 178.372987 
L 839.90303 179.308052 
L 845.915151 176.315844 
L 851.927273 174.913247 
L 857.939394 157.614545 
L 863.951515 148.263896 
L 869.963636 140.97039 
L 875.975758 138.913247 
L 881.987879 143.682078 
L 888 132.554805 
L 894.012121 130.248312 
L 900.024242 127.692468 
L 906.036364 127.692468 
L 912.048485 142.840519 
L 918.060606 154.497662 
L 924.072727 157.614545 
L 936.09697 157.614545 
L 942.109091 159.671688 
L 948.121212 161.541818 
L 960.145455 161.541818 
L 966.157576 163.224935 
L 972.169697 164.471688 
L 978.181818 165.095065 
L 984.193939 161.541818 
L 990.206061 161.541818 
L 996.218182 157.614545 
L 996.218182 157.614545 
" style="fill:none;stroke:#4c72b0;stroke-linecap:round;stroke-width:1.75;"/>
   </g>
   <g id="patch_3">
    <path d="M 144 187.611429 
L 144 103.68 
" style="fill:none;"/>
   </g>
   <g id="patch_4">
    <path d="M 1036.8 187.611429 
L 1036.8 103.68 
" style="fill:none;"/>
   </g>
   <g id="patch_5">
    <path d="M 144 187.611429 
L 1036.8 187.611429 
" style="fill:none;"/>
   </g>
   <g id="patch_6">
    <path d="M 144 103.68 
L 1036.8 103.68 
" style="fill:none;"/>
   </g>
   <g id="legend_1">
    <g id="line2d_18">
     <path d="M 945.889062 116.337813 
L 965.889062 116.337813 
" style="fill:none;stroke:#4c72b0;stroke-linecap:round;stroke-width:1.75;"/>
    </g>
    <g id="line2d_19"/>
    <g id="text_3">
     <!-- temperature -->
     <defs>
      <path d="M 25.78125 7.859375 
L 27.046875 0.09375 
Q 23.34375 -0.6875 20.40625 -0.6875 
Q 15.625 -0.6875 12.984375 0.828125 
Q 10.359375 2.34375 9.28125 4.8125 
Q 8.203125 7.28125 8.203125 15.1875 
L 8.203125 45.015625 
L 1.765625 45.015625 
L 1.765625 51.859375 
L 8.203125 51.859375 
L 8.203125 64.703125 
L 16.9375 69.96875 
L 16.9375 51.859375 
L 25.78125 51.859375 
L 25.78125 45.015625 
L 16.9375 45.015625 
L 16.9375 14.703125 
Q 16.9375 10.9375 17.40625 9.859375 
Q 17.875 8.796875 18.921875 8.15625 
Q 19.96875 7.515625 21.921875 7.515625 
Q 23.390625 7.515625 25.78125 7.859375 
z
" id="ArialMT-116"/>
      <path d="M 42.09375 16.703125 
L 51.171875 15.578125 
Q 49.03125 7.625 43.21875 3.21875 
Q 37.40625 -1.171875 28.375 -1.171875 
Q 17 -1.171875 10.328125 5.828125 
Q 3.65625 12.84375 3.65625 25.484375 
Q 3.65625 38.578125 10.390625 45.796875 
Q 17.140625 53.03125 27.875 53.03125 
Q 38.28125 53.03125 44.875 45.953125 
Q 51.46875 38.875 51.46875 26.03125 
Q 51.46875 25.25 51.421875 23.6875 
L 12.75 23.6875 
Q 13.234375 15.140625 17.578125 10.59375 
Q 21.921875 6.0625 28.421875 6.0625 
Q 33.25 6.0625 36.671875 8.59375 
Q 40.09375 11.140625 42.09375 16.703125 
z
M 13.234375 30.90625 
L 42.1875 30.90625 
Q 41.609375 37.453125 38.875 40.71875 
Q 34.671875 45.796875 27.984375 45.796875 
Q 21.921875 45.796875 17.796875 41.75 
Q 13.671875 37.703125 13.234375 30.90625 
z
" id="ArialMT-101"/>
      <path d="M 6.59375 0 
L 6.59375 51.859375 
L 14.453125 51.859375 
L 14.453125 44.578125 
Q 16.890625 48.390625 20.9375 50.703125 
Q 25 53.03125 30.171875 53.03125 
Q 35.9375 53.03125 39.625 50.640625 
Q 43.3125 48.25 44.828125 43.953125 
Q 50.984375 53.03125 60.84375 53.03125 
Q 68.5625 53.03125 72.703125 48.75 
Q 76.859375 44.484375 76.859375 35.59375 
L 76.859375 0 
L 68.109375 0 
L 68.109375 32.671875 
Q 68.109375 37.9375 67.25 40.25 
Q 66.40625 42.578125 64.15625 43.984375 
Q 61.921875 45.40625 58.890625 45.40625 
Q 53.421875 45.40625 49.796875 41.765625 
Q 46.1875 38.140625 46.1875 30.125 
L 46.1875 0 
L 37.40625 0 
L 37.40625 33.6875 
Q 37.40625 39.546875 35.25 42.46875 
Q 33.109375 45.40625 28.21875 45.40625 
Q 24.515625 45.40625 21.359375 43.453125 
Q 18.21875 41.5 16.796875 37.734375 
Q 15.375 33.984375 15.375 26.90625 
L 15.375 0 
z
" id="ArialMT-109"/>
      <path d="M 6.59375 -19.875 
L 6.59375 51.859375 
L 14.59375 51.859375 
L 14.59375 45.125 
Q 17.4375 49.078125 21 51.046875 
Q 24.5625 53.03125 29.640625 53.03125 
Q 36.28125 53.03125 41.359375 49.609375 
Q 46.4375 46.1875 49.015625 39.953125 
Q 51.609375 33.734375 51.609375 26.3125 
Q 51.609375 18.359375 48.75 11.984375 
Q 45.90625 5.609375 40.453125 2.21875 
Q 35.015625 -1.171875 29 -1.171875 
Q 24.609375 -1.171875 21.109375 0.6875 
Q 17.625 2.546875 15.375 5.375 
L 15.375 -19.875 
z
M 14.546875 25.640625 
Q 14.546875 15.625 18.59375 10.84375 
Q 22.65625 6.0625 28.421875 6.0625 
Q 34.28125 6.0625 38.453125 11.015625 
Q 42.625 15.96875 42.625 26.375 
Q 42.625 36.28125 38.546875 41.203125 
Q 34.46875 46.140625 28.8125 46.140625 
Q 23.1875 46.140625 18.859375 40.890625 
Q 14.546875 35.640625 14.546875 25.640625 
z
" id="ArialMT-112"/>
      <path d="M 6.5 0 
L 6.5 51.859375 
L 14.40625 51.859375 
L 14.40625 44 
Q 17.4375 49.515625 20 51.265625 
Q 22.5625 53.03125 25.640625 53.03125 
Q 30.078125 53.03125 34.671875 50.203125 
L 31.640625 42.046875 
Q 28.421875 43.953125 25.203125 43.953125 
Q 22.3125 43.953125 20.015625 42.21875 
Q 17.71875 40.484375 16.75 37.40625 
Q 15.28125 32.71875 15.28125 27.15625 
L 15.28125 0 
z
" id="ArialMT-114"/>
      <path d="M 40.4375 6.390625 
Q 35.546875 2.25 31.03125 0.53125 
Q 26.515625 -1.171875 21.34375 -1.171875 
Q 12.796875 -1.171875 8.203125 3 
Q 3.609375 7.171875 3.609375 13.671875 
Q 3.609375 17.484375 5.34375 20.625 
Q 7.078125 23.78125 9.890625 25.6875 
Q 12.703125 27.59375 16.21875 28.5625 
Q 18.796875 29.25 24.03125 29.890625 
Q 34.671875 31.15625 39.703125 32.90625 
Q 39.75 34.71875 39.75 35.203125 
Q 39.75 40.578125 37.25 42.78125 
Q 33.890625 45.75 27.25 45.75 
Q 21.046875 45.75 18.09375 43.578125 
Q 15.140625 41.40625 13.71875 35.890625 
L 5.125 37.0625 
Q 6.296875 42.578125 8.984375 45.96875 
Q 11.671875 49.359375 16.75 51.1875 
Q 21.828125 53.03125 28.515625 53.03125 
Q 35.15625 53.03125 39.296875 51.46875 
Q 43.453125 49.90625 45.40625 47.53125 
Q 47.359375 45.171875 48.140625 41.546875 
Q 48.578125 39.3125 48.578125 33.453125 
L 48.578125 21.734375 
Q 48.578125 9.46875 49.140625 6.21875 
Q 49.703125 2.984375 51.375 0 
L 42.1875 0 
Q 40.828125 2.734375 40.4375 6.390625 
z
M 39.703125 26.03125 
Q 34.90625 24.078125 25.34375 22.703125 
Q 19.921875 21.921875 17.671875 20.9375 
Q 15.4375 19.96875 14.203125 18.09375 
Q 12.984375 16.21875 12.984375 13.921875 
Q 12.984375 10.40625 15.640625 8.0625 
Q 18.3125 5.71875 23.4375 5.71875 
Q 28.515625 5.71875 32.46875 7.9375 
Q 36.421875 10.15625 38.28125 14.015625 
Q 39.703125 17 39.703125 22.796875 
z
" id="ArialMT-97"/>
      <path d="M 40.578125 0 
L 40.578125 7.625 
Q 34.515625 -1.171875 24.125 -1.171875 
Q 19.53125 -1.171875 15.546875 0.578125 
Q 11.578125 2.34375 9.640625 5 
Q 7.71875 7.671875 6.9375 11.53125 
Q 6.390625 14.109375 6.390625 19.734375 
L 6.390625 51.859375 
L 15.1875 51.859375 
L 15.1875 23.09375 
Q 15.1875 16.21875 15.71875 13.8125 
Q 16.546875 10.359375 19.234375 8.375 
Q 21.921875 6.390625 25.875 6.390625 
Q 29.828125 6.390625 33.296875 8.421875 
Q 36.765625 10.453125 38.203125 13.9375 
Q 39.65625 17.4375 39.65625 24.078125 
L 39.65625 51.859375 
L 48.4375 51.859375 
L 48.4375 0 
z
" id="ArialMT-117"/>
     </defs>
     <g style="fill:#262626;" transform="translate(973.889062 119.837813)scale(0.1 -0.1)">
      <use xlink:href="#ArialMT-116"/>
      <use x="27.783203" xlink:href="#ArialMT-101"/>
      <use x="83.398438" xlink:href="#ArialMT-109"/>
      <use x="166.699219" xlink:href="#ArialMT-112"/>
      <use x="222.314453" xlink:href="#ArialMT-101"/>
      <use x="277.929688" xlink:href="#ArialMT-114"/>
      <use x="311.230469" xlink:href="#ArialMT-97"/>
      <use x="366.845703" xlink:href="#ArialMT-116"/>
      <use x="394.628906" xlink:href="#ArialMT-117"/>
      <use x="450.244141" xlink:href="#ArialMT-114"/>
      <use x="483.544922" xlink:href="#ArialMT-101"/>
     </g>
    </g>
   </g>
  </g>
  <g id="axes_2">
   <g id="patch_7">
    <path d="M 144 288.329143 
L 1036.8 288.329143 
L 1036.8 204.397714 
L 144 204.397714 
z
" style="fill:#eaeaf2;"/>
   </g>
   <g id="matplotlib.axis_3">
    <g id="xtick_7">
     <g id="line2d_20">
      <path clip-path="url(#p50cc31d4a4)" d="M 221.556364 288.329143 
L 221.556364 204.397714 
" style="fill:none;stroke:#ffffff;stroke-linecap:round;"/>
     </g>
     <g id="line2d_21"/>
    </g>
    <g id="xtick_8">
     <g id="line2d_22">
      <path clip-path="url(#p50cc31d4a4)" d="M 365.847273 288.329143 
L 365.847273 204.397714 
" style="fill:none;stroke:#ffffff;stroke-linecap:round;"/>
     </g>
     <g id="line2d_23"/>
    </g>
    <g id="xtick_9">
     <g id="line2d_24">
      <path clip-path="url(#p50cc31d4a4)" d="M 510.138182 288.329143 
L 510.138182 204.397714 
" style="fill:none;stroke:#ffffff;stroke-linecap:round;"/>
     </g>
     <g id="line2d_25"/>
    </g>
    <g id="xtick_10">
     <g id="line2d_26">
      <path clip-path="url(#p50cc31d4a4)" d="M 654.429091 288.329143 
L 654.429091 204.397714 
" style="fill:none;stroke:#ffffff;stroke-linecap:round;"/>
     </g>
     <g id="line2d_27"/>
    </g>
    <g id="xtick_11">
     <g id="line2d_28">
      <path clip-path="url(#p50cc31d4a4)" d="M 798.72 288.329143 
L 798.72 204.397714 
" style="fill:none;stroke:#ffffff;stroke-linecap:round;"/>
     </g>
     <g id="line2d_29"/>
    </g>
    <g id="xtick_12">
     <g id="line2d_30">
      <path clip-path="url(#p50cc31d4a4)" d="M 943.010909 288.329143 
L 943.010909 204.397714 
" style="fill:none;stroke:#ffffff;stroke-linecap:round;"/>
     </g>
     <g id="line2d_31"/>
    </g>
   </g>
   <g id="matplotlib.axis_4">
    <g id="ytick_3">
     <g id="line2d_32">
      <path clip-path="url(#p50cc31d4a4)" d="M 144 274.109887 
L 1036.8 274.109887 
" style="fill:none;stroke:#ffffff;stroke-linecap:round;"/>
     </g>
     <g id="line2d_33"/>
     <g id="text_4">
      <!-- 20 -->
      <g style="fill:#262626;" transform="translate(123.65375 278.404574)scale(0.12 -0.12)">
       <use xlink:href="#ArialMT-50"/>
       <use x="55.615234" xlink:href="#ArialMT-48"/>
      </g>
     </g>
    </g>
    <g id="ytick_4">
     <g id="line2d_34">
      <path clip-path="url(#p50cc31d4a4)" d="M 144 239.039579 
L 1036.8 239.039579 
" style="fill:none;stroke:#ffffff;stroke-linecap:round;"/>
     </g>
     <g id="line2d_35"/>
     <g id="text_5">
      <!-- 30 -->
      <defs>
       <path d="M 4.203125 18.890625 
L 12.984375 20.0625 
Q 14.5 12.59375 18.140625 9.296875 
Q 21.78125 6 27 6 
Q 33.203125 6 37.46875 10.296875 
Q 41.75 14.59375 41.75 20.953125 
Q 41.75 27 37.796875 30.921875 
Q 33.84375 34.859375 27.734375 34.859375 
Q 25.25 34.859375 21.53125 33.890625 
L 22.515625 41.609375 
Q 23.390625 41.5 23.921875 41.5 
Q 29.546875 41.5 34.03125 44.421875 
Q 38.53125 47.359375 38.53125 53.46875 
Q 38.53125 58.296875 35.25 61.46875 
Q 31.984375 64.65625 26.8125 64.65625 
Q 21.6875 64.65625 18.265625 61.421875 
Q 14.84375 58.203125 13.875 51.765625 
L 5.078125 53.328125 
Q 6.6875 62.15625 12.390625 67.015625 
Q 18.109375 71.875 26.609375 71.875 
Q 32.46875 71.875 37.390625 69.359375 
Q 42.328125 66.84375 44.9375 62.5 
Q 47.5625 58.15625 47.5625 53.265625 
Q 47.5625 48.640625 45.0625 44.828125 
Q 42.578125 41.015625 37.703125 38.765625 
Q 44.046875 37.3125 47.5625 32.6875 
Q 51.078125 28.078125 51.078125 21.140625 
Q 51.078125 11.765625 44.234375 5.25 
Q 37.40625 -1.265625 26.953125 -1.265625 
Q 17.53125 -1.265625 11.296875 4.34375 
Q 5.078125 9.96875 4.203125 18.890625 
z
" id="ArialMT-51"/>
      </defs>
      <g style="fill:#262626;" transform="translate(123.65375 243.334267)scale(0.12 -0.12)">
       <use xlink:href="#ArialMT-51"/>
       <use x="55.615234" xlink:href="#ArialMT-48"/>
      </g>
     </g>
    </g>
   </g>
   <g id="line2d_36">
    <path clip-path="url(#p50cc31d4a4)" d="M 184.581818 248.606759 
L 190.593939 248.19293 
L 196.606061 249.209969 
L 202.618182 251.507074 
L 208.630303 253.961995 
L 214.642424 254.119812 
L 220.654545 255.557694 
L 226.666667 255.014104 
L 232.678788 256.22403 
L 238.690909 257.194308 
L 244.70303 258.714022 
L 250.715151 260.81824 
L 256.727273 262.203517 
L 262.739394 263.974568 
L 268.751515 262.571756 
L 274.763636 259.064725 
L 280.775758 252.050663 
L 286.787879 251.875312 
L 292.8 249.443771 
L 298.812121 251.314187 
L 304.824242 252.716999 
L 310.836364 245.352235 
L 316.848485 249.122293 
L 322.860606 252.559183 
L 328.872727 259.169936 
L 334.884848 266.745122 
L 340.89697 275.161996 
L 346.909091 275.161996 
L 358.933333 269.90145 
L 364.945455 269.743633 
L 370.957576 271.339332 
L 376.969697 274.49566 
L 382.981818 277.441566 
L 388.993939 278.353394 
L 395.006061 278.669027 
L 401.018182 278.51121 
L 407.030303 278.669027 
L 413.042424 278.002691 
L 419.054545 274.925271 
L 425.066667 270.699299 
L 431.078788 271.251657 
L 437.090909 272.917496 
L 443.10303 273.671508 
L 449.115151 277.196074 
L 455.127273 271.222431 
L 467.151515 268.156702 
L 473.163636 270.427504 
L 479.175758 274.846363 
L 485.187879 276.599879 
L 497.212121 278.002691 
L 503.224242 278.236493 
L 509.236364 278.669027 
L 515.248485 278.669027 
L 521.260606 278.178042 
L 533.284848 276.599879 
L 539.29697 276.249175 
L 551.321212 276.915511 
L 557.333333 275.863402 
L 563.345455 275.991993 
L 569.357576 278.178042 
L 575.369697 281.252539 
L 581.381818 282.526761 
L 587.393939 284.455627 
L 593.406061 284.514078 
L 599.418182 281.860425 
L 605.430303 278.002691 
L 611.442424 272.742145 
L 617.454545 268.147934 
L 623.466667 262.571756 
L 629.478788 257.469026 
L 635.490909 252.716999 
L 641.50303 248.543633 
L 647.515151 244.183224 
L 653.527273 241.35422 
L 659.539394 239.232466 
L 671.563636 235.357197 
L 677.575758 235.181846 
L 683.587879 234.164807 
L 689.6 233.603682 
L 695.612121 233.779033 
L 701.624242 235.181846 
L 707.636364 234.948044 
L 713.648485 236.935361 
L 719.660606 237.052262 
L 725.672727 235.532549 
L 731.684848 240.793095 
L 737.69697 249.937677 
L 743.709091 252.287388 
L 749.721212 251.314187 
L 755.733333 249.38532 
L 761.745455 248.859265 
L 767.757576 247.456453 
L 773.769697 247.281102 
L 779.781818 248.19293 
L 791.806061 246.790117 
L 797.818182 249.209969 
L 803.830303 250.297148 
L 809.842424 248.859265 
L 815.854545 250.963484 
L 821.866667 250.788132 
L 827.878788 249.946445 
L 833.890909 250.612781 
L 839.90303 252.366296 
L 845.915151 251.69996 
L 851.927273 247.193426 
L 857.939394 234.752234 
L 863.951515 230.061581 
L 869.963636 227.212118 
L 875.975758 226.063566 
L 881.987879 228.781514 
L 888 218.172747 
L 894.012121 211.345727 
L 900.024242 208.212779 
L 906.036364 210.474814 
L 912.048485 216.419231 
L 918.060606 220.592598 
L 924.072727 225.011456 
L 930.084848 226.764972 
L 936.09697 228.202854 
L 942.109091 228.86919 
L 948.121212 228.518487 
L 954.133333 228.86919 
L 966.157576 228.86919 
L 978.181818 228.202854 
L 984.193939 228.202854 
L 990.206061 228.360671 
L 996.218182 225.984657 
L 996.218182 225.984657 
" style="fill:none;stroke:#55a868;stroke-linecap:round;stroke-width:1.75;"/>
   </g>
   <g id="patch_8">
    <path d="M 144 288.329143 
L 144 204.397714 
" style="fill:none;"/>
   </g>
   <g id="patch_9">
    <path d="M 1036.8 288.329143 
L 1036.8 204.397714 
" style="fill:none;"/>
   </g>
   <g id="patch_10">
    <path d="M 144 288.329143 
L 1036.8 288.329143 
" style="fill:none;"/>
   </g>
   <g id="patch_11">
    <path d="M 144 204.397714 
L 1036.8 204.397714 
" style="fill:none;"/>
   </g>
   <g id="legend_2">
    <g id="line2d_37">
     <path d="M 153 217.055527 
L 173 217.055527 
" style="fill:none;stroke:#55a868;stroke-linecap:round;stroke-width:1.75;"/>
    </g>
    <g id="line2d_38"/>
    <g id="text_6">
     <!-- humidity -->
     <defs>
      <path d="M 6.59375 0 
L 6.59375 71.578125 
L 15.375 71.578125 
L 15.375 45.90625 
Q 21.53125 53.03125 30.90625 53.03125 
Q 36.671875 53.03125 40.921875 50.75 
Q 45.171875 48.484375 47 44.484375 
Q 48.828125 40.484375 48.828125 32.859375 
L 48.828125 0 
L 40.046875 0 
L 40.046875 32.859375 
Q 40.046875 39.453125 37.1875 42.453125 
Q 34.328125 45.453125 29.109375 45.453125 
Q 25.203125 45.453125 21.75 43.421875 
Q 18.3125 41.40625 16.84375 37.9375 
Q 15.375 34.46875 15.375 28.375 
L 15.375 0 
z
" id="ArialMT-104"/>
      <path d="M 6.640625 61.46875 
L 6.640625 71.578125 
L 15.4375 71.578125 
L 15.4375 61.46875 
z
M 6.640625 0 
L 6.640625 51.859375 
L 15.4375 51.859375 
L 15.4375 0 
z
" id="ArialMT-105"/>
      <path d="M 40.234375 0 
L 40.234375 6.546875 
Q 35.296875 -1.171875 25.734375 -1.171875 
Q 19.53125 -1.171875 14.328125 2.25 
Q 9.125 5.671875 6.265625 11.796875 
Q 3.421875 17.921875 3.421875 25.875 
Q 3.421875 33.640625 6 39.96875 
Q 8.59375 46.296875 13.765625 49.65625 
Q 18.953125 53.03125 25.34375 53.03125 
Q 30.03125 53.03125 33.6875 51.046875 
Q 37.359375 49.078125 39.65625 45.90625 
L 39.65625 71.578125 
L 48.390625 71.578125 
L 48.390625 0 
z
M 12.453125 25.875 
Q 12.453125 15.921875 16.640625 10.984375 
Q 20.84375 6.0625 26.5625 6.0625 
Q 32.328125 6.0625 36.34375 10.765625 
Q 40.375 15.484375 40.375 25.140625 
Q 40.375 35.796875 36.265625 40.765625 
Q 32.171875 45.75 26.171875 45.75 
Q 20.3125 45.75 16.375 40.96875 
Q 12.453125 36.1875 12.453125 25.875 
z
" id="ArialMT-100"/>
      <path d="M 6.203125 -19.96875 
L 5.21875 -11.71875 
Q 8.109375 -12.5 10.25 -12.5 
Q 13.1875 -12.5 14.9375 -11.515625 
Q 16.703125 -10.546875 17.828125 -8.796875 
Q 18.65625 -7.46875 20.515625 -2.25 
Q 20.75 -1.515625 21.296875 -0.09375 
L 1.609375 51.859375 
L 11.078125 51.859375 
L 21.875 21.828125 
Q 23.96875 16.109375 25.640625 9.8125 
Q 27.15625 15.875 29.25 21.625 
L 40.328125 51.859375 
L 49.125 51.859375 
L 29.390625 -0.875 
Q 26.21875 -9.421875 24.46875 -12.640625 
Q 22.125 -17 19.09375 -19.015625 
Q 16.0625 -21.046875 11.859375 -21.046875 
Q 9.328125 -21.046875 6.203125 -19.96875 
z
" id="ArialMT-121"/>
     </defs>
     <g style="fill:#262626;" transform="translate(181 220.555527)scale(0.1 -0.1)">
      <use xlink:href="#ArialMT-104"/>
      <use x="55.615234" xlink:href="#ArialMT-117"/>
      <use x="111.230469" xlink:href="#ArialMT-109"/>
      <use x="194.53125" xlink:href="#ArialMT-105"/>
      <use x="216.748047" xlink:href="#ArialMT-100"/>
      <use x="272.363281" xlink:href="#ArialMT-105"/>
      <use x="294.580078" xlink:href="#ArialMT-116"/>
      <use x="322.363281" xlink:href="#ArialMT-121"/>
     </g>
    </g>
   </g>
  </g>
  <g id="axes_3">
   <g id="patch_12">
    <path d="M 144 389.046857 
L 1036.8 389.046857 
L 1036.8 305.115429 
L 144 305.115429 
z
" style="fill:#eaeaf2;"/>
   </g>
   <g id="matplotlib.axis_5">
    <g id="xtick_13">
     <g id="line2d_39">
      <path clip-path="url(#pecab56a88f)" d="M 221.556364 389.046857 
L 221.556364 305.115429 
" style="fill:none;stroke:#ffffff;stroke-linecap:round;"/>
     </g>
     <g id="line2d_40"/>
    </g>
    <g id="xtick_14">
     <g id="line2d_41">
      <path clip-path="url(#pecab56a88f)" d="M 365.847273 389.046857 
L 365.847273 305.115429 
" style="fill:none;stroke:#ffffff;stroke-linecap:round;"/>
     </g>
     <g id="line2d_42"/>
    </g>
    <g id="xtick_15">
     <g id="line2d_43">
      <path clip-path="url(#pecab56a88f)" d="M 510.138182 389.046857 
L 510.138182 305.115429 
" style="fill:none;stroke:#ffffff;stroke-linecap:round;"/>
     </g>
     <g id="line2d_44"/>
    </g>
    <g id="xtick_16">
     <g id="line2d_45">
      <path clip-path="url(#pecab56a88f)" d="M 654.429091 389.046857 
L 654.429091 305.115429 
" style="fill:none;stroke:#ffffff;stroke-linecap:round;"/>
     </g>
     <g id="line2d_46"/>
    </g>
    <g id="xtick_17">
     <g id="line2d_47">
      <path clip-path="url(#pecab56a88f)" d="M 798.72 389.046857 
L 798.72 305.115429 
" style="fill:none;stroke:#ffffff;stroke-linecap:round;"/>
     </g>
     <g id="line2d_48"/>
    </g>
    <g id="xtick_18">
     <g id="line2d_49">
      <path clip-path="url(#pecab56a88f)" d="M 943.010909 389.046857 
L 943.010909 305.115429 
" style="fill:none;stroke:#ffffff;stroke-linecap:round;"/>
     </g>
     <g id="line2d_50"/>
    </g>
   </g>
   <g id="matplotlib.axis_6">
    <g id="ytick_5">
     <g id="line2d_51">
      <path clip-path="url(#pecab56a88f)" d="M 144 385.231792 
L 1036.8 385.231792 
" style="fill:none;stroke:#ffffff;stroke-linecap:round;"/>
     </g>
     <g id="line2d_52"/>
     <g id="text_7">
      <!-- 0 -->
      <g style="fill:#262626;" transform="translate(130.326875 389.52648)scale(0.12 -0.12)">
       <use xlink:href="#ArialMT-48"/>
      </g>
     </g>
    </g>
    <g id="ytick_6">
     <g id="line2d_53">
      <path clip-path="url(#pecab56a88f)" d="M 144 354.97751 
L 1036.8 354.97751 
" style="fill:none;stroke:#ffffff;stroke-linecap:round;"/>
     </g>
     <g id="line2d_54"/>
     <g id="text_8">
      <!-- 250 -->
      <defs>
       <path d="M 4.15625 18.75 
L 13.375 19.53125 
Q 14.40625 12.796875 18.140625 9.390625 
Q 21.875 6 27.15625 6 
Q 33.5 6 37.890625 10.78125 
Q 42.28125 15.578125 42.28125 23.484375 
Q 42.28125 31 38.0625 35.34375 
Q 33.84375 39.703125 27 39.703125 
Q 22.75 39.703125 19.328125 37.765625 
Q 15.921875 35.84375 13.96875 32.765625 
L 5.71875 33.84375 
L 12.640625 70.609375 
L 48.25 70.609375 
L 48.25 62.203125 
L 19.671875 62.203125 
L 15.828125 42.96875 
Q 22.265625 47.46875 29.34375 47.46875 
Q 38.71875 47.46875 45.15625 40.96875 
Q 51.609375 34.46875 51.609375 24.265625 
Q 51.609375 14.546875 45.953125 7.46875 
Q 39.0625 -1.21875 27.15625 -1.21875 
Q 17.390625 -1.21875 11.203125 4.25 
Q 5.03125 9.71875 4.15625 18.75 
z
" id="ArialMT-53"/>
      </defs>
      <g style="fill:#262626;" transform="translate(116.980625 359.272198)scale(0.12 -0.12)">
       <use xlink:href="#ArialMT-50"/>
       <use x="55.615234" xlink:href="#ArialMT-53"/>
       <use x="111.230469" xlink:href="#ArialMT-48"/>
      </g>
     </g>
    </g>
    <g id="ytick_7">
     <g id="line2d_55">
      <path clip-path="url(#pecab56a88f)" d="M 144 324.723229 
L 1036.8 324.723229 
" style="fill:none;stroke:#ffffff;stroke-linecap:round;"/>
     </g>
     <g id="line2d_56"/>
     <g id="text_9">
      <!-- 500 -->
      <g style="fill:#262626;" transform="translate(116.980625 329.017916)scale(0.12 -0.12)">
       <use xlink:href="#ArialMT-53"/>
       <use x="55.615234" xlink:href="#ArialMT-48"/>
       <use x="111.230469" xlink:href="#ArialMT-48"/>
      </g>
     </g>
    </g>
   </g>
   <g id="line2d_57">
    <path clip-path="url(#pecab56a88f)" d="M 184.581818 333.678496 
L 190.593939 385.231792 
L 262.739394 385.231792 
L 268.751515 337.30901 
L 274.763636 331.197645 
L 280.775758 330.290016 
L 286.787879 330.743831 
L 292.8 331.500188 
L 298.812121 308.930494 
L 304.824242 331.500188 
L 310.836364 326.054417 
L 316.848485 327.869674 
L 322.860606 332.22629 
L 328.872727 332.831376 
L 334.884848 385.231792 
L 407.030303 385.231792 
L 413.042424 335.493753 
L 419.054545 332.831376 
L 425.066667 331.500188 
L 431.078788 326.962045 
L 437.090909 328.898319 
L 443.10303 326.9923 
L 449.115151 317.52271 
L 455.127273 324.884585 
L 467.151515 331.500188 
L 473.163636 332.831376 
L 479.175758 385.231792 
L 557.333333 385.231792 
L 563.345455 380.108734 
L 569.357576 359.576161 
L 575.369697 344.650716 
L 581.381818 343.561561 
L 587.393939 350.741911 
L 593.406061 365.788374 
L 599.418182 373.946945 
L 605.430303 380.592802 
L 611.442424 383.537552 
L 617.454545 385.231792 
L 701.624242 385.231792 
L 707.636364 383.537552 
L 713.648485 383.537552 
L 719.660606 381.480261 
L 725.672727 382.992975 
L 731.684848 355.784291 
L 737.69697 361.603198 
L 743.709091 376.790848 
L 749.721212 382.932467 
L 755.733333 382.327381 
L 761.745455 385.231792 
L 845.915151 385.231792 
L 851.927273 337.187993 
L 857.939394 331.681713 
L 863.951515 330.290016 
L 869.963636 329.079845 
L 875.975758 323.028989 
L 881.987879 327.809165 
L 888 328.747048 
L 894.012121 331.500188 
L 900.024242 332.831376 
L 906.036364 332.831376 
L 912.048485 385.231792 
L 990.206061 385.231792 
L 996.218182 335.917313 
L 996.218182 335.917313 
" style="fill:none;stroke:#c44e52;stroke-linecap:round;stroke-width:1.75;"/>
   </g>
   <g id="patch_13">
    <path d="M 144 389.046857 
L 144 305.115429 
" style="fill:none;"/>
   </g>
   <g id="patch_14">
    <path d="M 1036.8 389.046857 
L 1036.8 305.115429 
" style="fill:none;"/>
   </g>
   <g id="patch_15">
    <path d="M 144 389.046857 
L 1036.8 389.046857 
" style="fill:none;"/>
   </g>
   <g id="patch_16">
    <path d="M 144 305.115429 
L 1036.8 305.115429 
" style="fill:none;"/>
   </g>
   <g id="legend_3">
    <g id="line2d_58">
     <path d="M 981.45625 317.773241 
L 1001.45625 317.773241 
" style="fill:none;stroke:#c44e52;stroke-linecap:round;stroke-width:1.75;"/>
    </g>
    <g id="line2d_59"/>
    <g id="text_10">
     <!-- light -->
     <defs>
      <path d="M 6.390625 0 
L 6.390625 71.578125 
L 15.1875 71.578125 
L 15.1875 0 
z
" id="ArialMT-108"/>
      <path d="M 4.984375 -4.296875 
L 13.53125 -5.5625 
Q 14.0625 -9.515625 16.5 -11.328125 
Q 19.78125 -13.765625 25.4375 -13.765625 
Q 31.546875 -13.765625 34.859375 -11.328125 
Q 38.1875 -8.890625 39.359375 -4.5 
Q 40.046875 -1.8125 39.984375 6.78125 
Q 34.234375 0 25.640625 0 
Q 14.9375 0 9.078125 7.71875 
Q 3.21875 15.4375 3.21875 26.21875 
Q 3.21875 33.640625 5.90625 39.90625 
Q 8.59375 46.1875 13.6875 49.609375 
Q 18.796875 53.03125 25.6875 53.03125 
Q 34.859375 53.03125 40.828125 45.609375 
L 40.828125 51.859375 
L 48.921875 51.859375 
L 48.921875 7.03125 
Q 48.921875 -5.078125 46.453125 -10.125 
Q 44 -15.1875 38.640625 -18.109375 
Q 33.296875 -21.046875 25.484375 -21.046875 
Q 16.21875 -21.046875 10.5 -16.875 
Q 4.78125 -12.703125 4.984375 -4.296875 
z
M 12.25 26.859375 
Q 12.25 16.65625 16.296875 11.96875 
Q 20.359375 7.28125 26.46875 7.28125 
Q 32.515625 7.28125 36.609375 11.9375 
Q 40.71875 16.609375 40.71875 26.5625 
Q 40.71875 36.078125 36.5 40.90625 
Q 32.28125 45.75 26.3125 45.75 
Q 20.453125 45.75 16.34375 40.984375 
Q 12.25 36.234375 12.25 26.859375 
z
" id="ArialMT-103"/>
     </defs>
     <g style="fill:#262626;" transform="translate(1009.45625 321.273241)scale(0.1 -0.1)">
      <use xlink:href="#ArialMT-108"/>
      <use x="22.216797" xlink:href="#ArialMT-105"/>
      <use x="44.433594" xlink:href="#ArialMT-103"/>
      <use x="100.048828" xlink:href="#ArialMT-104"/>
      <use x="155.664062" xlink:href="#ArialMT-116"/>
     </g>
    </g>
   </g>
  </g>
  <g id="axes_4">
   <g id="patch_17">
    <path d="M 144 489.764571 
L 1036.8 489.764571 
L 1036.8 405.833143 
L 144 405.833143 
z
" style="fill:#eaeaf2;"/>
   </g>
   <g id="matplotlib.axis_7">
    <g id="xtick_19">
     <g id="line2d_60">
      <path clip-path="url(#pa04679b410)" d="M 221.556364 489.764571 
L 221.556364 405.833143 
" style="fill:none;stroke:#ffffff;stroke-linecap:round;"/>
     </g>
     <g id="line2d_61"/>
    </g>
    <g id="xtick_20">
     <g id="line2d_62">
      <path clip-path="url(#pa04679b410)" d="M 365.847273 489.764571 
L 365.847273 405.833143 
" style="fill:none;stroke:#ffffff;stroke-linecap:round;"/>
     </g>
     <g id="line2d_63"/>
    </g>
    <g id="xtick_21">
     <g id="line2d_64">
      <path clip-path="url(#pa04679b410)" d="M 510.138182 489.764571 
L 510.138182 405.833143 
" style="fill:none;stroke:#ffffff;stroke-linecap:round;"/>
     </g>
     <g id="line2d_65"/>
    </g>
    <g id="xtick_22">
     <g id="line2d_66">
      <path clip-path="url(#pa04679b410)" d="M 654.429091 489.764571 
L 654.429091 405.833143 
" style="fill:none;stroke:#ffffff;stroke-linecap:round;"/>
     </g>
     <g id="line2d_67"/>
    </g>
    <g id="xtick_23">
     <g id="line2d_68">
      <path clip-path="url(#pa04679b410)" d="M 798.72 489.764571 
L 798.72 405.833143 
" style="fill:none;stroke:#ffffff;stroke-linecap:round;"/>
     </g>
     <g id="line2d_69"/>
    </g>
    <g id="xtick_24">
     <g id="line2d_70">
      <path clip-path="url(#pa04679b410)" d="M 943.010909 489.764571 
L 943.010909 405.833143 
" style="fill:none;stroke:#ffffff;stroke-linecap:round;"/>
     </g>
     <g id="line2d_71"/>
    </g>
   </g>
   <g id="matplotlib.axis_8">
    <g id="ytick_8">
     <g id="line2d_72">
      <path clip-path="url(#pa04679b410)" d="M 144 457.772647 
L 1036.8 457.772647 
" style="fill:none;stroke:#ffffff;stroke-linecap:round;"/>
     </g>
     <g id="line2d_73"/>
     <g id="text_11">
      <!-- 1000 -->
      <defs>
       <path d="M 37.25 0 
L 28.46875 0 
L 28.46875 56 
Q 25.296875 52.984375 20.140625 49.953125 
Q 14.984375 46.921875 10.890625 45.40625 
L 10.890625 53.90625 
Q 18.265625 57.375 23.78125 62.296875 
Q 29.296875 67.234375 31.59375 71.875 
L 37.25 71.875 
z
" id="ArialMT-49"/>
      </defs>
      <g style="fill:#262626;" transform="translate(110.3075 462.067335)scale(0.12 -0.12)">
       <use xlink:href="#ArialMT-49"/>
       <use x="55.615234" xlink:href="#ArialMT-48"/>
       <use x="111.230469" xlink:href="#ArialMT-48"/>
       <use x="166.845703" xlink:href="#ArialMT-48"/>
      </g>
     </g>
    </g>
    <g id="ytick_9">
     <g id="line2d_74">
      <path clip-path="url(#pa04679b410)" d="M 144 409.648208 
L 1036.8 409.648208 
" style="fill:none;stroke:#ffffff;stroke-linecap:round;"/>
     </g>
     <g id="line2d_75"/>
     <g id="text_12">
      <!-- 2000 -->
      <g style="fill:#262626;" transform="translate(110.3075 413.942895)scale(0.12 -0.12)">
       <use xlink:href="#ArialMT-50"/>
       <use x="55.615234" xlink:href="#ArialMT-48"/>
       <use x="111.230469" xlink:href="#ArialMT-48"/>
       <use x="166.845703" xlink:href="#ArialMT-48"/>
      </g>
     </g>
    </g>
   </g>
   <g id="line2d_76">
    <path clip-path="url(#pa04679b410)" d="M 184.581818 471.187335 
L 190.593939 475.747125 
L 196.606061 479.356458 
L 202.618182 481.413778 
L 208.630303 482.448454 
L 214.642424 483.302662 
L 220.654545 483.519222 
L 226.666667 484.289213 
L 232.678788 484.445618 
L 238.690909 484.818582 
L 244.70303 484.529836 
L 250.715151 484.385462 
L 256.727273 484.409524 
L 262.739394 484.024529 
L 268.751515 481.113 
L 274.763636 469.40673 
L 280.775758 456.264748 
L 286.787879 456.304852 
L 292.8 451.40418 
L 298.812121 456.052199 
L 304.824242 465.448495 
L 310.836364 455.222052 
L 316.848485 454.343781 
L 322.860606 454.500185 
L 328.872727 463.210709 
L 334.884848 475.097445 
L 340.89697 481.594245 
L 346.909091 483.591409 
L 352.921212 483.687658 
L 358.933333 483.968384 
L 364.945455 484.818582 
L 370.957576 484.57796 
L 376.969697 484.914831 
L 382.981818 484.962955 
L 388.993939 485.22764 
L 395.006061 485.251702 
L 401.018182 484.866707 
L 407.030303 485.01108 
L 413.042424 483.759844 
L 419.054545 475.217757 
L 425.066667 466.952384 
L 431.078788 464.95522 
L 437.090909 467.902842 
L 443.10303 469.442824 
L 449.115151 475.47041 
L 455.127273 465.183811 
L 461.139394 462.753527 
L 467.151515 459.601376 
L 473.163636 467.349411 
L 479.175758 477.238983 
L 485.187879 482.604858 
L 491.2 484.289213 
L 497.212121 484.553898 
L 503.224242 484.987018 
L 509.236364 484.674209 
L 515.248485 485.107329 
L 527.272727 484.602022 
L 533.284848 484.79452 
L 539.29697 484.770458 
L 545.309091 484.529836 
L 551.321212 484.529836 
L 557.333333 483.952342 
L 563.345455 483.936301 
L 575.369697 483.535264 
L 581.381818 484.241089 
L 587.393939 484.301244 
L 593.406061 484.674209 
L 611.442424 484.674209 
L 617.454545 485.203578 
L 623.466667 484.987018 
L 629.478788 484.650147 
L 635.490909 484.457649 
L 641.50303 484.818582 
L 647.515151 484.658167 
L 653.527273 484.962955 
L 659.539394 484.626084 
L 671.563636 484.938893 
L 677.575758 484.842644 
L 683.587879 484.914831 
L 689.6 484.746396 
L 695.612121 485.035142 
L 701.624242 485.179515 
L 707.636364 484.866707 
L 713.648485 485.191547 
L 719.660606 485.043163 
L 731.684848 485.203578 
L 737.69697 485.829195 
L 743.709091 485.564511 
L 749.721212 485.636698 
L 755.733333 485.949506 
L 761.745455 485.323889 
L 767.757576 485.251702 
L 773.769697 484.914831 
L 779.781818 484.096716 
L 785.793939 484.529836 
L 791.806061 484.072653 
L 797.818182 484.337338 
L 809.842424 483.422973 
L 815.854545 483.254538 
L 821.866667 483.471098 
L 827.878788 483.49516 
L 833.890909 483.759844 
L 845.915151 483.262559 
L 851.927273 482.003302 
L 857.939394 459.312629 
L 863.951515 442.613449 
L 869.963636 435.731654 
L 875.975758 442.581366 
L 881.987879 451.684906 
L 888 433.08481 
L 894.012121 417.027289 
L 900.024242 409.648208 
L 906.036364 416.205163 
L 912.048485 439.413174 
L 918.060606 455.863711 
L 924.072727 467.734406 
L 930.084848 474.110894 
L 936.09697 479.091774 
L 942.109091 481.786742 
L 948.121212 482.917667 
L 954.133333 483.615471 
L 960.145455 484.024529 
L 978.181818 484.674209 
L 990.206061 484.289213 
L 996.218182 482.051427 
L 996.218182 482.051427 
" style="fill:none;stroke:#8172b2;stroke-linecap:round;stroke-width:1.75;"/>
   </g>
   <g id="patch_18">
    <path d="M 144 489.764571 
L 144 405.833143 
" style="fill:none;"/>
   </g>
   <g id="patch_19">
    <path d="M 1036.8 489.764571 
L 1036.8 405.833143 
" style="fill:none;"/>
   </g>
   <g id="patch_20">
    <path d="M 144 489.764571 
L 1036.8 489.764571 
" style="fill:none;"/>
   </g>
   <g id="patch_21">
    <path d="M 144 405.833143 
L 1036.8 405.833143 
" style="fill:none;"/>
   </g>
   <g id="legend_4">
    <g id="line2d_77">
     <path d="M 983.678125 418.490955 
L 1003.678125 418.490955 
" style="fill:none;stroke:#8172b2;stroke-linecap:round;stroke-width:1.75;"/>
    </g>
    <g id="line2d_78"/>
    <g id="text_13">
     <!-- co2 -->
     <defs>
      <path d="M 40.4375 19 
L 49.078125 17.875 
Q 47.65625 8.9375 41.8125 3.875 
Q 35.984375 -1.171875 27.484375 -1.171875 
Q 16.84375 -1.171875 10.375 5.78125 
Q 3.90625 12.75 3.90625 25.734375 
Q 3.90625 34.125 6.6875 40.421875 
Q 9.46875 46.734375 15.15625 49.875 
Q 20.84375 53.03125 27.546875 53.03125 
Q 35.984375 53.03125 41.359375 48.75 
Q 46.734375 44.484375 48.25 36.625 
L 39.703125 35.296875 
Q 38.484375 40.53125 35.375 43.15625 
Q 32.28125 45.796875 27.875 45.796875 
Q 21.234375 45.796875 17.078125 41.03125 
Q 12.9375 36.28125 12.9375 25.984375 
Q 12.9375 15.53125 16.9375 10.796875 
Q 20.953125 6.0625 27.390625 6.0625 
Q 32.5625 6.0625 36.03125 9.234375 
Q 39.5 12.40625 40.4375 19 
z
" id="ArialMT-99"/>
      <path d="M 3.328125 25.921875 
Q 3.328125 40.328125 11.328125 47.265625 
Q 18.015625 53.03125 27.640625 53.03125 
Q 38.328125 53.03125 45.109375 46.015625 
Q 51.90625 39.015625 51.90625 26.65625 
Q 51.90625 16.65625 48.90625 10.90625 
Q 45.90625 5.171875 40.15625 2 
Q 34.421875 -1.171875 27.640625 -1.171875 
Q 16.75 -1.171875 10.03125 5.8125 
Q 3.328125 12.796875 3.328125 25.921875 
z
M 12.359375 25.921875 
Q 12.359375 15.96875 16.703125 11.015625 
Q 21.046875 6.0625 27.640625 6.0625 
Q 34.1875 6.0625 38.53125 11.03125 
Q 42.875 16.015625 42.875 26.21875 
Q 42.875 35.84375 38.5 40.796875 
Q 34.125 45.75 27.640625 45.75 
Q 21.046875 45.75 16.703125 40.8125 
Q 12.359375 35.890625 12.359375 25.921875 
z
" id="ArialMT-111"/>
     </defs>
     <g style="fill:#262626;" transform="translate(1011.678125 421.990955)scale(0.1 -0.1)">
      <use xlink:href="#ArialMT-99"/>
      <use x="50" xlink:href="#ArialMT-111"/>
      <use x="105.615234" xlink:href="#ArialMT-50"/>
     </g>
    </g>
   </g>
  </g>
  <g id="axes_5">
   <g id="patch_22">
    <path d="M 144 590.482286 
L 1036.8 590.482286 
L 1036.8 506.550857 
L 144 506.550857 
z
" style="fill:#eaeaf2;"/>
   </g>
   <g id="matplotlib.axis_9">
    <g id="xtick_25">
     <g id="line2d_79">
      <path clip-path="url(#p702e976967)" d="M 221.556364 590.482286 
L 221.556364 506.550857 
" style="fill:none;stroke:#ffffff;stroke-linecap:round;"/>
     </g>
     <g id="line2d_80"/>
    </g>
    <g id="xtick_26">
     <g id="line2d_81">
      <path clip-path="url(#p702e976967)" d="M 365.847273 590.482286 
L 365.847273 506.550857 
" style="fill:none;stroke:#ffffff;stroke-linecap:round;"/>
     </g>
     <g id="line2d_82"/>
    </g>
    <g id="xtick_27">
     <g id="line2d_83">
      <path clip-path="url(#p702e976967)" d="M 510.138182 590.482286 
L 510.138182 506.550857 
" style="fill:none;stroke:#ffffff;stroke-linecap:round;"/>
     </g>
     <g id="line2d_84"/>
    </g>
    <g id="xtick_28">
     <g id="line2d_85">
      <path clip-path="url(#p702e976967)" d="M 654.429091 590.482286 
L 654.429091 506.550857 
" style="fill:none;stroke:#ffffff;stroke-linecap:round;"/>
     </g>
     <g id="line2d_86"/>
    </g>
    <g id="xtick_29">
     <g id="line2d_87">
      <path clip-path="url(#p702e976967)" d="M 798.72 590.482286 
L 798.72 506.550857 
" style="fill:none;stroke:#ffffff;stroke-linecap:round;"/>
     </g>
     <g id="line2d_88"/>
    </g>
    <g id="xtick_30">
     <g id="line2d_89">
      <path clip-path="url(#p702e976967)" d="M 943.010909 590.482286 
L 943.010909 506.550857 
" style="fill:none;stroke:#ffffff;stroke-linecap:round;"/>
     </g>
     <g id="line2d_90"/>
    </g>
   </g>
   <g id="matplotlib.axis_10">
    <g id="ytick_10">
     <g id="line2d_91">
      <path clip-path="url(#p702e976967)" d="M 144 559.694076 
L 1036.8 559.694076 
" style="fill:none;stroke:#ffffff;stroke-linecap:round;"/>
     </g>
     <g id="line2d_92"/>
     <g id="text_14">
      <!-- 0.004 -->
      <defs>
       <path d="M 9.078125 0 
L 9.078125 10.015625 
L 19.09375 10.015625 
L 19.09375 0 
z
" id="ArialMT-46"/>
       <path d="M 32.328125 0 
L 32.328125 17.140625 
L 1.265625 17.140625 
L 1.265625 25.203125 
L 33.9375 71.578125 
L 41.109375 71.578125 
L 41.109375 25.203125 
L 50.78125 25.203125 
L 50.78125 17.140625 
L 41.109375 17.140625 
L 41.109375 0 
z
M 32.328125 25.203125 
L 32.328125 57.46875 
L 9.90625 25.203125 
z
" id="ArialMT-52"/>
      </defs>
      <g style="fill:#262626;" transform="translate(106.97375 563.988764)scale(0.12 -0.12)">
       <use xlink:href="#ArialMT-48"/>
       <use x="55.615234" xlink:href="#ArialMT-46"/>
       <use x="83.398438" xlink:href="#ArialMT-48"/>
       <use x="139.013672" xlink:href="#ArialMT-48"/>
       <use x="194.628906" xlink:href="#ArialMT-52"/>
      </g>
     </g>
    </g>
    <g id="ytick_11">
     <g id="line2d_93">
      <path clip-path="url(#p702e976967)" d="M 144 518.605419 
L 1036.8 518.605419 
" style="fill:none;stroke:#ffffff;stroke-linecap:round;"/>
     </g>
     <g id="line2d_94"/>
     <g id="text_15">
      <!-- 0.006 -->
      <defs>
       <path d="M 49.75 54.046875 
L 41.015625 53.375 
Q 39.84375 58.546875 37.703125 60.890625 
Q 34.125 64.65625 28.90625 64.65625 
Q 24.703125 64.65625 21.53125 62.3125 
Q 17.390625 59.28125 14.984375 53.46875 
Q 12.59375 47.65625 12.5 36.921875 
Q 15.671875 41.75 20.265625 44.09375 
Q 24.859375 46.4375 29.890625 46.4375 
Q 38.671875 46.4375 44.84375 39.96875 
Q 51.03125 33.5 51.03125 23.25 
Q 51.03125 16.5 48.125 10.71875 
Q 45.21875 4.9375 40.140625 1.859375 
Q 35.0625 -1.21875 28.609375 -1.21875 
Q 17.625 -1.21875 10.6875 6.859375 
Q 3.765625 14.9375 3.765625 33.5 
Q 3.765625 54.25 11.421875 63.671875 
Q 18.109375 71.875 29.4375 71.875 
Q 37.890625 71.875 43.28125 67.140625 
Q 48.6875 62.40625 49.75 54.046875 
z
M 13.875 23.1875 
Q 13.875 18.65625 15.796875 14.5 
Q 17.71875 10.359375 21.1875 8.171875 
Q 24.65625 6 28.46875 6 
Q 34.03125 6 38.03125 10.484375 
Q 42.046875 14.984375 42.046875 22.703125 
Q 42.046875 30.125 38.078125 34.390625 
Q 34.125 38.671875 28.125 38.671875 
Q 22.171875 38.671875 18.015625 34.390625 
Q 13.875 30.125 13.875 23.1875 
z
" id="ArialMT-54"/>
      </defs>
      <g style="fill:#262626;" transform="translate(106.97375 522.900106)scale(0.12 -0.12)">
       <use xlink:href="#ArialMT-48"/>
       <use x="55.615234" xlink:href="#ArialMT-46"/>
       <use x="83.398438" xlink:href="#ArialMT-48"/>
       <use x="139.013672" xlink:href="#ArialMT-48"/>
       <use x="194.628906" xlink:href="#ArialMT-54"/>
      </g>
     </g>
    </g>
   </g>
   <g id="line2d_95">
    <path clip-path="url(#p702e976967)" d="M 184.581818 543.402666 
L 190.593939 547.921141 
L 196.606061 551.455328 
L 202.618182 555.21601 
L 208.630303 558.326736 
L 214.642424 559.267397 
L 220.654545 561.043973 
L 226.666667 561.295822 
L 232.678788 562.025827 
L 238.690909 563.35748 
L 244.70303 564.89516 
L 256.727273 568.780589 
L 262.739394 570.984322 
L 268.751515 568.885017 
L 274.763636 563.344155 
L 280.775758 553.037894 
L 286.787879 553.140529 
L 292.8 549.945859 
L 298.812121 549.53773 
L 304.824242 552.650722 
L 310.836364 544.824796 
L 316.848485 547.920573 
L 322.860606 552.221567 
L 328.872727 559.773536 
L 334.884848 570.902646 
L 340.89697 579.384371 
L 346.909091 579.769003 
L 352.921212 578.593634 
L 358.933333 576.919161 
L 364.945455 577.93515 
L 370.957576 579.13604 
L 376.969697 581.077606 
L 382.981818 583.854934 
L 388.993939 584.845162 
L 401.018182 585.33428 
L 407.030303 585.470604 
L 413.042424 585.388306 
L 419.054545 580.07291 
L 425.066667 574.438565 
L 431.078788 573.342728 
L 437.090909 575.120227 
L 443.10303 575.626173 
L 449.115151 578.950609 
L 455.127273 571.467577 
L 461.139394 570.172024 
L 467.151515 570.123998 
L 473.163636 572.564848 
L 479.175758 579.906529 
L 485.187879 582.919966 
L 491.2 584.579856 
L 497.212121 585.212556 
L 503.224242 586.111032 
L 509.236364 586.667221 
L 515.248485 586.477966 
L 521.260606 586.442239 
L 527.272727 585.821688 
L 533.284848 585.464897 
L 539.29697 585.330001 
L 545.309091 585.464897 
L 551.321212 585.729225 
L 557.333333 585.167142 
L 563.345455 585.391782 
L 569.357576 582.894822 
L 575.369697 581.30692 
L 581.381818 580.096645 
L 587.393939 580.785309 
L 593.406061 582.20408 
L 599.418182 581.618049 
L 605.430303 580.885154 
L 611.442424 578.764701 
L 617.454545 575.967985 
L 623.466667 572.376611 
L 629.478788 568.468516 
L 635.490909 564.954028 
L 641.50303 561.925494 
L 647.515151 558.728107 
L 653.527273 556.628696 
L 665.551515 554.063222 
L 671.563636 553.082663 
L 677.575758 552.938691 
L 683.587879 552.664648 
L 689.6 551.925167 
L 695.612121 552.853936 
L 701.624242 553.99209 
L 707.636364 553.802412 
L 713.648485 554.22738 
L 719.660606 555.183622 
L 725.672727 554.824786 
L 731.684848 553.535531 
L 737.69697 558.637439 
L 743.709091 562.394733 
L 749.721212 563.768013 
L 755.733333 564.056105 
L 761.745455 564.158846 
L 767.757576 563.501445 
L 773.769697 563.112245 
L 779.781818 563.612676 
L 785.793939 562.464077 
L 791.806061 561.914012 
L 797.818182 563.911391 
L 803.830303 565.337264 
L 809.842424 564.401811 
L 815.854545 565.883287 
L 827.878788 565.529527 
L 833.890909 565.595912 
L 839.90303 567.266585 
L 845.915151 565.966018 
L 851.927273 561.872509 
L 857.939394 546.180438 
L 863.951515 538.902401 
L 869.963636 533.732823 
L 875.975758 531.917809 
L 881.987879 536.147068 
L 888 522.020437 
L 894.012121 514.50162 
L 900.024242 510.365922 
L 906.036364 512.57472 
L 912.048485 524.397502 
L 918.060606 532.574508 
L 924.072727 537.598473 
L 930.084848 539.144226 
L 942.109091 541.686647 
L 954.133333 542.308506 
L 960.145455 542.308506 
L 966.157576 542.86526 
L 972.169697 542.973893 
L 978.181818 542.908032 
L 984.193939 541.729017 
L 990.206061 541.866269 
L 996.218182 538.456412 
L 996.218182 538.456412 
" style="fill:none;stroke:#ccb974;stroke-linecap:round;stroke-width:1.75;"/>
   </g>
   <g id="patch_23">
    <path d="M 144 590.482286 
L 144 506.550857 
" style="fill:none;"/>
   </g>
   <g id="patch_24">
    <path d="M 1036.8 590.482286 
L 1036.8 506.550857 
" style="fill:none;"/>
   </g>
   <g id="patch_25">
    <path d="M 144 590.482286 
L 1036.8 590.482286 
" style="fill:none;"/>
   </g>
   <g id="patch_26">
    <path d="M 144 506.550857 
L 1036.8 506.550857 
" style="fill:none;"/>
   </g>
   <g id="legend_5">
    <g id="line2d_96">
     <path d="M 943.114062 519.20867 
L 963.114062 519.20867 
" style="fill:none;stroke:#ccb974;stroke-linecap:round;stroke-width:1.75;"/>
    </g>
    <g id="line2d_97"/>
    <g id="text_16">
     <!-- humidityratio -->
     <g style="fill:#262626;" transform="translate(971.114062 522.70867)scale(0.1 -0.1)">
      <use xlink:href="#ArialMT-104"/>
      <use x="55.615234" xlink:href="#ArialMT-117"/>
      <use x="111.230469" xlink:href="#ArialMT-109"/>
      <use x="194.53125" xlink:href="#ArialMT-105"/>
      <use x="216.748047" xlink:href="#ArialMT-100"/>
      <use x="272.363281" xlink:href="#ArialMT-105"/>
      <use x="294.580078" xlink:href="#ArialMT-116"/>
      <use x="322.363281" xlink:href="#ArialMT-121"/>
      <use x="372.363281" xlink:href="#ArialMT-114"/>
      <use x="405.664062" xlink:href="#ArialMT-97"/>
      <use x="461.279297" xlink:href="#ArialMT-116"/>
      <use x="489.0625" xlink:href="#ArialMT-105"/>
      <use x="511.279297" xlink:href="#ArialMT-111"/>
     </g>
    </g>
   </g>
  </g>
  <g id="axes_6">
   <g id="patch_27">
    <path d="M 144 691.2 
L 1036.8 691.2 
L 1036.8 607.268571 
L 144 607.268571 
z
" style="fill:#eaeaf2;"/>
   </g>
   <g id="matplotlib.axis_11">
    <g id="xtick_31">
     <g id="line2d_98">
      <path clip-path="url(#pd52d44c057)" d="M 221.556364 691.2 
L 221.556364 607.268571 
" style="fill:none;stroke:#ffffff;stroke-linecap:round;"/>
     </g>
     <g id="line2d_99"/>
     <g id="text_17">
      <!-- 2015-02-05 -->
      <defs>
       <path d="M 3.171875 21.484375 
L 3.171875 30.328125 
L 30.171875 30.328125 
L 30.171875 21.484375 
z
" id="ArialMT-45"/>
      </defs>
      <g style="fill:#262626;" transform="translate(167.210472 736.326742)rotate(-30)scale(0.12 -0.12)">
       <use xlink:href="#ArialMT-50"/>
       <use x="55.615234" xlink:href="#ArialMT-48"/>
       <use x="111.230469" xlink:href="#ArialMT-49"/>
       <use x="166.845703" xlink:href="#ArialMT-53"/>
       <use x="222.460938" xlink:href="#ArialMT-45"/>
       <use x="255.761719" xlink:href="#ArialMT-48"/>
       <use x="311.376953" xlink:href="#ArialMT-50"/>
       <use x="366.992188" xlink:href="#ArialMT-45"/>
       <use x="400.292969" xlink:href="#ArialMT-48"/>
       <use x="455.908203" xlink:href="#ArialMT-53"/>
      </g>
     </g>
    </g>
    <g id="xtick_32">
     <g id="line2d_100">
      <path clip-path="url(#pd52d44c057)" d="M 365.847273 691.2 
L 365.847273 607.268571 
" style="fill:none;stroke:#ffffff;stroke-linecap:round;"/>
     </g>
     <g id="line2d_101"/>
     <g id="text_18">
      <!-- 2015-02-06 -->
      <g style="fill:#262626;" transform="translate(311.501381 736.326742)rotate(-30)scale(0.12 -0.12)">
       <use xlink:href="#ArialMT-50"/>
       <use x="55.615234" xlink:href="#ArialMT-48"/>
       <use x="111.230469" xlink:href="#ArialMT-49"/>
       <use x="166.845703" xlink:href="#ArialMT-53"/>
       <use x="222.460938" xlink:href="#ArialMT-45"/>
       <use x="255.761719" xlink:href="#ArialMT-48"/>
       <use x="311.376953" xlink:href="#ArialMT-50"/>
       <use x="366.992188" xlink:href="#ArialMT-45"/>
       <use x="400.292969" xlink:href="#ArialMT-48"/>
       <use x="455.908203" xlink:href="#ArialMT-54"/>
      </g>
     </g>
    </g>
    <g id="xtick_33">
     <g id="line2d_102">
      <path clip-path="url(#pd52d44c057)" d="M 510.138182 691.2 
L 510.138182 607.268571 
" style="fill:none;stroke:#ffffff;stroke-linecap:round;"/>
     </g>
     <g id="line2d_103"/>
     <g id="text_19">
      <!-- 2015-02-07 -->
      <defs>
       <path d="M 4.734375 62.203125 
L 4.734375 70.65625 
L 51.078125 70.65625 
L 51.078125 63.8125 
Q 44.234375 56.546875 37.515625 44.484375 
Q 30.8125 32.421875 27.15625 19.671875 
Q 24.515625 10.6875 23.78125 0 
L 14.75 0 
Q 14.890625 8.453125 18.0625 20.40625 
Q 21.234375 32.375 27.171875 43.484375 
Q 33.109375 54.59375 39.796875 62.203125 
z
" id="ArialMT-55"/>
      </defs>
      <g style="fill:#262626;" transform="translate(455.79229 736.326742)rotate(-30)scale(0.12 -0.12)">
       <use xlink:href="#ArialMT-50"/>
       <use x="55.615234" xlink:href="#ArialMT-48"/>
       <use x="111.230469" xlink:href="#ArialMT-49"/>
       <use x="166.845703" xlink:href="#ArialMT-53"/>
       <use x="222.460938" xlink:href="#ArialMT-45"/>
       <use x="255.761719" xlink:href="#ArialMT-48"/>
       <use x="311.376953" xlink:href="#ArialMT-50"/>
       <use x="366.992188" xlink:href="#ArialMT-45"/>
       <use x="400.292969" xlink:href="#ArialMT-48"/>
       <use x="455.908203" xlink:href="#ArialMT-55"/>
      </g>
     </g>
    </g>
    <g id="xtick_34">
     <g id="line2d_104">
      <path clip-path="url(#pd52d44c057)" d="M 654.429091 691.2 
L 654.429091 607.268571 
" style="fill:none;stroke:#ffffff;stroke-linecap:round;"/>
     </g>
     <g id="line2d_105"/>
     <g id="text_20">
      <!-- 2015-02-08 -->
      <defs>
       <path d="M 17.671875 38.8125 
Q 12.203125 40.828125 9.5625 44.53125 
Q 6.9375 48.25 6.9375 53.421875 
Q 6.9375 61.234375 12.546875 66.546875 
Q 18.171875 71.875 27.484375 71.875 
Q 36.859375 71.875 42.578125 66.421875 
Q 48.296875 60.984375 48.296875 53.171875 
Q 48.296875 48.1875 45.671875 44.5 
Q 43.0625 40.828125 37.75 38.8125 
Q 44.34375 36.671875 47.78125 31.875 
Q 51.21875 27.09375 51.21875 20.453125 
Q 51.21875 11.28125 44.71875 5.03125 
Q 38.234375 -1.21875 27.640625 -1.21875 
Q 17.046875 -1.21875 10.546875 5.046875 
Q 4.046875 11.328125 4.046875 20.703125 
Q 4.046875 27.6875 7.59375 32.390625 
Q 11.140625 37.109375 17.671875 38.8125 
z
M 15.921875 53.71875 
Q 15.921875 48.640625 19.1875 45.40625 
Q 22.46875 42.1875 27.6875 42.1875 
Q 32.765625 42.1875 36.015625 45.375 
Q 39.265625 48.578125 39.265625 53.21875 
Q 39.265625 58.0625 35.90625 61.359375 
Q 32.5625 64.65625 27.59375 64.65625 
Q 22.5625 64.65625 19.234375 61.421875 
Q 15.921875 58.203125 15.921875 53.71875 
z
M 13.09375 20.65625 
Q 13.09375 16.890625 14.875 13.375 
Q 16.65625 9.859375 20.171875 7.921875 
Q 23.6875 6 27.734375 6 
Q 34.03125 6 38.125 10.046875 
Q 42.234375 14.109375 42.234375 20.359375 
Q 42.234375 26.703125 38.015625 30.859375 
Q 33.796875 35.015625 27.4375 35.015625 
Q 21.234375 35.015625 17.15625 30.90625 
Q 13.09375 26.8125 13.09375 20.65625 
z
" id="ArialMT-56"/>
      </defs>
      <g style="fill:#262626;" transform="translate(600.083199 736.326742)rotate(-30)scale(0.12 -0.12)">
       <use xlink:href="#ArialMT-50"/>
       <use x="55.615234" xlink:href="#ArialMT-48"/>
       <use x="111.230469" xlink:href="#ArialMT-49"/>
       <use x="166.845703" xlink:href="#ArialMT-53"/>
       <use x="222.460938" xlink:href="#ArialMT-45"/>
       <use x="255.761719" xlink:href="#ArialMT-48"/>
       <use x="311.376953" xlink:href="#ArialMT-50"/>
       <use x="366.992188" xlink:href="#ArialMT-45"/>
       <use x="400.292969" xlink:href="#ArialMT-48"/>
       <use x="455.908203" xlink:href="#ArialMT-56"/>
      </g>
     </g>
    </g>
    <g id="xtick_35">
     <g id="line2d_106">
      <path clip-path="url(#pd52d44c057)" d="M 798.72 691.2 
L 798.72 607.268571 
" style="fill:none;stroke:#ffffff;stroke-linecap:round;"/>
     </g>
     <g id="line2d_107"/>
     <g id="text_21">
      <!-- 2015-02-09 -->
      <defs>
       <path d="M 5.46875 16.546875 
L 13.921875 17.328125 
Q 14.984375 11.375 18.015625 8.6875 
Q 21.046875 6 25.78125 6 
Q 29.828125 6 32.875 7.859375 
Q 35.9375 9.71875 37.890625 12.8125 
Q 39.84375 15.921875 41.15625 21.1875 
Q 42.484375 26.46875 42.484375 31.9375 
Q 42.484375 32.515625 42.4375 33.6875 
Q 39.796875 29.5 35.234375 26.875 
Q 30.671875 24.265625 25.34375 24.265625 
Q 16.453125 24.265625 10.296875 30.703125 
Q 4.15625 37.15625 4.15625 47.703125 
Q 4.15625 58.59375 10.578125 65.234375 
Q 17 71.875 26.65625 71.875 
Q 33.640625 71.875 39.421875 68.109375 
Q 45.21875 64.359375 48.21875 57.390625 
Q 51.21875 50.4375 51.21875 37.25 
Q 51.21875 23.53125 48.234375 15.40625 
Q 45.265625 7.28125 39.375 3.03125 
Q 33.5 -1.21875 25.59375 -1.21875 
Q 17.1875 -1.21875 11.859375 3.4375 
Q 6.546875 8.109375 5.46875 16.546875 
z
M 41.453125 48.140625 
Q 41.453125 55.71875 37.421875 60.15625 
Q 33.40625 64.59375 27.734375 64.59375 
Q 21.875 64.59375 17.53125 59.8125 
Q 13.1875 55.03125 13.1875 47.40625 
Q 13.1875 40.578125 17.3125 36.296875 
Q 21.4375 32.03125 27.484375 32.03125 
Q 33.59375 32.03125 37.515625 36.296875 
Q 41.453125 40.578125 41.453125 48.140625 
z
" id="ArialMT-57"/>
      </defs>
      <g style="fill:#262626;" transform="translate(744.374108 736.326742)rotate(-30)scale(0.12 -0.12)">
       <use xlink:href="#ArialMT-50"/>
       <use x="55.615234" xlink:href="#ArialMT-48"/>
       <use x="111.230469" xlink:href="#ArialMT-49"/>
       <use x="166.845703" xlink:href="#ArialMT-53"/>
       <use x="222.460938" xlink:href="#ArialMT-45"/>
       <use x="255.761719" xlink:href="#ArialMT-48"/>
       <use x="311.376953" xlink:href="#ArialMT-50"/>
       <use x="366.992188" xlink:href="#ArialMT-45"/>
       <use x="400.292969" xlink:href="#ArialMT-48"/>
       <use x="455.908203" xlink:href="#ArialMT-57"/>
      </g>
     </g>
    </g>
    <g id="xtick_36">
     <g id="line2d_108">
      <path clip-path="url(#pd52d44c057)" d="M 943.010909 691.2 
L 943.010909 607.268571 
" style="fill:none;stroke:#ffffff;stroke-linecap:round;"/>
     </g>
     <g id="line2d_109"/>
     <g id="text_22">
      <!-- 2015-02-10 -->
      <g style="fill:#262626;" transform="translate(888.665017 736.326742)rotate(-30)scale(0.12 -0.12)">
       <use xlink:href="#ArialMT-50"/>
       <use x="55.615234" xlink:href="#ArialMT-48"/>
       <use x="111.230469" xlink:href="#ArialMT-49"/>
       <use x="166.845703" xlink:href="#ArialMT-53"/>
       <use x="222.460938" xlink:href="#ArialMT-45"/>
       <use x="255.761719" xlink:href="#ArialMT-48"/>
       <use x="311.376953" xlink:href="#ArialMT-50"/>
       <use x="366.992188" xlink:href="#ArialMT-45"/>
       <use x="400.292969" xlink:href="#ArialMT-49"/>
       <use x="455.908203" xlink:href="#ArialMT-48"/>
      </g>
     </g>
    </g>
    <g id="text_23">
     <!-- date -->
     <g style="fill:#262626;" transform="translate(578.723437 750.981588)scale(0.12 -0.12)">
      <use xlink:href="#ArialMT-100"/>
      <use x="55.615234" xlink:href="#ArialMT-97"/>
      <use x="111.230469" xlink:href="#ArialMT-116"/>
      <use x="139.013672" xlink:href="#ArialMT-101"/>
     </g>
    </g>
   </g>
   <g id="matplotlib.axis_12">
    <g id="ytick_12">
     <g id="line2d_110">
      <path clip-path="url(#pd52d44c057)" d="M 144 687.384935 
L 1036.8 687.384935 
" style="fill:none;stroke:#ffffff;stroke-linecap:round;"/>
     </g>
     <g id="line2d_111"/>
     <g id="text_24">
      <!-- 0.0 -->
      <g style="fill:#262626;" transform="translate(120.32 691.679623)scale(0.12 -0.12)">
       <use xlink:href="#ArialMT-48"/>
       <use x="55.615234" xlink:href="#ArialMT-46"/>
       <use x="83.398438" xlink:href="#ArialMT-48"/>
      </g>
     </g>
    </g>
    <g id="ytick_13">
     <g id="line2d_112">
      <path clip-path="url(#pd52d44c057)" d="M 144 649.234286 
L 1036.8 649.234286 
" style="fill:none;stroke:#ffffff;stroke-linecap:round;"/>
     </g>
     <g id="line2d_113"/>
     <g id="text_25">
      <!-- 0.5 -->
      <g style="fill:#262626;" transform="translate(120.32 653.528973)scale(0.12 -0.12)">
       <use xlink:href="#ArialMT-48"/>
       <use x="55.615234" xlink:href="#ArialMT-46"/>
       <use x="83.398438" xlink:href="#ArialMT-53"/>
      </g>
     </g>
    </g>
    <g id="ytick_14">
     <g id="line2d_114">
      <path clip-path="url(#pd52d44c057)" d="M 144 611.083636 
L 1036.8 611.083636 
" style="fill:none;stroke:#ffffff;stroke-linecap:round;"/>
     </g>
     <g id="line2d_115"/>
     <g id="text_26">
      <!-- 1.0 -->
      <g style="fill:#262626;" transform="translate(120.32 615.378324)scale(0.12 -0.12)">
       <use xlink:href="#ArialMT-49"/>
       <use x="55.615234" xlink:href="#ArialMT-46"/>
       <use x="83.398438" xlink:href="#ArialMT-48"/>
      </g>
     </g>
    </g>
   </g>
   <g id="line2d_116">
    <path clip-path="url(#pd52d44c057)" d="M 184.581818 611.083636 
L 190.593939 687.384935 
L 262.739394 687.384935 
L 268.751515 611.083636 
L 298.812121 611.083636 
L 304.824242 687.384935 
L 310.836364 611.083636 
L 328.872727 611.083636 
L 334.884848 687.384935 
L 407.030303 687.384935 
L 413.042424 611.083636 
L 473.163636 611.083636 
L 479.175758 687.384935 
L 845.915151 687.384935 
L 851.927273 611.083636 
L 906.036364 611.083636 
L 912.048485 687.384935 
L 990.206061 687.384935 
L 996.218182 611.083636 
L 996.218182 611.083636 
" style="fill:none;stroke:#64b5cd;stroke-linecap:round;stroke-width:1.75;"/>
   </g>
   <g id="patch_28">
    <path d="M 144 691.2 
L 144 607.268571 
" style="fill:none;"/>
   </g>
   <g id="patch_29">
    <path d="M 1036.8 691.2 
L 1036.8 607.268571 
" style="fill:none;"/>
   </g>
   <g id="patch_30">
    <path d="M 144 691.2 
L 1036.8 691.2 
" style="fill:none;"/>
   </g>
   <g id="patch_31">
    <path d="M 144 607.268571 
L 1036.8 607.268571 
" style="fill:none;"/>
   </g>
   <g id="legend_6">
    <g id="line2d_117">
     <path d="M 552.497656 676.595312 
L 572.497656 676.595312 
" style="fill:none;stroke:#64b5cd;stroke-linecap:round;stroke-width:1.75;"/>
    </g>
    <g id="line2d_118"/>
    <g id="text_27">
     <!-- occupancy -->
     <defs>
      <path d="M 6.59375 0 
L 6.59375 51.859375 
L 14.5 51.859375 
L 14.5 44.484375 
Q 20.21875 53.03125 31 53.03125 
Q 35.6875 53.03125 39.625 51.34375 
Q 43.5625 49.65625 45.515625 46.921875 
Q 47.46875 44.1875 48.25 40.4375 
Q 48.734375 37.984375 48.734375 31.890625 
L 48.734375 0 
L 39.9375 0 
L 39.9375 31.546875 
Q 39.9375 36.921875 38.90625 39.578125 
Q 37.890625 42.234375 35.28125 43.8125 
Q 32.671875 45.40625 29.15625 45.40625 
Q 23.53125 45.40625 19.453125 41.84375 
Q 15.375 38.28125 15.375 28.328125 
L 15.375 0 
z
" id="ArialMT-110"/>
     </defs>
     <g style="fill:#262626;" transform="translate(580.497656 680.095312)scale(0.1 -0.1)">
      <use xlink:href="#ArialMT-111"/>
      <use x="55.615234" xlink:href="#ArialMT-99"/>
      <use x="105.615234" xlink:href="#ArialMT-99"/>
      <use x="155.615234" xlink:href="#ArialMT-117"/>
      <use x="211.230469" xlink:href="#ArialMT-112"/>
      <use x="266.845703" xlink:href="#ArialMT-97"/>
      <use x="322.460938" xlink:href="#ArialMT-110"/>
      <use x="378.076172" xlink:href="#ArialMT-99"/>
      <use x="428.076172" xlink:href="#ArialMT-121"/>
     </g>
    </g>
   </g>
  </g>
  <g id="text_28">
   <!-- Train features during observation (1h resample) -->
   <defs>
    <path d="M 25.921875 0 
L 25.921875 63.140625 
L 2.34375 63.140625 
L 2.34375 71.578125 
L 59.078125 71.578125 
L 59.078125 63.140625 
L 35.40625 63.140625 
L 35.40625 0 
z
" id="ArialMT-84"/>
    <path id="ArialMT-32"/>
    <path d="M 8.6875 0 
L 8.6875 45.015625 
L 0.921875 45.015625 
L 0.921875 51.859375 
L 8.6875 51.859375 
L 8.6875 57.375 
Q 8.6875 62.59375 9.625 65.140625 
Q 10.890625 68.5625 14.078125 70.671875 
Q 17.28125 72.796875 23.046875 72.796875 
Q 26.765625 72.796875 31.25 71.921875 
L 29.9375 64.265625 
Q 27.203125 64.75 24.75 64.75 
Q 20.75 64.75 19.09375 63.03125 
Q 17.4375 61.328125 17.4375 56.640625 
L 17.4375 51.859375 
L 27.546875 51.859375 
L 27.546875 45.015625 
L 17.4375 45.015625 
L 17.4375 0 
z
" id="ArialMT-102"/>
    <path d="M 3.078125 15.484375 
L 11.765625 16.84375 
Q 12.5 11.625 15.84375 8.84375 
Q 19.1875 6.0625 25.203125 6.0625 
Q 31.25 6.0625 34.171875 8.515625 
Q 37.109375 10.984375 37.109375 14.3125 
Q 37.109375 17.28125 34.515625 19 
Q 32.71875 20.171875 25.53125 21.96875 
Q 15.875 24.421875 12.140625 26.203125 
Q 8.40625 27.984375 6.46875 31.125 
Q 4.546875 34.28125 4.546875 38.09375 
Q 4.546875 41.546875 6.125 44.5 
Q 7.71875 47.46875 10.453125 49.421875 
Q 12.5 50.921875 16.03125 51.96875 
Q 19.578125 53.03125 23.640625 53.03125 
Q 29.734375 53.03125 34.34375 51.265625 
Q 38.96875 49.515625 41.15625 46.5 
Q 43.359375 43.5 44.1875 38.484375 
L 35.59375 37.3125 
Q 35.015625 41.3125 32.203125 43.546875 
Q 29.390625 45.796875 24.265625 45.796875 
Q 18.21875 45.796875 15.625 43.796875 
Q 13.03125 41.796875 13.03125 39.109375 
Q 13.03125 37.40625 14.109375 36.03125 
Q 15.1875 34.625 17.484375 33.6875 
Q 18.796875 33.203125 25.25 31.453125 
Q 34.578125 28.953125 38.25 27.359375 
Q 41.9375 25.78125 44.03125 22.75 
Q 46.140625 19.734375 46.140625 15.234375 
Q 46.140625 10.84375 43.578125 6.953125 
Q 41.015625 3.078125 36.171875 0.953125 
Q 31.34375 -1.171875 25.25 -1.171875 
Q 15.140625 -1.171875 9.84375 3.03125 
Q 4.546875 7.234375 3.078125 15.484375 
z
" id="ArialMT-115"/>
    <path d="M 14.703125 0 
L 6.546875 0 
L 6.546875 71.578125 
L 15.328125 71.578125 
L 15.328125 46.046875 
Q 20.90625 53.03125 29.546875 53.03125 
Q 34.328125 53.03125 38.59375 51.09375 
Q 42.875 49.171875 45.625 45.671875 
Q 48.390625 42.1875 49.953125 37.25 
Q 51.515625 32.328125 51.515625 26.703125 
Q 51.515625 13.375 44.921875 6.09375 
Q 38.328125 -1.171875 29.109375 -1.171875 
Q 19.921875 -1.171875 14.703125 6.5 
z
M 14.59375 26.3125 
Q 14.59375 17 17.140625 12.84375 
Q 21.296875 6.0625 28.375 6.0625 
Q 34.125 6.0625 38.328125 11.0625 
Q 42.53125 16.0625 42.53125 25.984375 
Q 42.53125 36.140625 38.5 40.96875 
Q 34.46875 45.796875 28.765625 45.796875 
Q 23 45.796875 18.796875 40.796875 
Q 14.59375 35.796875 14.59375 26.3125 
z
" id="ArialMT-98"/>
    <path d="M 21 0 
L 1.265625 51.859375 
L 10.546875 51.859375 
L 21.6875 20.796875 
Q 23.484375 15.765625 25 10.359375 
Q 26.171875 14.453125 28.265625 20.21875 
L 39.796875 51.859375 
L 48.828125 51.859375 
L 29.203125 0 
z
" id="ArialMT-118"/>
    <path d="M 23.390625 -21.046875 
Q 16.109375 -11.859375 11.078125 0.4375 
Q 6.0625 12.75 6.0625 25.921875 
Q 6.0625 37.546875 9.8125 48.1875 
Q 14.203125 60.546875 23.390625 72.796875 
L 29.6875 72.796875 
Q 23.78125 62.640625 21.875 58.296875 
Q 18.890625 51.5625 17.1875 44.234375 
Q 15.09375 35.109375 15.09375 25.875 
Q 15.09375 2.390625 29.6875 -21.046875 
z
" id="ArialMT-40"/>
    <path d="M 12.359375 -21.046875 
L 6.0625 -21.046875 
Q 20.65625 2.390625 20.65625 25.875 
Q 20.65625 35.0625 18.5625 44.09375 
Q 16.890625 51.421875 13.921875 58.15625 
Q 12.015625 62.546875 6.0625 72.796875 
L 12.359375 72.796875 
Q 21.53125 60.546875 25.921875 48.1875 
Q 29.6875 37.546875 29.6875 25.921875 
Q 29.6875 12.75 24.625 0.4375 
Q 19.578125 -11.859375 12.359375 -21.046875 
z
" id="ArialMT-41"/>
   </defs>
   <g style="fill:#262626;" transform="translate(449.28375 26.015625)scale(0.12 -0.12)">
    <use xlink:href="#ArialMT-84"/>
    <use x="61.037109" xlink:href="#ArialMT-114"/>
    <use x="94.337891" xlink:href="#ArialMT-97"/>
    <use x="149.953125" xlink:href="#ArialMT-105"/>
    <use x="172.169922" xlink:href="#ArialMT-110"/>
    <use x="227.785156" xlink:href="#ArialMT-32"/>
    <use x="255.568359" xlink:href="#ArialMT-102"/>
    <use x="283.351562" xlink:href="#ArialMT-101"/>
    <use x="338.966797" xlink:href="#ArialMT-97"/>
    <use x="394.582031" xlink:href="#ArialMT-116"/>
    <use x="422.365234" xlink:href="#ArialMT-117"/>
    <use x="477.980469" xlink:href="#ArialMT-114"/>
    <use x="511.28125" xlink:href="#ArialMT-101"/>
    <use x="566.896484" xlink:href="#ArialMT-115"/>
    <use x="616.896484" xlink:href="#ArialMT-32"/>
    <use x="644.679688" xlink:href="#ArialMT-100"/>
    <use x="700.294922" xlink:href="#ArialMT-117"/>
    <use x="755.910156" xlink:href="#ArialMT-114"/>
    <use x="789.210938" xlink:href="#ArialMT-105"/>
    <use x="811.427734" xlink:href="#ArialMT-110"/>
    <use x="867.042969" xlink:href="#ArialMT-103"/>
    <use x="922.658203" xlink:href="#ArialMT-32"/>
    <use x="950.441406" xlink:href="#ArialMT-111"/>
    <use x="1006.056641" xlink:href="#ArialMT-98"/>
    <use x="1061.671875" xlink:href="#ArialMT-115"/>
    <use x="1111.671875" xlink:href="#ArialMT-101"/>
    <use x="1167.287109" xlink:href="#ArialMT-114"/>
    <use x="1200.587891" xlink:href="#ArialMT-118"/>
    <use x="1250.587891" xlink:href="#ArialMT-97"/>
    <use x="1306.203125" xlink:href="#ArialMT-116"/>
    <use x="1333.986328" xlink:href="#ArialMT-105"/>
    <use x="1356.203125" xlink:href="#ArialMT-111"/>
    <use x="1411.818359" xlink:href="#ArialMT-110"/>
    <use x="1467.433594" xlink:href="#ArialMT-32"/>
    <use x="1495.216797" xlink:href="#ArialMT-40"/>
    <use x="1528.517578" xlink:href="#ArialMT-49"/>
    <use x="1584.132812" xlink:href="#ArialMT-104"/>
    <use x="1639.748047" xlink:href="#ArialMT-32"/>
    <use x="1667.53125" xlink:href="#ArialMT-114"/>
    <use x="1700.832031" xlink:href="#ArialMT-101"/>
    <use x="1756.447266" xlink:href="#ArialMT-115"/>
    <use x="1806.447266" xlink:href="#ArialMT-97"/>
    <use x="1862.0625" xlink:href="#ArialMT-109"/>
    <use x="1945.363281" xlink:href="#ArialMT-112"/>
    <use x="2000.978516" xlink:href="#ArialMT-108"/>
    <use x="2023.195312" xlink:href="#ArialMT-101"/>
    <use x="2078.810547" xlink:href="#ArialMT-41"/>
   </g>
  </g>
 </g>
 <defs>
  <clipPath id="p48e0b0d317">
   <rect height="83.931429" width="892.8" x="144" y="103.68"/>
  </clipPath>
  <clipPath id="p50cc31d4a4">
   <rect height="83.931429" width="892.8" x="144" y="204.397714"/>
  </clipPath>
  <clipPath id="pecab56a88f">
   <rect height="83.931429" width="892.8" x="144" y="305.115429"/>
  </clipPath>
  <clipPath id="pa04679b410">
   <rect height="83.931429" width="892.8" x="144" y="405.833143"/>
  </clipPath>
  <clipPath id="p702e976967">
   <rect height="83.931429" width="892.8" x="144" y="506.550857"/>
  </clipPath>
  <clipPath id="pd52d44c057">
   <rect height="83.931429" width="892.8" x="144" y="607.268571"/>
  </clipPath>
 </defs>
</svg>
