<?xml version="1.0" encoding="utf-8" standalone="no"?>
<!DOCTYPE svg PUBLIC "-//W3C//DTD SVG 1.1//EN"
  "http://www.w3.org/Graphics/SVG/1.1/DTD/svg11.dtd">
<!-- Created with matplotlib (https://matplotlib.org/) -->
<svg height="864pt" version="1.1" viewBox="0 0 1152 864" width="1152pt" xmlns="http://www.w3.org/2000/svg" xmlns:xlink="http://www.w3.org/1999/xlink">
 <defs>
  <style type="text/css">
*{stroke-linecap:butt;stroke-linejoin:round;}
  </style>
 </defs>
 <g id="figure_1">
  <g id="patch_1">
   <path d="M 0 864 
L 1152 864 
L 1152 0 
L 0 0 
z
" style="fill:#ffffff;"/>
  </g>
  <g id="axes_1">
   <g id="patch_2">
    <path d="M 144 187.611429 
L 1036.8 187.611429 
L 1036.8 103.68 
L 144 103.68 
z
" style="fill:#ffffff;"/>
   </g>
   <g id="matplotlib.axis_1">
    <g id="xtick_1">
     <g id="line2d_1">
      <defs>
       <path d="M 0 0 
L 0 3.5 
" id="m841e4e5583" style="stroke:#000000;stroke-width:0.8;"/>
      </defs>
      <g>
       <use style="stroke:#000000;stroke-width:0.8;" x="221.556364" xlink:href="#m841e4e5583" y="187.611429"/>
      </g>
     </g>
    </g>
    <g id="xtick_2">
     <g id="line2d_2">
      <g>
       <use style="stroke:#000000;stroke-width:0.8;" x="365.847273" xlink:href="#m841e4e5583" y="187.611429"/>
      </g>
     </g>
    </g>
    <g id="xtick_3">
     <g id="line2d_3">
      <g>
       <use style="stroke:#000000;stroke-width:0.8;" x="510.138182" xlink:href="#m841e4e5583" y="187.611429"/>
      </g>
     </g>
    </g>
    <g id="xtick_4">
     <g id="line2d_4">
      <g>
       <use style="stroke:#000000;stroke-width:0.8;" x="654.429091" xlink:href="#m841e4e5583" y="187.611429"/>
      </g>
     </g>
    </g>
    <g id="xtick_5">
     <g id="line2d_5">
      <g>
       <use style="stroke:#000000;stroke-width:0.8;" x="798.72" xlink:href="#m841e4e5583" y="187.611429"/>
      </g>
     </g>
    </g>
    <g id="xtick_6">
     <g id="line2d_6">
      <g>
       <use style="stroke:#000000;stroke-width:0.8;" x="943.010909" xlink:href="#m841e4e5583" y="187.611429"/>
      </g>
     </g>
    </g>
   </g>
   <g id="matplotlib.axis_2">
    <g id="ytick_1">
     <g id="line2d_7">
      <defs>
       <path d="M 0 0 
L -3.5 0 
" id="mbc3915e05e" style="stroke:#000000;stroke-width:0.8;"/>
      </defs>
      <g>
       <use style="stroke:#000000;stroke-width:0.8;" x="144" xlink:href="#mbc3915e05e" y="166.965195"/>
      </g>
     </g>
     <g id="text_1">
      <!-- 20 -->
      <defs>
       <path d="M 19.1875 8.296875 
L 53.609375 8.296875 
L 53.609375 0 
L 7.328125 0 
L 7.328125 8.296875 
Q 12.9375 14.109375 22.625 23.890625 
Q 32.328125 33.6875 34.8125 36.53125 
Q 39.546875 41.84375 41.421875 45.53125 
Q 43.3125 49.21875 43.3125 52.78125 
Q 43.3125 58.59375 39.234375 62.25 
Q 35.15625 65.921875 28.609375 65.921875 
Q 23.96875 65.921875 18.8125 64.3125 
Q 13.671875 62.703125 7.8125 59.421875 
L 7.8125 69.390625 
Q 13.765625 71.78125 18.9375 73 
Q 24.125 74.21875 28.421875 74.21875 
Q 39.75 74.21875 46.484375 68.546875 
Q 53.21875 62.890625 53.21875 53.421875 
Q 53.21875 48.921875 51.53125 44.890625 
Q 49.859375 40.875 45.40625 35.40625 
Q 44.1875 33.984375 37.640625 27.21875 
Q 31.109375 20.453125 19.1875 8.296875 
z
" id="DejaVuSans-50"/>
       <path d="M 31.78125 66.40625 
Q 24.171875 66.40625 20.328125 58.90625 
Q 16.5 51.421875 16.5 36.375 
Q 16.5 21.390625 20.328125 13.890625 
Q 24.171875 6.390625 31.78125 6.390625 
Q 39.453125 6.390625 43.28125 13.890625 
Q 47.125 21.390625 47.125 36.375 
Q 47.125 51.421875 43.28125 58.90625 
Q 39.453125 66.40625 31.78125 66.40625 
z
M 31.78125 74.21875 
Q 44.046875 74.21875 50.515625 64.515625 
Q 56.984375 54.828125 56.984375 36.375 
Q 56.984375 17.96875 50.515625 8.265625 
Q 44.046875 -1.421875 31.78125 -1.421875 
Q 19.53125 -1.421875 13.0625 8.265625 
Q 6.59375 17.96875 6.59375 36.375 
Q 6.59375 54.828125 13.0625 64.515625 
Q 19.53125 74.21875 31.78125 74.21875 
z
" id="DejaVuSans-48"/>
      </defs>
      <g transform="translate(121.73 171.524257)scale(0.12 -0.12)">
       <use xlink:href="#DejaVuSans-50"/>
       <use x="63.623047" xlink:href="#DejaVuSans-48"/>
      </g>
     </g>
    </g>
    <g id="ytick_2">
     <g id="line2d_8">
      <g>
       <use style="stroke:#000000;stroke-width:0.8;" x="144" xlink:href="#mbc3915e05e" y="129.562597"/>
      </g>
     </g>
     <g id="text_2">
      <!-- 22 -->
      <g transform="translate(121.73 134.12166)scale(0.12 -0.12)">
       <use xlink:href="#DejaVuSans-50"/>
       <use x="63.623047" xlink:href="#DejaVuSans-50"/>
      </g>
     </g>
    </g>
   </g>
   <g id="line2d_9">
    <path clip-path="url(#pec98e7bf12)" d="M 184.581818 107.495065 
L 190.593939 123.204156 
L 196.606061 131.61974 
L 202.618182 137.043117 
L 214.642424 142.840519 
L 220.654545 144.523636 
L 226.666667 147.328831 
L 232.678788 145.926234 
L 238.690909 147.640519 
L 244.70303 148.263896 
L 250.715151 148.263896 
L 256.727273 151.256104 
L 262.739394 153.874286 
L 268.751515 150.321039 
L 274.763636 140.97039 
L 280.775758 127.692468 
L 286.787879 128.627532 
L 292.8 125.822338 
L 298.812121 118.341818 
L 304.824242 124.139221 
L 310.836364 122.269091 
L 316.848485 120.211948 
L 322.860606 123.204156 
L 328.872727 127.069091 
L 334.884848 142.840519 
L 340.89697 146.393766 
L 346.909091 148.263896 
L 352.921212 153.874286 
L 358.933333 156.991169 
L 364.945455 162.383377 
L 370.957576 161.541818 
L 376.969697 157.614545 
L 388.993939 159.671688 
L 395.006061 159.671688 
L 401.018182 161.541818 
L 407.030303 161.541818 
L 413.042424 164.16 
L 419.054545 150.788571 
L 425.066667 142.372987 
L 431.078788 135.172987 
L 437.090909 136.108052 
L 443.10303 135.172987 
L 449.115151 135.172987 
L 455.127273 127.069091 
L 461.139394 127.692468 
L 467.151515 133.910649 
L 473.163636 135.172987 
L 479.175758 150.321039 
L 485.187879 157.614545 
L 491.2 163.224935 
L 497.212121 163.224935 
L 503.224242 166.965195 
L 509.236364 167.993766 
L 515.248485 166.965195 
L 521.260606 169.022338 
L 527.272727 169.022338 
L 533.284848 170.892468 
L 539.29697 171.734026 
L 545.309091 170.892468 
L 551.321212 170.892468 
L 557.333333 172.575584 
L 563.345455 173.198961 
L 575.369697 127.692468 
L 581.381818 115.34961 
L 587.393939 108.991169 
L 593.406061 115.910649 
L 599.418182 126.28987 
L 605.430303 140.97039 
L 611.442424 153.874286 
L 617.454545 159.671688 
L 623.466667 165.095065 
L 629.478788 166.965195 
L 635.490909 169.022338 
L 641.50303 170.892468 
L 647.515151 172.575584 
L 653.527273 173.510649 
L 659.539394 175.380779 
L 665.551515 176.315844 
L 671.563636 178.372987 
L 677.575758 178.372987 
L 683.587879 180.243117 
L 689.6 179.308052 
L 695.612121 181.926234 
L 707.636364 181.926234 
L 713.648485 177.858701 
L 725.672727 183.796364 
L 731.684848 164.471688 
L 737.69697 154.341818 
L 743.709091 160.606753 
L 749.721212 169.022338 
L 755.733333 176.315844 
L 761.745455 178.372987 
L 767.757576 180.243117 
L 779.781818 178.372987 
L 785.793939 176.315844 
L 797.818182 176.315844 
L 803.830303 178.372987 
L 809.842424 179.308052 
L 815.854545 178.372987 
L 821.866667 178.372987 
L 827.878788 180.243117 
L 833.890909 178.372987 
L 839.90303 179.308052 
L 845.915151 176.315844 
L 851.927273 174.913247 
L 857.939394 157.614545 
L 863.951515 148.263896 
L 869.963636 140.97039 
L 875.975758 138.913247 
L 881.987879 143.682078 
L 888 132.554805 
L 894.012121 130.248312 
L 900.024242 127.692468 
L 906.036364 127.692468 
L 912.048485 142.840519 
L 918.060606 154.497662 
L 924.072727 157.614545 
L 936.09697 157.614545 
L 942.109091 159.671688 
L 948.121212 161.541818 
L 960.145455 161.541818 
L 966.157576 163.224935 
L 972.169697 164.471688 
L 978.181818 165.095065 
L 984.193939 161.541818 
L 990.206061 161.541818 
L 996.218182 157.614545 
L 996.218182 157.614545 
" style="fill:none;stroke:#0072b2;stroke-linecap:square;stroke-width:1.5;"/>
   </g>
   <g id="patch_3">
    <path d="M 144 187.611429 
L 144 103.68 
" style="fill:none;stroke:#000000;stroke-linecap:square;stroke-linejoin:miter;stroke-width:0.8;"/>
   </g>
   <g id="patch_4">
    <path d="M 1036.8 187.611429 
L 1036.8 103.68 
" style="fill:none;stroke:#000000;stroke-linecap:square;stroke-linejoin:miter;stroke-width:0.8;"/>
   </g>
   <g id="patch_5">
    <path d="M 144 187.611429 
L 1036.8 187.611429 
" style="fill:none;stroke:#000000;stroke-linecap:square;stroke-linejoin:miter;stroke-width:0.8;"/>
   </g>
   <g id="patch_6">
    <path d="M 144 103.68 
L 1036.8 103.68 
" style="fill:none;stroke:#000000;stroke-linecap:square;stroke-linejoin:miter;stroke-width:0.8;"/>
   </g>
   <g id="legend_1">
    <g id="patch_7">
     <path d="M 934.726562 126.358125 
L 1029.8 126.358125 
Q 1031.8 126.358125 1031.8 124.358125 
L 1031.8 110.68 
Q 1031.8 108.68 1029.8 108.68 
L 934.726562 108.68 
Q 932.726562 108.68 932.726562 110.68 
L 932.726562 124.358125 
Q 932.726562 126.358125 934.726562 126.358125 
z
" style="fill:#ffffff;opacity:0.8;stroke:#cccccc;stroke-linejoin:miter;"/>
    </g>
    <g id="line2d_10">
     <path d="M 936.726562 116.778437 
L 956.726562 116.778437 
" style="fill:none;stroke:#0072b2;stroke-linecap:square;stroke-width:1.5;"/>
    </g>
    <g id="line2d_11"/>
    <g id="text_3">
     <!-- temperature -->
     <defs>
      <path d="M 18.3125 70.21875 
L 18.3125 54.6875 
L 36.8125 54.6875 
L 36.8125 47.703125 
L 18.3125 47.703125 
L 18.3125 18.015625 
Q 18.3125 11.328125 20.140625 9.421875 
Q 21.96875 7.515625 27.59375 7.515625 
L 36.8125 7.515625 
L 36.8125 0 
L 27.59375 0 
Q 17.1875 0 13.234375 3.875 
Q 9.28125 7.765625 9.28125 18.015625 
L 9.28125 47.703125 
L 2.6875 47.703125 
L 2.6875 54.6875 
L 9.28125 54.6875 
L 9.28125 70.21875 
z
" id="DejaVuSans-116"/>
      <path d="M 56.203125 29.59375 
L 56.203125 25.203125 
L 14.890625 25.203125 
Q 15.484375 15.921875 20.484375 11.0625 
Q 25.484375 6.203125 34.421875 6.203125 
Q 39.59375 6.203125 44.453125 7.46875 
Q 49.3125 8.734375 54.109375 11.28125 
L 54.109375 2.78125 
Q 49.265625 0.734375 44.1875 -0.34375 
Q 39.109375 -1.421875 33.890625 -1.421875 
Q 20.796875 -1.421875 13.15625 6.1875 
Q 5.515625 13.8125 5.515625 26.8125 
Q 5.515625 40.234375 12.765625 48.109375 
Q 20.015625 56 32.328125 56 
Q 43.359375 56 49.78125 48.890625 
Q 56.203125 41.796875 56.203125 29.59375 
z
M 47.21875 32.234375 
Q 47.125 39.59375 43.09375 43.984375 
Q 39.0625 48.390625 32.421875 48.390625 
Q 24.90625 48.390625 20.390625 44.140625 
Q 15.875 39.890625 15.1875 32.171875 
z
" id="DejaVuSans-101"/>
      <path d="M 52 44.1875 
Q 55.375 50.25 60.0625 53.125 
Q 64.75 56 71.09375 56 
Q 79.640625 56 84.28125 50.015625 
Q 88.921875 44.046875 88.921875 33.015625 
L 88.921875 0 
L 79.890625 0 
L 79.890625 32.71875 
Q 79.890625 40.578125 77.09375 44.375 
Q 74.3125 48.1875 68.609375 48.1875 
Q 61.625 48.1875 57.5625 43.546875 
Q 53.515625 38.921875 53.515625 30.90625 
L 53.515625 0 
L 44.484375 0 
L 44.484375 32.71875 
Q 44.484375 40.625 41.703125 44.40625 
Q 38.921875 48.1875 33.109375 48.1875 
Q 26.21875 48.1875 22.15625 43.53125 
Q 18.109375 38.875 18.109375 30.90625 
L 18.109375 0 
L 9.078125 0 
L 9.078125 54.6875 
L 18.109375 54.6875 
L 18.109375 46.1875 
Q 21.1875 51.21875 25.484375 53.609375 
Q 29.78125 56 35.6875 56 
Q 41.65625 56 45.828125 52.96875 
Q 50 49.953125 52 44.1875 
z
" id="DejaVuSans-109"/>
      <path d="M 18.109375 8.203125 
L 18.109375 -20.796875 
L 9.078125 -20.796875 
L 9.078125 54.6875 
L 18.109375 54.6875 
L 18.109375 46.390625 
Q 20.953125 51.265625 25.265625 53.625 
Q 29.59375 56 35.59375 56 
Q 45.5625 56 51.78125 48.09375 
Q 58.015625 40.1875 58.015625 27.296875 
Q 58.015625 14.40625 51.78125 6.484375 
Q 45.5625 -1.421875 35.59375 -1.421875 
Q 29.59375 -1.421875 25.265625 0.953125 
Q 20.953125 3.328125 18.109375 8.203125 
z
M 48.6875 27.296875 
Q 48.6875 37.203125 44.609375 42.84375 
Q 40.53125 48.484375 33.40625 48.484375 
Q 26.265625 48.484375 22.1875 42.84375 
Q 18.109375 37.203125 18.109375 27.296875 
Q 18.109375 17.390625 22.1875 11.75 
Q 26.265625 6.109375 33.40625 6.109375 
Q 40.53125 6.109375 44.609375 11.75 
Q 48.6875 17.390625 48.6875 27.296875 
z
" id="DejaVuSans-112"/>
      <path d="M 41.109375 46.296875 
Q 39.59375 47.171875 37.8125 47.578125 
Q 36.03125 48 33.890625 48 
Q 26.265625 48 22.1875 43.046875 
Q 18.109375 38.09375 18.109375 28.8125 
L 18.109375 0 
L 9.078125 0 
L 9.078125 54.6875 
L 18.109375 54.6875 
L 18.109375 46.1875 
Q 20.953125 51.171875 25.484375 53.578125 
Q 30.03125 56 36.53125 56 
Q 37.453125 56 38.578125 55.875 
Q 39.703125 55.765625 41.0625 55.515625 
z
" id="DejaVuSans-114"/>
      <path d="M 34.28125 27.484375 
Q 23.390625 27.484375 19.1875 25 
Q 14.984375 22.515625 14.984375 16.5 
Q 14.984375 11.71875 18.140625 8.90625 
Q 21.296875 6.109375 26.703125 6.109375 
Q 34.1875 6.109375 38.703125 11.40625 
Q 43.21875 16.703125 43.21875 25.484375 
L 43.21875 27.484375 
z
M 52.203125 31.203125 
L 52.203125 0 
L 43.21875 0 
L 43.21875 8.296875 
Q 40.140625 3.328125 35.546875 0.953125 
Q 30.953125 -1.421875 24.3125 -1.421875 
Q 15.921875 -1.421875 10.953125 3.296875 
Q 6 8.015625 6 15.921875 
Q 6 25.140625 12.171875 29.828125 
Q 18.359375 34.515625 30.609375 34.515625 
L 43.21875 34.515625 
L 43.21875 35.40625 
Q 43.21875 41.609375 39.140625 45 
Q 35.0625 48.390625 27.6875 48.390625 
Q 23 48.390625 18.546875 47.265625 
Q 14.109375 46.140625 10.015625 43.890625 
L 10.015625 52.203125 
Q 14.9375 54.109375 19.578125 55.046875 
Q 24.21875 56 28.609375 56 
Q 40.484375 56 46.34375 49.84375 
Q 52.203125 43.703125 52.203125 31.203125 
z
" id="DejaVuSans-97"/>
      <path d="M 8.5 21.578125 
L 8.5 54.6875 
L 17.484375 54.6875 
L 17.484375 21.921875 
Q 17.484375 14.15625 20.5 10.265625 
Q 23.53125 6.390625 29.59375 6.390625 
Q 36.859375 6.390625 41.078125 11.03125 
Q 45.3125 15.671875 45.3125 23.6875 
L 45.3125 54.6875 
L 54.296875 54.6875 
L 54.296875 0 
L 45.3125 0 
L 45.3125 8.40625 
Q 42.046875 3.421875 37.71875 1 
Q 33.40625 -1.421875 27.6875 -1.421875 
Q 18.265625 -1.421875 13.375 4.4375 
Q 8.5 10.296875 8.5 21.578125 
z
M 31.109375 56 
z
" id="DejaVuSans-117"/>
     </defs>
     <g transform="translate(964.726562 120.278437)scale(0.1 -0.1)">
      <use xlink:href="#DejaVuSans-116"/>
      <use x="39.208984" xlink:href="#DejaVuSans-101"/>
      <use x="100.732422" xlink:href="#DejaVuSans-109"/>
      <use x="198.144531" xlink:href="#DejaVuSans-112"/>
      <use x="261.621094" xlink:href="#DejaVuSans-101"/>
      <use x="323.144531" xlink:href="#DejaVuSans-114"/>
      <use x="364.257812" xlink:href="#DejaVuSans-97"/>
      <use x="425.537109" xlink:href="#DejaVuSans-116"/>
      <use x="464.746094" xlink:href="#DejaVuSans-117"/>
      <use x="528.125" xlink:href="#DejaVuSans-114"/>
      <use x="569.207031" xlink:href="#DejaVuSans-101"/>
     </g>
    </g>
   </g>
  </g>
  <g id="axes_2">
   <g id="patch_8">
    <path d="M 144 288.329143 
L 1036.8 288.329143 
L 1036.8 204.397714 
L 144 204.397714 
z
" style="fill:#ffffff;"/>
   </g>
   <g id="matplotlib.axis_3">
    <g id="xtick_7">
     <g id="line2d_12">
      <g>
       <use style="stroke:#000000;stroke-width:0.8;" x="221.556364" xlink:href="#m841e4e5583" y="288.329143"/>
      </g>
     </g>
    </g>
    <g id="xtick_8">
     <g id="line2d_13">
      <g>
       <use style="stroke:#000000;stroke-width:0.8;" x="365.847273" xlink:href="#m841e4e5583" y="288.329143"/>
      </g>
     </g>
    </g>
    <g id="xtick_9">
     <g id="line2d_14">
      <g>
       <use style="stroke:#000000;stroke-width:0.8;" x="510.138182" xlink:href="#m841e4e5583" y="288.329143"/>
      </g>
     </g>
    </g>
    <g id="xtick_10">
     <g id="line2d_15">
      <g>
       <use style="stroke:#000000;stroke-width:0.8;" x="654.429091" xlink:href="#m841e4e5583" y="288.329143"/>
      </g>
     </g>
    </g>
    <g id="xtick_11">
     <g id="line2d_16">
      <g>
       <use style="stroke:#000000;stroke-width:0.8;" x="798.72" xlink:href="#m841e4e5583" y="288.329143"/>
      </g>
     </g>
    </g>
    <g id="xtick_12">
     <g id="line2d_17">
      <g>
       <use style="stroke:#000000;stroke-width:0.8;" x="943.010909" xlink:href="#m841e4e5583" y="288.329143"/>
      </g>
     </g>
    </g>
   </g>
   <g id="matplotlib.axis_4">
    <g id="ytick_3">
     <g id="line2d_18">
      <g>
       <use style="stroke:#000000;stroke-width:0.8;" x="144" xlink:href="#mbc3915e05e" y="274.109887"/>
      </g>
     </g>
     <g id="text_4">
      <!-- 20 -->
      <g transform="translate(121.73 278.668949)scale(0.12 -0.12)">
       <use xlink:href="#DejaVuSans-50"/>
       <use x="63.623047" xlink:href="#DejaVuSans-48"/>
      </g>
     </g>
    </g>
    <g id="ytick_4">
     <g id="line2d_19">
      <g>
       <use style="stroke:#000000;stroke-width:0.8;" x="144" xlink:href="#mbc3915e05e" y="239.039579"/>
      </g>
     </g>
     <g id="text_5">
      <!-- 30 -->
      <defs>
       <path d="M 40.578125 39.3125 
Q 47.65625 37.796875 51.625 33 
Q 55.609375 28.21875 55.609375 21.1875 
Q 55.609375 10.40625 48.1875 4.484375 
Q 40.765625 -1.421875 27.09375 -1.421875 
Q 22.515625 -1.421875 17.65625 -0.515625 
Q 12.796875 0.390625 7.625 2.203125 
L 7.625 11.71875 
Q 11.71875 9.328125 16.59375 8.109375 
Q 21.484375 6.890625 26.8125 6.890625 
Q 36.078125 6.890625 40.9375 10.546875 
Q 45.796875 14.203125 45.796875 21.1875 
Q 45.796875 27.640625 41.28125 31.265625 
Q 36.765625 34.90625 28.71875 34.90625 
L 20.21875 34.90625 
L 20.21875 43.015625 
L 29.109375 43.015625 
Q 36.375 43.015625 40.234375 45.921875 
Q 44.09375 48.828125 44.09375 54.296875 
Q 44.09375 59.90625 40.109375 62.90625 
Q 36.140625 65.921875 28.71875 65.921875 
Q 24.65625 65.921875 20.015625 65.03125 
Q 15.375 64.15625 9.8125 62.3125 
L 9.8125 71.09375 
Q 15.4375 72.65625 20.34375 73.4375 
Q 25.25 74.21875 29.59375 74.21875 
Q 40.828125 74.21875 47.359375 69.109375 
Q 53.90625 64.015625 53.90625 55.328125 
Q 53.90625 49.265625 50.4375 45.09375 
Q 46.96875 40.921875 40.578125 39.3125 
z
" id="DejaVuSans-51"/>
      </defs>
      <g transform="translate(121.73 243.598642)scale(0.12 -0.12)">
       <use xlink:href="#DejaVuSans-51"/>
       <use x="63.623047" xlink:href="#DejaVuSans-48"/>
      </g>
     </g>
    </g>
   </g>
   <g id="line2d_20">
    <path clip-path="url(#pa9c786ede3)" d="M 184.581818 248.606759 
L 190.593939 248.19293 
L 196.606061 249.209969 
L 202.618182 251.507074 
L 208.630303 253.961995 
L 214.642424 254.119812 
L 220.654545 255.557694 
L 226.666667 255.014104 
L 232.678788 256.22403 
L 238.690909 257.194308 
L 244.70303 258.714022 
L 250.715151 260.81824 
L 256.727273 262.203517 
L 262.739394 263.974568 
L 268.751515 262.571756 
L 274.763636 259.064725 
L 280.775758 252.050663 
L 286.787879 251.875312 
L 292.8 249.443771 
L 298.812121 251.314187 
L 304.824242 252.716999 
L 310.836364 245.352235 
L 316.848485 249.122293 
L 322.860606 252.559183 
L 328.872727 259.169936 
L 334.884848 266.745122 
L 340.89697 275.161996 
L 346.909091 275.161996 
L 358.933333 269.90145 
L 364.945455 269.743633 
L 370.957576 271.339332 
L 376.969697 274.49566 
L 382.981818 277.441566 
L 388.993939 278.353394 
L 395.006061 278.669027 
L 401.018182 278.51121 
L 407.030303 278.669027 
L 413.042424 278.002691 
L 419.054545 274.925271 
L 425.066667 270.699299 
L 431.078788 271.251657 
L 437.090909 272.917496 
L 443.10303 273.671508 
L 449.115151 277.196074 
L 455.127273 271.222431 
L 467.151515 268.156702 
L 473.163636 270.427504 
L 479.175758 274.846363 
L 485.187879 276.599879 
L 497.212121 278.002691 
L 503.224242 278.236493 
L 509.236364 278.669027 
L 515.248485 278.669027 
L 521.260606 278.178042 
L 533.284848 276.599879 
L 539.29697 276.249175 
L 551.321212 276.915511 
L 557.333333 275.863402 
L 563.345455 275.991993 
L 569.357576 278.178042 
L 575.369697 281.252539 
L 581.381818 282.526761 
L 587.393939 284.455627 
L 593.406061 284.514078 
L 599.418182 281.860425 
L 605.430303 278.002691 
L 611.442424 272.742145 
L 617.454545 268.147934 
L 623.466667 262.571756 
L 629.478788 257.469026 
L 635.490909 252.716999 
L 641.50303 248.543633 
L 647.515151 244.183224 
L 653.527273 241.35422 
L 659.539394 239.232466 
L 671.563636 235.357197 
L 677.575758 235.181846 
L 683.587879 234.164807 
L 689.6 233.603682 
L 695.612121 233.779033 
L 701.624242 235.181846 
L 707.636364 234.948044 
L 713.648485 236.935361 
L 719.660606 237.052262 
L 725.672727 235.532549 
L 731.684848 240.793095 
L 737.69697 249.937677 
L 743.709091 252.287388 
L 749.721212 251.314187 
L 755.733333 249.38532 
L 761.745455 248.859265 
L 767.757576 247.456453 
L 773.769697 247.281102 
L 779.781818 248.19293 
L 791.806061 246.790117 
L 797.818182 249.209969 
L 803.830303 250.297148 
L 809.842424 248.859265 
L 815.854545 250.963484 
L 821.866667 250.788132 
L 827.878788 249.946445 
L 833.890909 250.612781 
L 839.90303 252.366296 
L 845.915151 251.69996 
L 851.927273 247.193426 
L 857.939394 234.752234 
L 863.951515 230.061581 
L 869.963636 227.212118 
L 875.975758 226.063566 
L 881.987879 228.781514 
L 888 218.172747 
L 894.012121 211.345727 
L 900.024242 208.212779 
L 906.036364 210.474814 
L 912.048485 216.419231 
L 918.060606 220.592598 
L 924.072727 225.011456 
L 930.084848 226.764972 
L 936.09697 228.202854 
L 942.109091 228.86919 
L 948.121212 228.518487 
L 954.133333 228.86919 
L 966.157576 228.86919 
L 978.181818 228.202854 
L 984.193939 228.202854 
L 990.206061 228.360671 
L 996.218182 225.984657 
L 996.218182 225.984657 
" style="fill:none;stroke:#009e73;stroke-linecap:square;stroke-width:1.5;"/>
   </g>
   <g id="patch_9">
    <path d="M 144 288.329143 
L 144 204.397714 
" style="fill:none;stroke:#000000;stroke-linecap:square;stroke-linejoin:miter;stroke-width:0.8;"/>
   </g>
   <g id="patch_10">
    <path d="M 1036.8 288.329143 
L 1036.8 204.397714 
" style="fill:none;stroke:#000000;stroke-linecap:square;stroke-linejoin:miter;stroke-width:0.8;"/>
   </g>
   <g id="patch_11">
    <path d="M 144 288.329143 
L 1036.8 288.329143 
" style="fill:none;stroke:#000000;stroke-linecap:square;stroke-linejoin:miter;stroke-width:0.8;"/>
   </g>
   <g id="patch_12">
    <path d="M 144 204.397714 
L 1036.8 204.397714 
" style="fill:none;stroke:#000000;stroke-linecap:square;stroke-linejoin:miter;stroke-width:0.8;"/>
   </g>
   <g id="legend_2">
    <g id="patch_13">
     <path d="M 151 227.075839 
L 227.159375 227.075839 
Q 229.159375 227.075839 229.159375 225.075839 
L 229.159375 211.397714 
Q 229.159375 209.397714 227.159375 209.397714 
L 151 209.397714 
Q 149 209.397714 149 211.397714 
L 149 225.075839 
Q 149 227.075839 151 227.075839 
z
" style="fill:#ffffff;opacity:0.8;stroke:#cccccc;stroke-linejoin:miter;"/>
    </g>
    <g id="line2d_21">
     <path d="M 153 217.496152 
L 173 217.496152 
" style="fill:none;stroke:#009e73;stroke-linecap:square;stroke-width:1.5;"/>
    </g>
    <g id="line2d_22"/>
    <g id="text_6">
     <!-- humidity -->
     <defs>
      <path d="M 54.890625 33.015625 
L 54.890625 0 
L 45.90625 0 
L 45.90625 32.71875 
Q 45.90625 40.484375 42.875 44.328125 
Q 39.84375 48.1875 33.796875 48.1875 
Q 26.515625 48.1875 22.3125 43.546875 
Q 18.109375 38.921875 18.109375 30.90625 
L 18.109375 0 
L 9.078125 0 
L 9.078125 75.984375 
L 18.109375 75.984375 
L 18.109375 46.1875 
Q 21.34375 51.125 25.703125 53.5625 
Q 30.078125 56 35.796875 56 
Q 45.21875 56 50.046875 50.171875 
Q 54.890625 44.34375 54.890625 33.015625 
z
" id="DejaVuSans-104"/>
      <path d="M 9.421875 54.6875 
L 18.40625 54.6875 
L 18.40625 0 
L 9.421875 0 
z
M 9.421875 75.984375 
L 18.40625 75.984375 
L 18.40625 64.59375 
L 9.421875 64.59375 
z
" id="DejaVuSans-105"/>
      <path d="M 45.40625 46.390625 
L 45.40625 75.984375 
L 54.390625 75.984375 
L 54.390625 0 
L 45.40625 0 
L 45.40625 8.203125 
Q 42.578125 3.328125 38.25 0.953125 
Q 33.9375 -1.421875 27.875 -1.421875 
Q 17.96875 -1.421875 11.734375 6.484375 
Q 5.515625 14.40625 5.515625 27.296875 
Q 5.515625 40.1875 11.734375 48.09375 
Q 17.96875 56 27.875 56 
Q 33.9375 56 38.25 53.625 
Q 42.578125 51.265625 45.40625 46.390625 
z
M 14.796875 27.296875 
Q 14.796875 17.390625 18.875 11.75 
Q 22.953125 6.109375 30.078125 6.109375 
Q 37.203125 6.109375 41.296875 11.75 
Q 45.40625 17.390625 45.40625 27.296875 
Q 45.40625 37.203125 41.296875 42.84375 
Q 37.203125 48.484375 30.078125 48.484375 
Q 22.953125 48.484375 18.875 42.84375 
Q 14.796875 37.203125 14.796875 27.296875 
z
" id="DejaVuSans-100"/>
      <path d="M 32.171875 -5.078125 
Q 28.375 -14.84375 24.75 -17.8125 
Q 21.140625 -20.796875 15.09375 -20.796875 
L 7.90625 -20.796875 
L 7.90625 -13.28125 
L 13.1875 -13.28125 
Q 16.890625 -13.28125 18.9375 -11.515625 
Q 21 -9.765625 23.484375 -3.21875 
L 25.09375 0.875 
L 2.984375 54.6875 
L 12.5 54.6875 
L 29.59375 11.921875 
L 46.6875 54.6875 
L 56.203125 54.6875 
z
" id="DejaVuSans-121"/>
     </defs>
     <g transform="translate(181 220.996152)scale(0.1 -0.1)">
      <use xlink:href="#DejaVuSans-104"/>
      <use x="63.378906" xlink:href="#DejaVuSans-117"/>
      <use x="126.757812" xlink:href="#DejaVuSans-109"/>
      <use x="224.169922" xlink:href="#DejaVuSans-105"/>
      <use x="251.953125" xlink:href="#DejaVuSans-100"/>
      <use x="315.429688" xlink:href="#DejaVuSans-105"/>
      <use x="343.212891" xlink:href="#DejaVuSans-116"/>
      <use x="382.421875" xlink:href="#DejaVuSans-121"/>
     </g>
    </g>
   </g>
  </g>
  <g id="axes_3">
   <g id="patch_14">
    <path d="M 144 389.046857 
L 1036.8 389.046857 
L 1036.8 305.115429 
L 144 305.115429 
z
" style="fill:#ffffff;"/>
   </g>
   <g id="matplotlib.axis_5">
    <g id="xtick_13">
     <g id="line2d_23">
      <g>
       <use style="stroke:#000000;stroke-width:0.8;" x="221.556364" xlink:href="#m841e4e5583" y="389.046857"/>
      </g>
     </g>
    </g>
    <g id="xtick_14">
     <g id="line2d_24">
      <g>
       <use style="stroke:#000000;stroke-width:0.8;" x="365.847273" xlink:href="#m841e4e5583" y="389.046857"/>
      </g>
     </g>
    </g>
    <g id="xtick_15">
     <g id="line2d_25">
      <g>
       <use style="stroke:#000000;stroke-width:0.8;" x="510.138182" xlink:href="#m841e4e5583" y="389.046857"/>
      </g>
     </g>
    </g>
    <g id="xtick_16">
     <g id="line2d_26">
      <g>
       <use style="stroke:#000000;stroke-width:0.8;" x="654.429091" xlink:href="#m841e4e5583" y="389.046857"/>
      </g>
     </g>
    </g>
    <g id="xtick_17">
     <g id="line2d_27">
      <g>
       <use style="stroke:#000000;stroke-width:0.8;" x="798.72" xlink:href="#m841e4e5583" y="389.046857"/>
      </g>
     </g>
    </g>
    <g id="xtick_18">
     <g id="line2d_28">
      <g>
       <use style="stroke:#000000;stroke-width:0.8;" x="943.010909" xlink:href="#m841e4e5583" y="389.046857"/>
      </g>
     </g>
    </g>
   </g>
   <g id="matplotlib.axis_6">
    <g id="ytick_5">
     <g id="line2d_29">
      <g>
       <use style="stroke:#000000;stroke-width:0.8;" x="144" xlink:href="#mbc3915e05e" y="385.231792"/>
      </g>
     </g>
     <g id="text_7">
      <!-- 0 -->
      <g transform="translate(129.365 389.790855)scale(0.12 -0.12)">
       <use xlink:href="#DejaVuSans-48"/>
      </g>
     </g>
    </g>
    <g id="ytick_6">
     <g id="line2d_30">
      <g>
       <use style="stroke:#000000;stroke-width:0.8;" x="144" xlink:href="#mbc3915e05e" y="354.97751"/>
      </g>
     </g>
     <g id="text_8">
      <!-- 250 -->
      <defs>
       <path d="M 10.796875 72.90625 
L 49.515625 72.90625 
L 49.515625 64.59375 
L 19.828125 64.59375 
L 19.828125 46.734375 
Q 21.96875 47.46875 24.109375 47.828125 
Q 26.265625 48.1875 28.421875 48.1875 
Q 40.625 48.1875 47.75 41.5 
Q 54.890625 34.8125 54.890625 23.390625 
Q 54.890625 11.625 47.5625 5.09375 
Q 40.234375 -1.421875 26.90625 -1.421875 
Q 22.3125 -1.421875 17.546875 -0.640625 
Q 12.796875 0.140625 7.71875 1.703125 
L 7.71875 11.625 
Q 12.109375 9.234375 16.796875 8.0625 
Q 21.484375 6.890625 26.703125 6.890625 
Q 35.15625 6.890625 40.078125 11.328125 
Q 45.015625 15.765625 45.015625 23.390625 
Q 45.015625 31 40.078125 35.4375 
Q 35.15625 39.890625 26.703125 39.890625 
Q 22.75 39.890625 18.8125 39.015625 
Q 14.890625 38.140625 10.796875 36.28125 
z
" id="DejaVuSans-53"/>
      </defs>
      <g transform="translate(114.095 359.536573)scale(0.12 -0.12)">
       <use xlink:href="#DejaVuSans-50"/>
       <use x="63.623047" xlink:href="#DejaVuSans-53"/>
       <use x="127.246094" xlink:href="#DejaVuSans-48"/>
      </g>
     </g>
    </g>
    <g id="ytick_7">
     <g id="line2d_31">
      <g>
       <use style="stroke:#000000;stroke-width:0.8;" x="144" xlink:href="#mbc3915e05e" y="324.723229"/>
      </g>
     </g>
     <g id="text_9">
      <!-- 500 -->
      <g transform="translate(114.095 329.282291)scale(0.12 -0.12)">
       <use xlink:href="#DejaVuSans-53"/>
       <use x="63.623047" xlink:href="#DejaVuSans-48"/>
       <use x="127.246094" xlink:href="#DejaVuSans-48"/>
      </g>
     </g>
    </g>
   </g>
   <g id="line2d_32">
    <path clip-path="url(#p89b057386f)" d="M 184.581818 333.678496 
L 190.593939 385.231792 
L 262.739394 385.231792 
L 268.751515 337.30901 
L 274.763636 331.197645 
L 280.775758 330.290016 
L 286.787879 330.743831 
L 292.8 331.500188 
L 298.812121 308.930494 
L 304.824242 331.500188 
L 310.836364 326.054417 
L 316.848485 327.869674 
L 322.860606 332.22629 
L 328.872727 332.831376 
L 334.884848 385.231792 
L 407.030303 385.231792 
L 413.042424 335.493753 
L 419.054545 332.831376 
L 425.066667 331.500188 
L 431.078788 326.962045 
L 437.090909 328.898319 
L 443.10303 326.9923 
L 449.115151 317.52271 
L 455.127273 324.884585 
L 467.151515 331.500188 
L 473.163636 332.831376 
L 479.175758 385.231792 
L 557.333333 385.231792 
L 563.345455 380.108734 
L 569.357576 359.576161 
L 575.369697 344.650716 
L 581.381818 343.561561 
L 587.393939 350.741911 
L 593.406061 365.788374 
L 599.418182 373.946945 
L 605.430303 380.592802 
L 611.442424 383.537552 
L 617.454545 385.231792 
L 701.624242 385.231792 
L 707.636364 383.537552 
L 713.648485 383.537552 
L 719.660606 381.480261 
L 725.672727 382.992975 
L 731.684848 355.784291 
L 737.69697 361.603198 
L 743.709091 376.790848 
L 749.721212 382.932467 
L 755.733333 382.327381 
L 761.745455 385.231792 
L 845.915151 385.231792 
L 851.927273 337.187993 
L 857.939394 331.681713 
L 863.951515 330.290016 
L 869.963636 329.079845 
L 875.975758 323.028989 
L 881.987879 327.809165 
L 888 328.747048 
L 894.012121 331.500188 
L 900.024242 332.831376 
L 906.036364 332.831376 
L 912.048485 385.231792 
L 990.206061 385.231792 
L 996.218182 335.917313 
L 996.218182 335.917313 
" style="fill:none;stroke:#d55e00;stroke-linecap:square;stroke-width:1.5;"/>
   </g>
   <g id="patch_15">
    <path d="M 144 389.046857 
L 144 305.115429 
" style="fill:none;stroke:#000000;stroke-linecap:square;stroke-linejoin:miter;stroke-width:0.8;"/>
   </g>
   <g id="patch_16">
    <path d="M 1036.8 389.046857 
L 1036.8 305.115429 
" style="fill:none;stroke:#000000;stroke-linecap:square;stroke-linejoin:miter;stroke-width:0.8;"/>
   </g>
   <g id="patch_17">
    <path d="M 144 389.046857 
L 1036.8 389.046857 
" style="fill:none;stroke:#000000;stroke-linecap:square;stroke-linejoin:miter;stroke-width:0.8;"/>
   </g>
   <g id="patch_18">
    <path d="M 144 305.115429 
L 1036.8 305.115429 
" style="fill:none;stroke:#000000;stroke-linecap:square;stroke-linejoin:miter;stroke-width:0.8;"/>
   </g>
   <g id="legend_3">
    <g id="patch_19">
     <path d="M 975.6375 327.793554 
L 1029.8 327.793554 
Q 1031.8 327.793554 1031.8 325.793554 
L 1031.8 312.115429 
Q 1031.8 310.115429 1029.8 310.115429 
L 975.6375 310.115429 
Q 973.6375 310.115429 973.6375 312.115429 
L 973.6375 325.793554 
Q 973.6375 327.793554 975.6375 327.793554 
z
" style="fill:#ffffff;opacity:0.8;stroke:#cccccc;stroke-linejoin:miter;"/>
    </g>
    <g id="line2d_33">
     <path d="M 977.6375 318.213866 
L 997.6375 318.213866 
" style="fill:none;stroke:#d55e00;stroke-linecap:square;stroke-width:1.5;"/>
    </g>
    <g id="line2d_34"/>
    <g id="text_10">
     <!-- light -->
     <defs>
      <path d="M 9.421875 75.984375 
L 18.40625 75.984375 
L 18.40625 0 
L 9.421875 0 
z
" id="DejaVuSans-108"/>
      <path d="M 45.40625 27.984375 
Q 45.40625 37.75 41.375 43.109375 
Q 37.359375 48.484375 30.078125 48.484375 
Q 22.859375 48.484375 18.828125 43.109375 
Q 14.796875 37.75 14.796875 27.984375 
Q 14.796875 18.265625 18.828125 12.890625 
Q 22.859375 7.515625 30.078125 7.515625 
Q 37.359375 7.515625 41.375 12.890625 
Q 45.40625 18.265625 45.40625 27.984375 
z
M 54.390625 6.78125 
Q 54.390625 -7.171875 48.1875 -13.984375 
Q 42 -20.796875 29.203125 -20.796875 
Q 24.46875 -20.796875 20.265625 -20.09375 
Q 16.0625 -19.390625 12.109375 -17.921875 
L 12.109375 -9.1875 
Q 16.0625 -11.328125 19.921875 -12.34375 
Q 23.78125 -13.375 27.78125 -13.375 
Q 36.625 -13.375 41.015625 -8.765625 
Q 45.40625 -4.15625 45.40625 5.171875 
L 45.40625 9.625 
Q 42.625 4.78125 38.28125 2.390625 
Q 33.9375 0 27.875 0 
Q 17.828125 0 11.671875 7.65625 
Q 5.515625 15.328125 5.515625 27.984375 
Q 5.515625 40.671875 11.671875 48.328125 
Q 17.828125 56 27.875 56 
Q 33.9375 56 38.28125 53.609375 
Q 42.625 51.21875 45.40625 46.390625 
L 45.40625 54.6875 
L 54.390625 54.6875 
z
" id="DejaVuSans-103"/>
     </defs>
     <g transform="translate(1005.6375 321.713866)scale(0.1 -0.1)">
      <use xlink:href="#DejaVuSans-108"/>
      <use x="27.783203" xlink:href="#DejaVuSans-105"/>
      <use x="55.566406" xlink:href="#DejaVuSans-103"/>
      <use x="119.042969" xlink:href="#DejaVuSans-104"/>
      <use x="182.421875" xlink:href="#DejaVuSans-116"/>
     </g>
    </g>
   </g>
  </g>
  <g id="axes_4">
   <g id="patch_20">
    <path d="M 144 489.764571 
L 1036.8 489.764571 
L 1036.8 405.833143 
L 144 405.833143 
z
" style="fill:#ffffff;"/>
   </g>
   <g id="matplotlib.axis_7">
    <g id="xtick_19">
     <g id="line2d_35">
      <g>
       <use style="stroke:#000000;stroke-width:0.8;" x="221.556364" xlink:href="#m841e4e5583" y="489.764571"/>
      </g>
     </g>
    </g>
    <g id="xtick_20">
     <g id="line2d_36">
      <g>
       <use style="stroke:#000000;stroke-width:0.8;" x="365.847273" xlink:href="#m841e4e5583" y="489.764571"/>
      </g>
     </g>
    </g>
    <g id="xtick_21">
     <g id="line2d_37">
      <g>
       <use style="stroke:#000000;stroke-width:0.8;" x="510.138182" xlink:href="#m841e4e5583" y="489.764571"/>
      </g>
     </g>
    </g>
    <g id="xtick_22">
     <g id="line2d_38">
      <g>
       <use style="stroke:#000000;stroke-width:0.8;" x="654.429091" xlink:href="#m841e4e5583" y="489.764571"/>
      </g>
     </g>
    </g>
    <g id="xtick_23">
     <g id="line2d_39">
      <g>
       <use style="stroke:#000000;stroke-width:0.8;" x="798.72" xlink:href="#m841e4e5583" y="489.764571"/>
      </g>
     </g>
    </g>
    <g id="xtick_24">
     <g id="line2d_40">
      <g>
       <use style="stroke:#000000;stroke-width:0.8;" x="943.010909" xlink:href="#m841e4e5583" y="489.764571"/>
      </g>
     </g>
    </g>
   </g>
   <g id="matplotlib.axis_8">
    <g id="ytick_8">
     <g id="line2d_41">
      <g>
       <use style="stroke:#000000;stroke-width:0.8;" x="144" xlink:href="#mbc3915e05e" y="457.772647"/>
      </g>
     </g>
     <g id="text_11">
      <!-- 1000 -->
      <defs>
       <path d="M 12.40625 8.296875 
L 28.515625 8.296875 
L 28.515625 63.921875 
L 10.984375 60.40625 
L 10.984375 69.390625 
L 28.421875 72.90625 
L 38.28125 72.90625 
L 38.28125 8.296875 
L 54.390625 8.296875 
L 54.390625 0 
L 12.40625 0 
z
" id="DejaVuSans-49"/>
      </defs>
      <g transform="translate(106.46 462.33171)scale(0.12 -0.12)">
       <use xlink:href="#DejaVuSans-49"/>
       <use x="63.623047" xlink:href="#DejaVuSans-48"/>
       <use x="127.246094" xlink:href="#DejaVuSans-48"/>
       <use x="190.869141" xlink:href="#DejaVuSans-48"/>
      </g>
     </g>
    </g>
    <g id="ytick_9">
     <g id="line2d_42">
      <g>
       <use style="stroke:#000000;stroke-width:0.8;" x="144" xlink:href="#mbc3915e05e" y="409.648208"/>
      </g>
     </g>
     <g id="text_12">
      <!-- 2000 -->
      <g transform="translate(106.46 414.20727)scale(0.12 -0.12)">
       <use xlink:href="#DejaVuSans-50"/>
       <use x="63.623047" xlink:href="#DejaVuSans-48"/>
       <use x="127.246094" xlink:href="#DejaVuSans-48"/>
       <use x="190.869141" xlink:href="#DejaVuSans-48"/>
      </g>
     </g>
    </g>
   </g>
   <g id="line2d_43">
    <path clip-path="url(#pf6f3f070be)" d="M 184.581818 471.187335 
L 190.593939 475.747125 
L 196.606061 479.356458 
L 202.618182 481.413778 
L 208.630303 482.448454 
L 214.642424 483.302662 
L 220.654545 483.519222 
L 226.666667 484.289213 
L 232.678788 484.445618 
L 238.690909 484.818582 
L 244.70303 484.529836 
L 250.715151 484.385462 
L 256.727273 484.409524 
L 262.739394 484.024529 
L 268.751515 481.113 
L 274.763636 469.40673 
L 280.775758 456.264748 
L 286.787879 456.304852 
L 292.8 451.40418 
L 298.812121 456.052199 
L 304.824242 465.448495 
L 310.836364 455.222052 
L 316.848485 454.343781 
L 322.860606 454.500185 
L 328.872727 463.210709 
L 334.884848 475.097445 
L 340.89697 481.594245 
L 346.909091 483.591409 
L 352.921212 483.687658 
L 358.933333 483.968384 
L 364.945455 484.818582 
L 370.957576 484.57796 
L 376.969697 484.914831 
L 382.981818 484.962955 
L 388.993939 485.22764 
L 395.006061 485.251702 
L 401.018182 484.866707 
L 407.030303 485.01108 
L 413.042424 483.759844 
L 419.054545 475.217757 
L 425.066667 466.952384 
L 431.078788 464.95522 
L 437.090909 467.902842 
L 443.10303 469.442824 
L 449.115151 475.47041 
L 455.127273 465.183811 
L 461.139394 462.753527 
L 467.151515 459.601376 
L 473.163636 467.349411 
L 479.175758 477.238983 
L 485.187879 482.604858 
L 491.2 484.289213 
L 497.212121 484.553898 
L 503.224242 484.987018 
L 509.236364 484.674209 
L 515.248485 485.107329 
L 527.272727 484.602022 
L 533.284848 484.79452 
L 539.29697 484.770458 
L 545.309091 484.529836 
L 551.321212 484.529836 
L 557.333333 483.952342 
L 563.345455 483.936301 
L 575.369697 483.535264 
L 581.381818 484.241089 
L 587.393939 484.301244 
L 593.406061 484.674209 
L 611.442424 484.674209 
L 617.454545 485.203578 
L 623.466667 484.987018 
L 629.478788 484.650147 
L 635.490909 484.457649 
L 641.50303 484.818582 
L 647.515151 484.658167 
L 653.527273 484.962955 
L 659.539394 484.626084 
L 671.563636 484.938893 
L 677.575758 484.842644 
L 683.587879 484.914831 
L 689.6 484.746396 
L 695.612121 485.035142 
L 701.624242 485.179515 
L 707.636364 484.866707 
L 713.648485 485.191547 
L 719.660606 485.043163 
L 731.684848 485.203578 
L 737.69697 485.829195 
L 743.709091 485.564511 
L 749.721212 485.636698 
L 755.733333 485.949506 
L 761.745455 485.323889 
L 767.757576 485.251702 
L 773.769697 484.914831 
L 779.781818 484.096716 
L 785.793939 484.529836 
L 791.806061 484.072653 
L 797.818182 484.337338 
L 809.842424 483.422973 
L 815.854545 483.254538 
L 821.866667 483.471098 
L 827.878788 483.49516 
L 833.890909 483.759844 
L 845.915151 483.262559 
L 851.927273 482.003302 
L 857.939394 459.312629 
L 863.951515 442.613449 
L 869.963636 435.731654 
L 875.975758 442.581366 
L 881.987879 451.684906 
L 888 433.08481 
L 894.012121 417.027289 
L 900.024242 409.648208 
L 906.036364 416.205163 
L 912.048485 439.413174 
L 918.060606 455.863711 
L 924.072727 467.734406 
L 930.084848 474.110894 
L 936.09697 479.091774 
L 942.109091 481.786742 
L 948.121212 482.917667 
L 954.133333 483.615471 
L 960.145455 484.024529 
L 978.181818 484.674209 
L 990.206061 484.289213 
L 996.218182 482.051427 
L 996.218182 482.051427 
" style="fill:none;stroke:#cc79a7;stroke-linecap:square;stroke-width:1.5;"/>
   </g>
   <g id="patch_21">
    <path d="M 144 489.764571 
L 144 405.833143 
" style="fill:none;stroke:#000000;stroke-linecap:square;stroke-linejoin:miter;stroke-width:0.8;"/>
   </g>
   <g id="patch_22">
    <path d="M 1036.8 489.764571 
L 1036.8 405.833143 
" style="fill:none;stroke:#000000;stroke-linecap:square;stroke-linejoin:miter;stroke-width:0.8;"/>
   </g>
   <g id="patch_23">
    <path d="M 144 489.764571 
L 1036.8 489.764571 
" style="fill:none;stroke:#000000;stroke-linecap:square;stroke-linejoin:miter;stroke-width:0.8;"/>
   </g>
   <g id="patch_24">
    <path d="M 144 405.833143 
L 1036.8 405.833143 
" style="fill:none;stroke:#000000;stroke-linecap:square;stroke-linejoin:miter;stroke-width:0.8;"/>
   </g>
   <g id="legend_4">
    <g id="patch_25">
     <path d="M 979.820312 428.511268 
L 1029.8 428.511268 
Q 1031.8 428.511268 1031.8 426.511268 
L 1031.8 412.833143 
Q 1031.8 410.833143 1029.8 410.833143 
L 979.820312 410.833143 
Q 977.820312 410.833143 977.820312 412.833143 
L 977.820312 426.511268 
Q 977.820312 428.511268 979.820312 428.511268 
z
" style="fill:#ffffff;opacity:0.8;stroke:#cccccc;stroke-linejoin:miter;"/>
    </g>
    <g id="line2d_44">
     <path d="M 981.820312 418.93158 
L 1001.820312 418.93158 
" style="fill:none;stroke:#cc79a7;stroke-linecap:square;stroke-width:1.5;"/>
    </g>
    <g id="line2d_45"/>
    <g id="text_13">
     <!-- co2 -->
     <defs>
      <path d="M 48.78125 52.59375 
L 48.78125 44.1875 
Q 44.96875 46.296875 41.140625 47.34375 
Q 37.3125 48.390625 33.40625 48.390625 
Q 24.65625 48.390625 19.8125 42.84375 
Q 14.984375 37.3125 14.984375 27.296875 
Q 14.984375 17.28125 19.8125 11.734375 
Q 24.65625 6.203125 33.40625 6.203125 
Q 37.3125 6.203125 41.140625 7.25 
Q 44.96875 8.296875 48.78125 10.40625 
L 48.78125 2.09375 
Q 45.015625 0.34375 40.984375 -0.53125 
Q 36.96875 -1.421875 32.421875 -1.421875 
Q 20.0625 -1.421875 12.78125 6.34375 
Q 5.515625 14.109375 5.515625 27.296875 
Q 5.515625 40.671875 12.859375 48.328125 
Q 20.21875 56 33.015625 56 
Q 37.15625 56 41.109375 55.140625 
Q 45.0625 54.296875 48.78125 52.59375 
z
" id="DejaVuSans-99"/>
      <path d="M 30.609375 48.390625 
Q 23.390625 48.390625 19.1875 42.75 
Q 14.984375 37.109375 14.984375 27.296875 
Q 14.984375 17.484375 19.15625 11.84375 
Q 23.34375 6.203125 30.609375 6.203125 
Q 37.796875 6.203125 41.984375 11.859375 
Q 46.1875 17.53125 46.1875 27.296875 
Q 46.1875 37.015625 41.984375 42.703125 
Q 37.796875 48.390625 30.609375 48.390625 
z
M 30.609375 56 
Q 42.328125 56 49.015625 48.375 
Q 55.71875 40.765625 55.71875 27.296875 
Q 55.71875 13.875 49.015625 6.21875 
Q 42.328125 -1.421875 30.609375 -1.421875 
Q 18.84375 -1.421875 12.171875 6.21875 
Q 5.515625 13.875 5.515625 27.296875 
Q 5.515625 40.765625 12.171875 48.375 
Q 18.84375 56 30.609375 56 
z
" id="DejaVuSans-111"/>
     </defs>
     <g transform="translate(1009.820312 422.43158)scale(0.1 -0.1)">
      <use xlink:href="#DejaVuSans-99"/>
      <use x="54.980469" xlink:href="#DejaVuSans-111"/>
      <use x="116.162109" xlink:href="#DejaVuSans-50"/>
     </g>
    </g>
   </g>
  </g>
  <g id="axes_5">
   <g id="patch_26">
    <path d="M 144 590.482286 
L 1036.8 590.482286 
L 1036.8 506.550857 
L 144 506.550857 
z
" style="fill:#ffffff;"/>
   </g>
   <g id="matplotlib.axis_9">
    <g id="xtick_25">
     <g id="line2d_46">
      <g>
       <use style="stroke:#000000;stroke-width:0.8;" x="221.556364" xlink:href="#m841e4e5583" y="590.482286"/>
      </g>
     </g>
    </g>
    <g id="xtick_26">
     <g id="line2d_47">
      <g>
       <use style="stroke:#000000;stroke-width:0.8;" x="365.847273" xlink:href="#m841e4e5583" y="590.482286"/>
      </g>
     </g>
    </g>
    <g id="xtick_27">
     <g id="line2d_48">
      <g>
       <use style="stroke:#000000;stroke-width:0.8;" x="510.138182" xlink:href="#m841e4e5583" y="590.482286"/>
      </g>
     </g>
    </g>
    <g id="xtick_28">
     <g id="line2d_49">
      <g>
       <use style="stroke:#000000;stroke-width:0.8;" x="654.429091" xlink:href="#m841e4e5583" y="590.482286"/>
      </g>
     </g>
    </g>
    <g id="xtick_29">
     <g id="line2d_50">
      <g>
       <use style="stroke:#000000;stroke-width:0.8;" x="798.72" xlink:href="#m841e4e5583" y="590.482286"/>
      </g>
     </g>
    </g>
    <g id="xtick_30">
     <g id="line2d_51">
      <g>
       <use style="stroke:#000000;stroke-width:0.8;" x="943.010909" xlink:href="#m841e4e5583" y="590.482286"/>
      </g>
     </g>
    </g>
   </g>
   <g id="matplotlib.axis_10">
    <g id="ytick_10">
     <g id="line2d_52">
      <g>
       <use style="stroke:#000000;stroke-width:0.8;" x="144" xlink:href="#mbc3915e05e" y="559.694076"/>
      </g>
     </g>
     <g id="text_14">
      <!-- 0.004 -->
      <defs>
       <path d="M 10.6875 12.40625 
L 21 12.40625 
L 21 0 
L 10.6875 0 
z
" id="DejaVuSans-46"/>
       <path d="M 37.796875 64.3125 
L 12.890625 25.390625 
L 37.796875 25.390625 
z
M 35.203125 72.90625 
L 47.609375 72.90625 
L 47.609375 25.390625 
L 58.015625 25.390625 
L 58.015625 17.1875 
L 47.609375 17.1875 
L 47.609375 0 
L 37.796875 0 
L 37.796875 17.1875 
L 4.890625 17.1875 
L 4.890625 26.703125 
z
" id="DejaVuSans-52"/>
      </defs>
      <g transform="translate(102.64625 564.253139)scale(0.12 -0.12)">
       <use xlink:href="#DejaVuSans-48"/>
       <use x="63.623047" xlink:href="#DejaVuSans-46"/>
       <use x="95.410156" xlink:href="#DejaVuSans-48"/>
       <use x="159.033203" xlink:href="#DejaVuSans-48"/>
       <use x="222.65625" xlink:href="#DejaVuSans-52"/>
      </g>
     </g>
    </g>
    <g id="ytick_11">
     <g id="line2d_53">
      <g>
       <use style="stroke:#000000;stroke-width:0.8;" x="144" xlink:href="#mbc3915e05e" y="518.605419"/>
      </g>
     </g>
     <g id="text_15">
      <!-- 0.006 -->
      <defs>
       <path d="M 33.015625 40.375 
Q 26.375 40.375 22.484375 35.828125 
Q 18.609375 31.296875 18.609375 23.390625 
Q 18.609375 15.53125 22.484375 10.953125 
Q 26.375 6.390625 33.015625 6.390625 
Q 39.65625 6.390625 43.53125 10.953125 
Q 47.40625 15.53125 47.40625 23.390625 
Q 47.40625 31.296875 43.53125 35.828125 
Q 39.65625 40.375 33.015625 40.375 
z
M 52.59375 71.296875 
L 52.59375 62.3125 
Q 48.875 64.0625 45.09375 64.984375 
Q 41.3125 65.921875 37.59375 65.921875 
Q 27.828125 65.921875 22.671875 59.328125 
Q 17.53125 52.734375 16.796875 39.40625 
Q 19.671875 43.65625 24.015625 45.921875 
Q 28.375 48.1875 33.59375 48.1875 
Q 44.578125 48.1875 50.953125 41.515625 
Q 57.328125 34.859375 57.328125 23.390625 
Q 57.328125 12.15625 50.6875 5.359375 
Q 44.046875 -1.421875 33.015625 -1.421875 
Q 20.359375 -1.421875 13.671875 8.265625 
Q 6.984375 17.96875 6.984375 36.375 
Q 6.984375 53.65625 15.1875 63.9375 
Q 23.390625 74.21875 37.203125 74.21875 
Q 40.921875 74.21875 44.703125 73.484375 
Q 48.484375 72.75 52.59375 71.296875 
z
" id="DejaVuSans-54"/>
      </defs>
      <g transform="translate(102.64625 523.164481)scale(0.12 -0.12)">
       <use xlink:href="#DejaVuSans-48"/>
       <use x="63.623047" xlink:href="#DejaVuSans-46"/>
       <use x="95.410156" xlink:href="#DejaVuSans-48"/>
       <use x="159.033203" xlink:href="#DejaVuSans-48"/>
       <use x="222.65625" xlink:href="#DejaVuSans-54"/>
      </g>
     </g>
    </g>
   </g>
   <g id="line2d_54">
    <path clip-path="url(#p24e2095385)" d="M 184.581818 543.402666 
L 190.593939 547.921141 
L 196.606061 551.455328 
L 202.618182 555.21601 
L 208.630303 558.326736 
L 214.642424 559.267397 
L 220.654545 561.043973 
L 226.666667 561.295822 
L 232.678788 562.025827 
L 238.690909 563.35748 
L 244.70303 564.89516 
L 256.727273 568.780589 
L 262.739394 570.984322 
L 268.751515 568.885017 
L 274.763636 563.344155 
L 280.775758 553.037894 
L 286.787879 553.140529 
L 292.8 549.945859 
L 298.812121 549.53773 
L 304.824242 552.650722 
L 310.836364 544.824796 
L 316.848485 547.920573 
L 322.860606 552.221567 
L 328.872727 559.773536 
L 334.884848 570.902646 
L 340.89697 579.384371 
L 346.909091 579.769003 
L 352.921212 578.593634 
L 358.933333 576.919161 
L 364.945455 577.93515 
L 370.957576 579.13604 
L 376.969697 581.077606 
L 382.981818 583.854934 
L 388.993939 584.845162 
L 401.018182 585.33428 
L 407.030303 585.470604 
L 413.042424 585.388306 
L 419.054545 580.07291 
L 425.066667 574.438565 
L 431.078788 573.342728 
L 437.090909 575.120227 
L 443.10303 575.626173 
L 449.115151 578.950609 
L 455.127273 571.467577 
L 461.139394 570.172024 
L 467.151515 570.123998 
L 473.163636 572.564848 
L 479.175758 579.906529 
L 485.187879 582.919966 
L 491.2 584.579856 
L 497.212121 585.212556 
L 503.224242 586.111032 
L 509.236364 586.667221 
L 515.248485 586.477966 
L 521.260606 586.442239 
L 527.272727 585.821688 
L 533.284848 585.464897 
L 539.29697 585.330001 
L 545.309091 585.464897 
L 551.321212 585.729225 
L 557.333333 585.167142 
L 563.345455 585.391782 
L 569.357576 582.894822 
L 575.369697 581.30692 
L 581.381818 580.096645 
L 587.393939 580.785309 
L 593.406061 582.20408 
L 599.418182 581.618049 
L 605.430303 580.885154 
L 611.442424 578.764701 
L 617.454545 575.967985 
L 623.466667 572.376611 
L 629.478788 568.468516 
L 635.490909 564.954028 
L 641.50303 561.925494 
L 647.515151 558.728107 
L 653.527273 556.628696 
L 665.551515 554.063222 
L 671.563636 553.082663 
L 677.575758 552.938691 
L 683.587879 552.664648 
L 689.6 551.925167 
L 695.612121 552.853936 
L 701.624242 553.99209 
L 707.636364 553.802412 
L 713.648485 554.22738 
L 719.660606 555.183622 
L 725.672727 554.824786 
L 731.684848 553.535531 
L 737.69697 558.637439 
L 743.709091 562.394733 
L 749.721212 563.768013 
L 755.733333 564.056105 
L 761.745455 564.158846 
L 767.757576 563.501445 
L 773.769697 563.112245 
L 779.781818 563.612676 
L 785.793939 562.464077 
L 791.806061 561.914012 
L 797.818182 563.911391 
L 803.830303 565.337264 
L 809.842424 564.401811 
L 815.854545 565.883287 
L 827.878788 565.529527 
L 833.890909 565.595912 
L 839.90303 567.266585 
L 845.915151 565.966018 
L 851.927273 561.872509 
L 857.939394 546.180438 
L 863.951515 538.902401 
L 869.963636 533.732823 
L 875.975758 531.917809 
L 881.987879 536.147068 
L 888 522.020437 
L 894.012121 514.50162 
L 900.024242 510.365922 
L 906.036364 512.57472 
L 912.048485 524.397502 
L 918.060606 532.574508 
L 924.072727 537.598473 
L 930.084848 539.144226 
L 942.109091 541.686647 
L 954.133333 542.308506 
L 960.145455 542.308506 
L 966.157576 542.86526 
L 972.169697 542.973893 
L 978.181818 542.908032 
L 984.193939 541.729017 
L 990.206061 541.866269 
L 996.218182 538.456412 
L 996.218182 538.456412 
" style="fill:none;stroke:#f0e442;stroke-linecap:square;stroke-width:1.5;"/>
   </g>
   <g id="patch_27">
    <path d="M 144 590.482286 
L 144 506.550857 
" style="fill:none;stroke:#000000;stroke-linecap:square;stroke-linejoin:miter;stroke-width:0.8;"/>
   </g>
   <g id="patch_28">
    <path d="M 1036.8 590.482286 
L 1036.8 506.550857 
" style="fill:none;stroke:#000000;stroke-linecap:square;stroke-linejoin:miter;stroke-width:0.8;"/>
   </g>
   <g id="patch_29">
    <path d="M 144 590.482286 
L 1036.8 590.482286 
" style="fill:none;stroke:#000000;stroke-linecap:square;stroke-linejoin:miter;stroke-width:0.8;"/>
   </g>
   <g id="patch_30">
    <path d="M 144 506.550857 
L 1036.8 506.550857 
" style="fill:none;stroke:#000000;stroke-linecap:square;stroke-linejoin:miter;stroke-width:0.8;"/>
   </g>
   <g id="legend_5">
    <g id="patch_31">
     <path d="M 930.584375 529.228982 
L 1029.8 529.228982 
Q 1031.8 529.228982 1031.8 527.228982 
L 1031.8 513.550857 
Q 1031.8 511.550857 1029.8 511.550857 
L 930.584375 511.550857 
Q 928.584375 511.550857 928.584375 513.550857 
L 928.584375 527.228982 
Q 928.584375 529.228982 930.584375 529.228982 
z
" style="fill:#ffffff;opacity:0.8;stroke:#cccccc;stroke-linejoin:miter;"/>
    </g>
    <g id="line2d_55">
     <path d="M 932.584375 519.649295 
L 952.584375 519.649295 
" style="fill:none;stroke:#f0e442;stroke-linecap:square;stroke-width:1.5;"/>
    </g>
    <g id="line2d_56"/>
    <g id="text_16">
     <!-- humidityratio -->
     <g transform="translate(960.584375 523.149295)scale(0.1 -0.1)">
      <use xlink:href="#DejaVuSans-104"/>
      <use x="63.378906" xlink:href="#DejaVuSans-117"/>
      <use x="126.757812" xlink:href="#DejaVuSans-109"/>
      <use x="224.169922" xlink:href="#DejaVuSans-105"/>
      <use x="251.953125" xlink:href="#DejaVuSans-100"/>
      <use x="315.429688" xlink:href="#DejaVuSans-105"/>
      <use x="343.212891" xlink:href="#DejaVuSans-116"/>
      <use x="382.421875" xlink:href="#DejaVuSans-121"/>
      <use x="441.601562" xlink:href="#DejaVuSans-114"/>
      <use x="482.714844" xlink:href="#DejaVuSans-97"/>
      <use x="543.994141" xlink:href="#DejaVuSans-116"/>
      <use x="583.203125" xlink:href="#DejaVuSans-105"/>
      <use x="610.986328" xlink:href="#DejaVuSans-111"/>
     </g>
    </g>
   </g>
  </g>
  <g id="axes_6">
   <g id="patch_32">
    <path d="M 144 691.2 
L 1036.8 691.2 
L 1036.8 607.268571 
L 144 607.268571 
z
" style="fill:#ffffff;"/>
   </g>
   <g id="matplotlib.axis_11">
    <g id="xtick_31">
     <g id="line2d_57">
      <g>
       <use style="stroke:#000000;stroke-width:0.8;" x="221.556364" xlink:href="#m841e4e5583" y="691.2"/>
      </g>
     </g>
     <g id="text_17">
      <!-- 2015-02-05 -->
      <defs>
       <path d="M 4.890625 31.390625 
L 31.203125 31.390625 
L 31.203125 23.390625 
L 4.890625 23.390625 
z
" id="DejaVuSans-45"/>
      </defs>
      <g transform="translate(159.913022 740.965903)rotate(-30)scale(0.12 -0.12)">
       <use xlink:href="#DejaVuSans-50"/>
       <use x="63.623047" xlink:href="#DejaVuSans-48"/>
       <use x="127.246094" xlink:href="#DejaVuSans-49"/>
       <use x="190.869141" xlink:href="#DejaVuSans-53"/>
       <use x="254.492188" xlink:href="#DejaVuSans-45"/>
       <use x="290.576172" xlink:href="#DejaVuSans-48"/>
       <use x="354.199219" xlink:href="#DejaVuSans-50"/>
       <use x="417.822266" xlink:href="#DejaVuSans-45"/>
       <use x="453.90625" xlink:href="#DejaVuSans-48"/>
       <use x="517.529297" xlink:href="#DejaVuSans-53"/>
      </g>
     </g>
    </g>
    <g id="xtick_32">
     <g id="line2d_58">
      <g>
       <use style="stroke:#000000;stroke-width:0.8;" x="365.847273" xlink:href="#m841e4e5583" y="691.2"/>
      </g>
     </g>
     <g id="text_18">
      <!-- 2015-02-06 -->
      <g transform="translate(304.203931 740.965903)rotate(-30)scale(0.12 -0.12)">
       <use xlink:href="#DejaVuSans-50"/>
       <use x="63.623047" xlink:href="#DejaVuSans-48"/>
       <use x="127.246094" xlink:href="#DejaVuSans-49"/>
       <use x="190.869141" xlink:href="#DejaVuSans-53"/>
       <use x="254.492188" xlink:href="#DejaVuSans-45"/>
       <use x="290.576172" xlink:href="#DejaVuSans-48"/>
       <use x="354.199219" xlink:href="#DejaVuSans-50"/>
       <use x="417.822266" xlink:href="#DejaVuSans-45"/>
       <use x="453.90625" xlink:href="#DejaVuSans-48"/>
       <use x="517.529297" xlink:href="#DejaVuSans-54"/>
      </g>
     </g>
    </g>
    <g id="xtick_33">
     <g id="line2d_59">
      <g>
       <use style="stroke:#000000;stroke-width:0.8;" x="510.138182" xlink:href="#m841e4e5583" y="691.2"/>
      </g>
     </g>
     <g id="text_19">
      <!-- 2015-02-07 -->
      <defs>
       <path d="M 8.203125 72.90625 
L 55.078125 72.90625 
L 55.078125 68.703125 
L 28.609375 0 
L 18.3125 0 
L 43.21875 64.59375 
L 8.203125 64.59375 
z
" id="DejaVuSans-55"/>
      </defs>
      <g transform="translate(448.49484 740.965903)rotate(-30)scale(0.12 -0.12)">
       <use xlink:href="#DejaVuSans-50"/>
       <use x="63.623047" xlink:href="#DejaVuSans-48"/>
       <use x="127.246094" xlink:href="#DejaVuSans-49"/>
       <use x="190.869141" xlink:href="#DejaVuSans-53"/>
       <use x="254.492188" xlink:href="#DejaVuSans-45"/>
       <use x="290.576172" xlink:href="#DejaVuSans-48"/>
       <use x="354.199219" xlink:href="#DejaVuSans-50"/>
       <use x="417.822266" xlink:href="#DejaVuSans-45"/>
       <use x="453.90625" xlink:href="#DejaVuSans-48"/>
       <use x="517.529297" xlink:href="#DejaVuSans-55"/>
      </g>
     </g>
    </g>
    <g id="xtick_34">
     <g id="line2d_60">
      <g>
       <use style="stroke:#000000;stroke-width:0.8;" x="654.429091" xlink:href="#m841e4e5583" y="691.2"/>
      </g>
     </g>
     <g id="text_20">
      <!-- 2015-02-08 -->
      <defs>
       <path d="M 31.78125 34.625 
Q 24.75 34.625 20.71875 30.859375 
Q 16.703125 27.09375 16.703125 20.515625 
Q 16.703125 13.921875 20.71875 10.15625 
Q 24.75 6.390625 31.78125 6.390625 
Q 38.8125 6.390625 42.859375 10.171875 
Q 46.921875 13.96875 46.921875 20.515625 
Q 46.921875 27.09375 42.890625 30.859375 
Q 38.875 34.625 31.78125 34.625 
z
M 21.921875 38.8125 
Q 15.578125 40.375 12.03125 44.71875 
Q 8.5 49.078125 8.5 55.328125 
Q 8.5 64.0625 14.71875 69.140625 
Q 20.953125 74.21875 31.78125 74.21875 
Q 42.671875 74.21875 48.875 69.140625 
Q 55.078125 64.0625 55.078125 55.328125 
Q 55.078125 49.078125 51.53125 44.71875 
Q 48 40.375 41.703125 38.8125 
Q 48.828125 37.15625 52.796875 32.3125 
Q 56.78125 27.484375 56.78125 20.515625 
Q 56.78125 9.90625 50.3125 4.234375 
Q 43.84375 -1.421875 31.78125 -1.421875 
Q 19.734375 -1.421875 13.25 4.234375 
Q 6.78125 9.90625 6.78125 20.515625 
Q 6.78125 27.484375 10.78125 32.3125 
Q 14.796875 37.15625 21.921875 38.8125 
z
M 18.3125 54.390625 
Q 18.3125 48.734375 21.84375 45.5625 
Q 25.390625 42.390625 31.78125 42.390625 
Q 38.140625 42.390625 41.71875 45.5625 
Q 45.3125 48.734375 45.3125 54.390625 
Q 45.3125 60.0625 41.71875 63.234375 
Q 38.140625 66.40625 31.78125 66.40625 
Q 25.390625 66.40625 21.84375 63.234375 
Q 18.3125 60.0625 18.3125 54.390625 
z
" id="DejaVuSans-56"/>
      </defs>
      <g transform="translate(592.785749 740.965903)rotate(-30)scale(0.12 -0.12)">
       <use xlink:href="#DejaVuSans-50"/>
       <use x="63.623047" xlink:href="#DejaVuSans-48"/>
       <use x="127.246094" xlink:href="#DejaVuSans-49"/>
       <use x="190.869141" xlink:href="#DejaVuSans-53"/>
       <use x="254.492188" xlink:href="#DejaVuSans-45"/>
       <use x="290.576172" xlink:href="#DejaVuSans-48"/>
       <use x="354.199219" xlink:href="#DejaVuSans-50"/>
       <use x="417.822266" xlink:href="#DejaVuSans-45"/>
       <use x="453.90625" xlink:href="#DejaVuSans-48"/>
       <use x="517.529297" xlink:href="#DejaVuSans-56"/>
      </g>
     </g>
    </g>
    <g id="xtick_35">
     <g id="line2d_61">
      <g>
       <use style="stroke:#000000;stroke-width:0.8;" x="798.72" xlink:href="#m841e4e5583" y="691.2"/>
      </g>
     </g>
     <g id="text_21">
      <!-- 2015-02-09 -->
      <defs>
       <path d="M 10.984375 1.515625 
L 10.984375 10.5 
Q 14.703125 8.734375 18.5 7.8125 
Q 22.3125 6.890625 25.984375 6.890625 
Q 35.75 6.890625 40.890625 13.453125 
Q 46.046875 20.015625 46.78125 33.40625 
Q 43.953125 29.203125 39.59375 26.953125 
Q 35.25 24.703125 29.984375 24.703125 
Q 19.046875 24.703125 12.671875 31.3125 
Q 6.296875 37.9375 6.296875 49.421875 
Q 6.296875 60.640625 12.9375 67.421875 
Q 19.578125 74.21875 30.609375 74.21875 
Q 43.265625 74.21875 49.921875 64.515625 
Q 56.59375 54.828125 56.59375 36.375 
Q 56.59375 19.140625 48.40625 8.859375 
Q 40.234375 -1.421875 26.421875 -1.421875 
Q 22.703125 -1.421875 18.890625 -0.6875 
Q 15.09375 0.046875 10.984375 1.515625 
z
M 30.609375 32.421875 
Q 37.25 32.421875 41.125 36.953125 
Q 45.015625 41.5 45.015625 49.421875 
Q 45.015625 57.28125 41.125 61.84375 
Q 37.25 66.40625 30.609375 66.40625 
Q 23.96875 66.40625 20.09375 61.84375 
Q 16.21875 57.28125 16.21875 49.421875 
Q 16.21875 41.5 20.09375 36.953125 
Q 23.96875 32.421875 30.609375 32.421875 
z
" id="DejaVuSans-57"/>
      </defs>
      <g transform="translate(737.076658 740.965903)rotate(-30)scale(0.12 -0.12)">
       <use xlink:href="#DejaVuSans-50"/>
       <use x="63.623047" xlink:href="#DejaVuSans-48"/>
       <use x="127.246094" xlink:href="#DejaVuSans-49"/>
       <use x="190.869141" xlink:href="#DejaVuSans-53"/>
       <use x="254.492188" xlink:href="#DejaVuSans-45"/>
       <use x="290.576172" xlink:href="#DejaVuSans-48"/>
       <use x="354.199219" xlink:href="#DejaVuSans-50"/>
       <use x="417.822266" xlink:href="#DejaVuSans-45"/>
       <use x="453.90625" xlink:href="#DejaVuSans-48"/>
       <use x="517.529297" xlink:href="#DejaVuSans-57"/>
      </g>
     </g>
    </g>
    <g id="xtick_36">
     <g id="line2d_62">
      <g>
       <use style="stroke:#000000;stroke-width:0.8;" x="943.010909" xlink:href="#m841e4e5583" y="691.2"/>
      </g>
     </g>
     <g id="text_22">
      <!-- 2015-02-10 -->
      <g transform="translate(881.367567 740.965903)rotate(-30)scale(0.12 -0.12)">
       <use xlink:href="#DejaVuSans-50"/>
       <use x="63.623047" xlink:href="#DejaVuSans-48"/>
       <use x="127.246094" xlink:href="#DejaVuSans-49"/>
       <use x="190.869141" xlink:href="#DejaVuSans-53"/>
       <use x="254.492188" xlink:href="#DejaVuSans-45"/>
       <use x="290.576172" xlink:href="#DejaVuSans-48"/>
       <use x="354.199219" xlink:href="#DejaVuSans-50"/>
       <use x="417.822266" xlink:href="#DejaVuSans-45"/>
       <use x="453.90625" xlink:href="#DejaVuSans-49"/>
       <use x="517.529297" xlink:href="#DejaVuSans-48"/>
      </g>
     </g>
    </g>
    <g id="text_23">
     <!-- date -->
     <g transform="translate(576.87 756.245303)scale(0.12 -0.12)">
      <use xlink:href="#DejaVuSans-100"/>
      <use x="63.476562" xlink:href="#DejaVuSans-97"/>
      <use x="124.755859" xlink:href="#DejaVuSans-116"/>
      <use x="163.964844" xlink:href="#DejaVuSans-101"/>
     </g>
    </g>
   </g>
   <g id="matplotlib.axis_12">
    <g id="ytick_12">
     <g id="line2d_63">
      <g>
       <use style="stroke:#000000;stroke-width:0.8;" x="144" xlink:href="#mbc3915e05e" y="687.384935"/>
      </g>
     </g>
     <g id="text_24">
      <!-- 0.0 -->
      <g transform="translate(117.91625 691.943998)scale(0.12 -0.12)">
       <use xlink:href="#DejaVuSans-48"/>
       <use x="63.623047" xlink:href="#DejaVuSans-46"/>
       <use x="95.410156" xlink:href="#DejaVuSans-48"/>
      </g>
     </g>
    </g>
    <g id="ytick_13">
     <g id="line2d_64">
      <g>
       <use style="stroke:#000000;stroke-width:0.8;" x="144" xlink:href="#mbc3915e05e" y="649.234286"/>
      </g>
     </g>
     <g id="text_25">
      <!-- 0.5 -->
      <g transform="translate(117.91625 653.793348)scale(0.12 -0.12)">
       <use xlink:href="#DejaVuSans-48"/>
       <use x="63.623047" xlink:href="#DejaVuSans-46"/>
       <use x="95.410156" xlink:href="#DejaVuSans-53"/>
      </g>
     </g>
    </g>
    <g id="ytick_14">
     <g id="line2d_65">
      <g>
       <use style="stroke:#000000;stroke-width:0.8;" x="144" xlink:href="#mbc3915e05e" y="611.083636"/>
      </g>
     </g>
     <g id="text_26">
      <!-- 1.0 -->
      <g transform="translate(117.91625 615.642699)scale(0.12 -0.12)">
       <use xlink:href="#DejaVuSans-49"/>
       <use x="63.623047" xlink:href="#DejaVuSans-46"/>
       <use x="95.410156" xlink:href="#DejaVuSans-48"/>
      </g>
     </g>
    </g>
   </g>
   <g id="line2d_66">
    <path clip-path="url(#p5b980c9ecf)" d="M 184.581818 611.083636 
L 190.593939 687.384935 
L 262.739394 687.384935 
L 268.751515 611.083636 
L 298.812121 611.083636 
L 304.824242 687.384935 
L 310.836364 611.083636 
L 328.872727 611.083636 
L 334.884848 687.384935 
L 407.030303 687.384935 
L 413.042424 611.083636 
L 473.163636 611.083636 
L 479.175758 687.384935 
L 845.915151 687.384935 
L 851.927273 611.083636 
L 906.036364 611.083636 
L 912.048485 687.384935 
L 990.206061 687.384935 
L 996.218182 611.083636 
L 996.218182 611.083636 
" style="fill:none;stroke:#56b4e9;stroke-linecap:square;stroke-width:1.5;"/>
   </g>
   <g id="patch_33">
    <path d="M 144 691.2 
L 144 607.268571 
" style="fill:none;stroke:#000000;stroke-linecap:square;stroke-linejoin:miter;stroke-width:0.8;"/>
   </g>
   <g id="patch_34">
    <path d="M 1036.8 691.2 
L 1036.8 607.268571 
" style="fill:none;stroke:#000000;stroke-linecap:square;stroke-linejoin:miter;stroke-width:0.8;"/>
   </g>
   <g id="patch_35">
    <path d="M 144 691.2 
L 1036.8 691.2 
" style="fill:none;stroke:#000000;stroke-linecap:square;stroke-linejoin:miter;stroke-width:0.8;"/>
   </g>
   <g id="patch_36">
    <path d="M 144 607.268571 
L 1036.8 607.268571 
" style="fill:none;stroke:#000000;stroke-linecap:square;stroke-linejoin:miter;stroke-width:0.8;"/>
   </g>
   <g id="legend_6">
    <g id="patch_37">
     <path d="M 547.557812 686.2 
L 633.242188 686.2 
Q 635.242188 686.2 635.242188 684.2 
L 635.242188 670.521875 
Q 635.242188 668.521875 633.242188 668.521875 
L 547.557812 668.521875 
Q 545.557812 668.521875 545.557812 670.521875 
L 545.557812 684.2 
Q 545.557812 686.2 547.557812 686.2 
z
" style="fill:#ffffff;opacity:0.8;stroke:#cccccc;stroke-linejoin:miter;"/>
    </g>
    <g id="line2d_67">
     <path d="M 549.557812 676.620312 
L 569.557812 676.620312 
" style="fill:none;stroke:#56b4e9;stroke-linecap:square;stroke-width:1.5;"/>
    </g>
    <g id="line2d_68"/>
    <g id="text_27">
     <!-- occupancy -->
     <defs>
      <path d="M 54.890625 33.015625 
L 54.890625 0 
L 45.90625 0 
L 45.90625 32.71875 
Q 45.90625 40.484375 42.875 44.328125 
Q 39.84375 48.1875 33.796875 48.1875 
Q 26.515625 48.1875 22.3125 43.546875 
Q 18.109375 38.921875 18.109375 30.90625 
L 18.109375 0 
L 9.078125 0 
L 9.078125 54.6875 
L 18.109375 54.6875 
L 18.109375 46.1875 
Q 21.34375 51.125 25.703125 53.5625 
Q 30.078125 56 35.796875 56 
Q 45.21875 56 50.046875 50.171875 
Q 54.890625 44.34375 54.890625 33.015625 
z
" id="DejaVuSans-110"/>
     </defs>
     <g transform="translate(577.557812 680.120312)scale(0.1 -0.1)">
      <use xlink:href="#DejaVuSans-111"/>
      <use x="61.181641" xlink:href="#DejaVuSans-99"/>
      <use x="116.162109" xlink:href="#DejaVuSans-99"/>
      <use x="171.142578" xlink:href="#DejaVuSans-117"/>
      <use x="234.521484" xlink:href="#DejaVuSans-112"/>
      <use x="297.998047" xlink:href="#DejaVuSans-97"/>
      <use x="359.277344" xlink:href="#DejaVuSans-110"/>
      <use x="422.65625" xlink:href="#DejaVuSans-99"/>
      <use x="477.636719" xlink:href="#DejaVuSans-121"/>
     </g>
    </g>
   </g>
  </g>
  <g id="text_28">
   <!-- Train features during observation (1h resample) -->
   <defs>
    <path d="M -0.296875 72.90625 
L 61.375 72.90625 
L 61.375 64.59375 
L 35.5 64.59375 
L 35.5 0 
L 25.59375 0 
L 25.59375 64.59375 
L -0.296875 64.59375 
z
" id="DejaVuSans-84"/>
    <path id="DejaVuSans-32"/>
    <path d="M 37.109375 75.984375 
L 37.109375 68.5 
L 28.515625 68.5 
Q 23.6875 68.5 21.796875 66.546875 
Q 19.921875 64.59375 19.921875 59.515625 
L 19.921875 54.6875 
L 34.71875 54.6875 
L 34.71875 47.703125 
L 19.921875 47.703125 
L 19.921875 0 
L 10.890625 0 
L 10.890625 47.703125 
L 2.296875 47.703125 
L 2.296875 54.6875 
L 10.890625 54.6875 
L 10.890625 58.5 
Q 10.890625 67.625 15.140625 71.796875 
Q 19.390625 75.984375 28.609375 75.984375 
z
" id="DejaVuSans-102"/>
    <path d="M 44.28125 53.078125 
L 44.28125 44.578125 
Q 40.484375 46.53125 36.375 47.5 
Q 32.28125 48.484375 27.875 48.484375 
Q 21.1875 48.484375 17.84375 46.4375 
Q 14.5 44.390625 14.5 40.28125 
Q 14.5 37.15625 16.890625 35.375 
Q 19.28125 33.59375 26.515625 31.984375 
L 29.59375 31.296875 
Q 39.15625 29.25 43.1875 25.515625 
Q 47.21875 21.78125 47.21875 15.09375 
Q 47.21875 7.46875 41.1875 3.015625 
Q 35.15625 -1.421875 24.609375 -1.421875 
Q 20.21875 -1.421875 15.453125 -0.5625 
Q 10.6875 0.296875 5.421875 2 
L 5.421875 11.28125 
Q 10.40625 8.6875 15.234375 7.390625 
Q 20.0625 6.109375 24.8125 6.109375 
Q 31.15625 6.109375 34.5625 8.28125 
Q 37.984375 10.453125 37.984375 14.40625 
Q 37.984375 18.0625 35.515625 20.015625 
Q 33.0625 21.96875 24.703125 23.78125 
L 21.578125 24.515625 
Q 13.234375 26.265625 9.515625 29.90625 
Q 5.8125 33.546875 5.8125 39.890625 
Q 5.8125 47.609375 11.28125 51.796875 
Q 16.75 56 26.8125 56 
Q 31.78125 56 36.171875 55.265625 
Q 40.578125 54.546875 44.28125 53.078125 
z
" id="DejaVuSans-115"/>
    <path d="M 48.6875 27.296875 
Q 48.6875 37.203125 44.609375 42.84375 
Q 40.53125 48.484375 33.40625 48.484375 
Q 26.265625 48.484375 22.1875 42.84375 
Q 18.109375 37.203125 18.109375 27.296875 
Q 18.109375 17.390625 22.1875 11.75 
Q 26.265625 6.109375 33.40625 6.109375 
Q 40.53125 6.109375 44.609375 11.75 
Q 48.6875 17.390625 48.6875 27.296875 
z
M 18.109375 46.390625 
Q 20.953125 51.265625 25.265625 53.625 
Q 29.59375 56 35.59375 56 
Q 45.5625 56 51.78125 48.09375 
Q 58.015625 40.1875 58.015625 27.296875 
Q 58.015625 14.40625 51.78125 6.484375 
Q 45.5625 -1.421875 35.59375 -1.421875 
Q 29.59375 -1.421875 25.265625 0.953125 
Q 20.953125 3.328125 18.109375 8.203125 
L 18.109375 0 
L 9.078125 0 
L 9.078125 75.984375 
L 18.109375 75.984375 
z
" id="DejaVuSans-98"/>
    <path d="M 2.984375 54.6875 
L 12.5 54.6875 
L 29.59375 8.796875 
L 46.6875 54.6875 
L 56.203125 54.6875 
L 35.6875 0 
L 23.484375 0 
z
" id="DejaVuSans-118"/>
    <path d="M 31 75.875 
Q 24.46875 64.65625 21.28125 53.65625 
Q 18.109375 42.671875 18.109375 31.390625 
Q 18.109375 20.125 21.3125 9.0625 
Q 24.515625 -2 31 -13.1875 
L 23.1875 -13.1875 
Q 15.875 -1.703125 12.234375 9.375 
Q 8.59375 20.453125 8.59375 31.390625 
Q 8.59375 42.28125 12.203125 53.3125 
Q 15.828125 64.359375 23.1875 75.875 
z
" id="DejaVuSans-40"/>
    <path d="M 8.015625 75.875 
L 15.828125 75.875 
Q 23.140625 64.359375 26.78125 53.3125 
Q 30.421875 42.28125 30.421875 31.390625 
Q 30.421875 20.453125 26.78125 9.375 
Q 23.140625 -1.703125 15.828125 -13.1875 
L 8.015625 -13.1875 
Q 14.5 -2 17.703125 9.0625 
Q 20.90625 20.125 20.90625 31.390625 
Q 20.90625 42.671875 17.703125 53.65625 
Q 14.5 64.65625 8.015625 75.875 
z
" id="DejaVuSans-41"/>
   </defs>
   <g transform="translate(431.168437 26.398125)scale(0.12 -0.12)">
    <use xlink:href="#DejaVuSans-84"/>
    <use x="60.865234" xlink:href="#DejaVuSans-114"/>
    <use x="101.978516" xlink:href="#DejaVuSans-97"/>
    <use x="163.257812" xlink:href="#DejaVuSans-105"/>
    <use x="191.041016" xlink:href="#DejaVuSans-110"/>
    <use x="254.419922" xlink:href="#DejaVuSans-32"/>
    <use x="286.207031" xlink:href="#DejaVuSans-102"/>
    <use x="321.412109" xlink:href="#DejaVuSans-101"/>
    <use x="382.935547" xlink:href="#DejaVuSans-97"/>
    <use x="444.214844" xlink:href="#DejaVuSans-116"/>
    <use x="483.423828" xlink:href="#DejaVuSans-117"/>
    <use x="546.802734" xlink:href="#DejaVuSans-114"/>
    <use x="587.884766" xlink:href="#DejaVuSans-101"/>
    <use x="649.408203" xlink:href="#DejaVuSans-115"/>
    <use x="701.507812" xlink:href="#DejaVuSans-32"/>
    <use x="733.294922" xlink:href="#DejaVuSans-100"/>
    <use x="796.771484" xlink:href="#DejaVuSans-117"/>
    <use x="860.150391" xlink:href="#DejaVuSans-114"/>
    <use x="901.263672" xlink:href="#DejaVuSans-105"/>
    <use x="929.046875" xlink:href="#DejaVuSans-110"/>
    <use x="992.425781" xlink:href="#DejaVuSans-103"/>
    <use x="1055.902344" xlink:href="#DejaVuSans-32"/>
    <use x="1087.689453" xlink:href="#DejaVuSans-111"/>
    <use x="1148.871094" xlink:href="#DejaVuSans-98"/>
    <use x="1212.347656" xlink:href="#DejaVuSans-115"/>
    <use x="1264.447266" xlink:href="#DejaVuSans-101"/>
    <use x="1325.970703" xlink:href="#DejaVuSans-114"/>
    <use x="1367.083984" xlink:href="#DejaVuSans-118"/>
    <use x="1426.263672" xlink:href="#DejaVuSans-97"/>
    <use x="1487.542969" xlink:href="#DejaVuSans-116"/>
    <use x="1526.751953" xlink:href="#DejaVuSans-105"/>
    <use x="1554.535156" xlink:href="#DejaVuSans-111"/>
    <use x="1615.716797" xlink:href="#DejaVuSans-110"/>
    <use x="1679.095703" xlink:href="#DejaVuSans-32"/>
    <use x="1710.882812" xlink:href="#DejaVuSans-40"/>
    <use x="1749.896484" xlink:href="#DejaVuSans-49"/>
    <use x="1813.519531" xlink:href="#DejaVuSans-104"/>
    <use x="1876.898438" xlink:href="#DejaVuSans-32"/>
    <use x="1908.685547" xlink:href="#DejaVuSans-114"/>
    <use x="1949.767578" xlink:href="#DejaVuSans-101"/>
    <use x="2011.291016" xlink:href="#DejaVuSans-115"/>
    <use x="2063.390625" xlink:href="#DejaVuSans-97"/>
    <use x="2124.669922" xlink:href="#DejaVuSans-109"/>
    <use x="2222.082031" xlink:href="#DejaVuSans-112"/>
    <use x="2285.558594" xlink:href="#DejaVuSans-108"/>
    <use x="2313.341797" xlink:href="#DejaVuSans-101"/>
    <use x="2374.865234" xlink:href="#DejaVuSans-41"/>
   </g>
  </g>
 </g>
 <defs>
  <clipPath id="pec98e7bf12">
   <rect height="83.931429" width="892.8" x="144" y="103.68"/>
  </clipPath>
  <clipPath id="pa9c786ede3">
   <rect height="83.931429" width="892.8" x="144" y="204.397714"/>
  </clipPath>
  <clipPath id="p89b057386f">
   <rect height="83.931429" width="892.8" x="144" y="305.115429"/>
  </clipPath>
  <clipPath id="pf6f3f070be">
   <rect height="83.931429" width="892.8" x="144" y="405.833143"/>
  </clipPath>
  <clipPath id="p24e2095385">
   <rect height="83.931429" width="892.8" x="144" y="506.550857"/>
  </clipPath>
  <clipPath id="p5b980c9ecf">
   <rect height="83.931429" width="892.8" x="144" y="607.268571"/>
  </clipPath>
 </defs>
</svg>
